<?xml version="1.0" encoding="utf-8"?>
<!-- Generator: Adobe Illustrator 28.0.0, SVG Export Plug-In . SVG Version: 6.00 Build 0)  -->
<svg version="1.1" id="레이어_1" xmlns="http://www.w3.org/2000/svg" xmlns:xlink="http://www.w3.org/1999/xlink" x="0px"
	 y="0px" viewBox="0 0 800 600" style="enable-background:new 0 0 800 600;" xml:space="preserve">
<style type="text/css">
	.st0{fill:#FFDA00;}
	.st1{fill:#FFFFFF;}
</style>
<g>
	<path class="st0" d="M485.59,39.39v512.26c0,0,307.1,46.04,305.4-158.2c-0.89-107.15-98.41-123.04-98.41-123.04
		s61.08-20.93,57.69-113C744.41-1.66,485.59,39.39,485.59,39.39z"/>
	<path d="M555.82,563.1c-40.49,0-69.79-4.31-71.27-4.53c-3.43-0.51-5.96-3.46-5.96-6.92V39.39c0-3.44,2.5-6.37,5.9-6.91
		c1.58-0.25,39.27-6.13,86.66-4.59c64.31,2.08,113.01,16.37,144.75,42.48c26.11,21.48,40.03,50.68,41.36,86.79
		c1.84,49.88-14.93,79.7-29.33,95.93c-5.84,6.58-11.76,11.53-16.94,15.16c9.55,3.37,22,8.92,34.51,17.79
		c23.68,16.79,52,49.05,52.49,107.35c0.4,48.3-15.93,87.15-48.55,115.48c-36.61,31.79-92.42,49.81-165.88,53.54
		C573.91,562.9,564.6,563.1,555.82,563.1z M492.59,545.49c13.64,1.62,49.12,5.04,90.54,2.92c48.22-2.47,114.63-13.18,157.15-50.13
		c29.37-25.52,44.08-60.77,43.71-104.78c-0.35-41.85-15.87-74.05-46.14-95.73c-22.9-16.4-46.17-20.42-46.4-20.46
		c-3.16-0.53-5.57-3.13-5.83-6.33c-0.26-3.19,1.67-6.16,4.7-7.2c0.11-0.04,14.21-5.13,27.67-20.59
		c18.11-20.79,26.61-49.57,25.29-85.53c-1.18-31.92-13.37-57.65-36.25-76.48C644.76,29.95,521.02,41.94,492.59,45.5V545.49z"/>
</g>
<g>
	<path class="st0" d="M248.05,39.45v519.19c0,0,307.1,46.66,305.4-160.34c-0.89-108.6-98.41-124.71-98.41-124.71
		s61.08-21.21,57.69-114.53C506.87-2.15,248.05,39.45,248.05,39.45z"/>
	<path d="M318.29,570.15c-40.5,0-69.81-4.37-71.29-4.59c-3.42-0.52-5.95-3.46-5.95-6.92V39.45c0-3.44,2.5-6.37,5.89-6.91
		c1.57-0.25,39.04-6.17,86.24-4.67c64.04,2.04,112.66,16.33,144.51,42.48c26.56,21.81,40.7,51.57,42.04,88.46
		c1.84,50.5-14.92,80.69-29.3,97.12c-5.91,6.75-11.9,11.8-17.13,15.5c9.58,3.41,22.11,9.05,34.7,18.11
		c23.66,17.01,51.97,49.67,52.45,108.7c0.4,49.35-16.21,88.95-49.39,117.7c-36.73,31.83-92.43,49.84-165.56,53.53
		C336.03,569.95,326.91,570.15,318.29,570.15z M255.05,552.49c13.57,1.63,48.81,5.09,90.02,2.98c48-2.45,114.17-13.13,156.84-50.13
		c29.92-25.95,44.91-61.94,44.54-106.99c-0.35-42.46-15.88-75.14-46.17-97.13c-22.9-16.62-46.16-20.7-46.39-20.73
		c-3.15-0.53-5.55-3.13-5.82-6.32s1.65-6.15,4.67-7.2c0.11-0.04,14.21-5.2,27.67-20.88c18.12-21.1,26.64-50.3,25.31-86.78
		c-1.19-32.71-13.62-59-36.94-78.15c-62.53-51.35-185.46-39.23-213.75-35.63V552.49z"/>
</g>
<g>
	<path class="st0" d="M19,39.45v519.19c0,0,307.1,46.66,305.4-160.34C323.51,289.7,226,273.59,226,273.59s61.08-21.21,57.69-114.53
		C277.82-2.15,19,39.45,19,39.45z"/>
	<path d="M89.24,570.15c-40.5,0-69.81-4.37-71.29-4.59c-3.42-0.52-5.95-3.46-5.95-6.92V39.45c0-3.44,2.5-6.37,5.89-6.91
		c1.57-0.25,39.04-6.18,86.24-4.67c64.04,2.04,112.66,16.33,144.51,42.48c26.56,21.81,40.7,51.57,42.04,88.46
		c1.84,50.5-14.92,80.69-29.3,97.12c-5.91,6.75-11.9,11.8-17.13,15.5c9.58,3.41,22.11,9.05,34.7,18.11
		c23.66,17.01,51.97,49.67,52.45,108.7c0.4,49.35-16.21,88.95-49.39,117.7c-36.73,31.83-92.43,49.84-165.56,53.53
		C106.98,569.95,97.85,570.15,89.24,570.15z M26,552.49c13.57,1.63,48.81,5.09,90.02,2.98c48-2.45,114.17-13.13,156.84-50.13
		c29.92-25.95,44.91-61.94,44.54-106.99c-0.35-42.46-15.88-75.14-46.17-97.13c-22.9-16.62-46.16-20.7-46.39-20.73
		c-3.15-0.53-5.55-3.13-5.82-6.32c-0.27-3.19,1.65-6.15,4.67-7.2c0.11-0.04,14.21-5.2,27.67-20.88
		c18.12-21.1,26.64-50.3,25.31-86.78c-1.19-32.7-13.61-58.98-36.92-78.13C177.3,29.87,54.3,41.96,26,45.55V552.49z"/>
</g>
<g>
	<path class="st1" d="M234.48,159.07c0,33.73-27.35,61.08-61.08,61.08s-54.29-27.35-54.29-61.08s20.56-61.08,54.29-61.08
		S234.48,125.33,234.48,159.07z"/>
	<path d="M173.4,227.15c-17.99,0-34.02-7.23-45.14-20.37c-10.42-12.31-16.15-29.25-16.15-47.71s5.74-35.41,16.15-47.71
		c11.12-13.13,27.15-20.37,45.14-20.37c37.54,0,68.08,30.54,68.08,68.08S210.94,227.15,173.4,227.15z M173.4,104.99
		c-27.85,0-47.29,22.24-47.29,54.08s19.45,54.08,47.29,54.08c29.82,0,54.08-24.26,54.08-54.08S203.22,104.99,173.4,104.99z"/>
</g>
<g>
	<path class="st1" d="M470.32,152.28c0,33.73-25.65,54.29-59.38,54.29s-62.78-20.56-62.78-54.29S375.5,91.2,409.24,91.2
		S470.32,118.55,470.32,152.28z"/>
	<path d="M410.93,213.57c-18.54,0-35.75-5.71-48.46-16.07c-13.75-11.21-21.32-27.27-21.32-45.22c0-37.54,30.54-68.08,68.08-68.08
		s68.08,30.54,68.08,68.08C477.32,188.37,450.02,213.57,410.93,213.57z M409.24,98.2c-29.82,0-54.08,24.26-54.08,54.08
		c0,31.05,28.06,47.29,55.78,47.29c31.33,0,52.38-19.01,52.38-47.29C463.32,122.46,439.06,98.2,409.24,98.2z"/>
</g>
<g>
	<path class="st1" d="M700.43,129.62c16.04,29.68,3.25,59.96-26.43,76s-65,11.76-81.04-17.92c-16.04-29.68-4.98-66.74,24.7-82.78
		S684.39,99.94,700.43,129.62z"/>
	<path d="M639.38,221.82c-4.18,0-8.31-0.38-12.33-1.15c-17.42-3.32-31.72-13.85-40.25-29.65c-8.65-16-10.54-34.41-5.34-51.83
		c5.2-17.43,16.87-31.78,32.87-40.43c33.03-17.85,74.42-5.5,92.26,27.53c0,0,0,0,0,0c17.16,31.75,5.12,66.9-29.26,85.48
		C665.08,218.39,651.97,221.82,639.38,221.82z M646.6,104.59c-8.68,0-17.47,2.09-25.62,6.49c-12.71,6.87-21.98,18.27-26.11,32.12
		c-4.13,13.84-2.62,28.46,4.25,41.17c6.59,12.2,17.16,20,30.56,22.56c12.95,2.47,27.51-0.18,41-7.47
		c27.56-14.9,37.05-41.63,23.6-66.51l0,0C684.5,114.87,665.84,104.59,646.6,104.59z"/>
</g>
<circle cx="186.97" cy="147.19" r="27.15"/>
<path d="M237.48,442.63c-22.4,0-40.84-16.37-41.62-17.07c-2.87-2.59-3.11-7.01-0.52-9.89c2.58-2.87,7-3.11,9.88-0.53
	c0.28,0.25,15.39,13.48,32.26,13.48c29.32,0,44.97-28.27,45.13-28.55c1.84-3.39,6.08-4.67,9.48-2.84c3.4,1.83,4.68,6.05,2.86,9.45
	C294.16,408.16,275.31,442.63,237.48,442.63z"/>
<path d="M726.52,451.11c-21.53,0-31.57-25.46-31.98-26.54c-1.39-3.61,0.41-7.66,4.02-9.05c3.61-1.39,7.65,0.41,9.04,4
	c0.1,0.25,7.24,17.59,18.92,17.59c15.18,0,16.65-18.41,16.76-20.51c0.21-3.85,3.5-6.79,7.35-6.61c3.85,0.2,6.81,3.46,6.63,7.31
	C756.7,428.99,749.55,451.11,726.52,451.11z"/>
<g>
	<path class="st1" d="M673.92,170.94c0,0,2.23-35.94-24.87-38.16c-31.12-2.56-25.19,45.08-25.19,45.08"/>
	<path d="M623.85,182.86c-2.49,0-4.64-1.85-4.96-4.38c-0.15-1.2-3.52-29.64,9.69-43.42c5.3-5.52,12.31-7.97,20.87-7.26
		c25.3,2.08,30.33,29.33,29.45,43.46c-0.17,2.76-2.58,4.86-5.3,4.68c-2.75-0.17-4.85-2.54-4.68-5.29l0,0
		c0.07-1.27,1.57-31.08-20.29-32.88c-5.47-0.45-9.67,0.93-12.83,4.21c-8.24,8.57-7.84,28.37-7,35.27c0.34,2.74-1.61,5.23-4.35,5.57
		C624.26,182.84,624.05,182.86,623.85,182.86z"/>
</g>
<g>
	<path class="st1" d="M422.64,133.2c0,0-1.66-15.12-16.51-11.79c-14.31,3.21-13.99,12.33-12.95,16.94
		c3.31,14.78,33.72,3.57,37.14,18.79c2.17,9.68-4.05,15.43-13.4,17.53c-9.35,2.1-16.61-4.51-18.36-12.34"/>
	<path d="M413.48,178.06c-9.14,0-16.06-7.09-17.85-15.08c-0.36-1.62,0.65-3.22,2.27-3.58c1.62-0.37,3.22,0.65,3.58,2.27
		c1.38,6.18,7.03,11.81,14.78,10.07c4.22-0.95,7.46-2.65,9.38-4.93c2-2.38,2.57-5.33,1.75-9.02c-1.17-5.2-6.9-6.21-16.19-7.25
		c-8.83-0.99-18.83-2.11-20.94-11.54c-1.1-4.9-1.81-16.71,15.22-20.53c5.25-1.18,9.72-0.48,13.28,2.07c5.91,4.23,6.83,12,6.86,12.33
		c0.18,1.65-1.01,3.13-2.66,3.31c-1.64,0.18-3.12-1-3.31-2.64l0,0c-0.01-0.05-0.69-5.49-4.42-8.13c-2.11-1.5-4.95-1.85-8.45-1.07
		c-8.76,1.96-12.25,6.33-10.68,13.36c1.1,4.9,6.69,5.87,15.76,6.89c9,1.01,19.19,2.15,21.38,11.9c1.23,5.49,0.19,10.4-3.01,14.2
		c-2.77,3.29-7.15,5.68-12.66,6.91C416.17,177.91,414.8,178.06,413.48,178.06z"/>
</g>
<g>
	<line class="st1" x1="404.87" y1="113.94" x2="419.91" y2="181.03"/>
	<path d="M419.91,184.03c-1.37,0-2.61-0.95-2.92-2.34l-15.04-67.09c-0.36-1.62,0.65-3.22,2.27-3.58c1.61-0.36,3.22,0.65,3.58,2.27
		l15.04,67.09c0.36,1.62-0.65,3.22-2.27,3.58C420.35,184.01,420.13,184.03,419.91,184.03z"/>
</g>
<path d="M453.32,442.63c-0.4,0-0.81-0.01-1.23-0.02c-19.67-0.7-27.83-19.23-29.4-28.92c-0.62-3.82,1.98-7.41,5.79-8.03
	c3.8-0.62,7.39,1.96,8.02,5.77c0.13,0.76,3.05,16.73,16.08,17.19c6.29,0.22,8.28-2.14,12.59-7.98c4.11-5.57,9.23-12.5,20.27-15.51
	c14.43-3.94,27.53,2.21,41.24,19.35c2.42,3.02,1.93,7.42-1.09,9.84c-3.02,2.42-7.42,1.93-9.84-1.09
	c-12.64-15.8-20.55-16.24-26.63-14.59c-6.35,1.73-9.14,5.52-12.69,10.32C471.93,435.06,466.34,442.63,453.32,442.63z"/>
</svg>
