<?xml version="1.0" encoding="utf-8"?>
<!-- Generator: Adobe Illustrator 27.2.0, SVG Export Plug-In . SVG Version: 6.00 Build 0)  -->
<svg version="1.1" id="레이어_1" xmlns="http://www.w3.org/2000/svg" xmlns:xlink="http://www.w3.org/1999/xlink" x="0px"
	 y="0px" viewBox="0 0 800 700" style="enable-background:new 0 0 800 700;" xml:space="preserve">
<style type="text/css">
	.st0{fill:#FB9392;}
	.st1{fill:#FFDA00;}
	.st2{fill:#FFFFFF;}
	.st3{fill:none;}
	.st4{fill:#E2AAAA;}
	.st5{enable-background:new    ;}
</style>
<g>
	<path class="st0" d="M625.3,447.9c0,0-9.8,15.3-0.8,17c9,1.7,11.8,1.9,15.2-7.3"/>
	<path d="M631.4,470.1c-2.3,0-4.8-0.4-7.7-1c-3.1-0.6-5.4-2.3-6.5-5c-2.8-6.4,2.7-15.8,4.5-18.6l7.3,4.6l-3.6-2.3l3.6,2.3
		c-2.4,3.8-4.3,8.7-3.9,10.3c0.1,0,0.1,0,0.3,0.1c2.9,0.5,6.1,1.1,7.3,0.6c0.8-0.3,1.9-2.1,3-5.2l8.1,2.9
		C640.6,467.7,636.8,470.1,631.4,470.1z"/>
</g>
<g>
	<path class="st0" d="M647.7,458c0,0-5.7,17.2,3.5,16.6c9.1-0.6,11.9-1.1,12.8-10.9"/>
	<path d="M650.7,479c-2.8,0-5.2-1.1-6.8-3.2c-4.3-5.5-1.3-16-0.3-19.1l8.2,2.7l-4.1-1.3l4.1,1.3c-1.4,4.3-2,9.5-1.2,11
		c0.1,0,0.2,0,0.3,0c2.9-0.2,6.2-0.4,7.2-1.2c0.7-0.5,1.3-2.5,1.6-5.8l8.6,0.8c-1.2,13.1-6.9,14.1-16.8,14.8
		C651.2,478.9,651,479,650.7,479z"/>
</g>
<g>
	<path class="st0" d="M720.9,457.5c0,0,5.4,17.3,12.4,11.5c7.1-5.8,9.1-7.8,4.2-16.3"/>
	<path d="M730.4,474.5c-0.8,0-1.6-0.1-2.3-0.4c-6.7-2-10.3-12.3-11.3-15.4l8.2-2.5c1.3,4.3,3.9,8.9,5.4,9.6c0.1,0,0.1-0.1,0.2-0.2
		c2.2-1.8,4.8-3.9,5.2-5.2c0.3-0.9-0.4-2.8-2-5.6l7.5-4.3c6.5,11.4,2.5,15.5-5.2,21.8C734.3,473.8,732.4,474.5,730.4,474.5z"/>
</g>
<g>
	<path class="st0" d="M745.4,448.9c0,0,5.4,17.3,12.4,11.5c7.1-5.8,9.1-7.8,4.2-16.3"/>
	<path d="M754.9,465.9c-0.8,0-1.6-0.1-2.3-0.4c-6.7-2-10.3-12.3-11.3-15.4l8.2-2.5c1.3,4.3,3.9,8.9,5.4,9.6c0.1,0,0.1-0.1,0.2-0.2
		c2.2-1.8,4.8-3.9,5.2-5.2c0.3-0.9-0.4-2.8-2-5.6l7.5-4.3c6.5,11.4,2.5,15.5-5.2,21.8C758.8,465.2,756.8,465.9,754.9,465.9z"/>
</g>
<g>
	<g>
		<path class="st1" d="M306.9,140.6v249.9c0,0,149.8,22.5,149-77.2c-0.4-52.3-48-60-48-60s29.8-10.2,28.1-55.1
			C433.2,120.5,306.9,140.6,306.9,140.6z"/>
		<path d="M341.2,397.7c-19.9,0-34.3-2.1-35-2.2c-2.5-0.4-4.3-2.5-4.3-5V140.6c0-2.5,1.8-4.6,4.2-5c3.1-0.5,77-11.8,114.2,18.8
			c13.1,10.8,20.1,25.4,20.8,43.5c0.9,24.9-7.5,39.8-14.7,47.9c-2.1,2.3-4.2,4.3-6.1,5.9c4.3,1.7,9.4,4.2,14.5,7.8
			c11.9,8.4,26,24.5,26.3,53.7c0.2,24.1-8,43.4-24.2,57.6c-18.1,15.8-45.7,24.7-81.9,26.5C350,397.6,345.5,397.7,341.2,397.7z
			 M311.9,386c17.5,1.9,84,6.9,118.2-22.8c14-12.1,20.9-28.9,20.8-49.9c-0.2-20-7.6-35.3-22-45.6c-10.9-7.7-21.6-9.5-21.7-9.5
			c-2.3-0.4-4-2.2-4.2-4.5c-0.2-2.3,1.2-4.4,3.4-5.2c1-0.4,26.2-9.9,24.8-50.2c-0.6-15.3-6.1-27.1-17.1-36.1
			c-29-23.8-86-19.1-102-17.2L311.9,386L311.9,386z"/>
	</g>
	<g>
		<path class="st1" d="M191,140.6v253.3c0,0,149.8,22.8,149-78.2c-0.4-53-48-60.8-48-60.8s29.8-10.4,28.1-55.9
			C317.3,120.3,191,140.6,191,140.6z"/>
		<path d="M225.3,401.1c-19.9,0-34.3-2.1-35-2.3c-2.5-0.4-4.3-2.5-4.3-5V140.6c0-2.5,1.8-4.6,4.2-5c3.1-0.5,76.5-11.9,113.9,18.8
			c13.3,10.9,20.4,25.9,21.1,44.4c0.9,25.2-7.5,40.3-14.7,48.5c-2.1,2.4-4.3,4.4-6.3,6c4.3,1.8,9.4,4.3,14.6,8
			c11.9,8.5,26,24.9,26.3,54.3c0.2,24.6-8.1,44.3-24.6,58.7c-18.2,15.8-45.7,24.7-81.8,26.5C234,401,229.5,401.1,225.3,401.1z
			 M196,389.5c17.4,1.9,83.5,7,117.8-22.8c14.2-12.3,21.4-29.5,21.2-51c-0.4-48-42-55.6-43.8-55.9c-2.3-0.4-4-2.3-4.2-4.5
			c-0.2-2.3,1.2-4.4,3.4-5.2c1-0.4,26.3-10,24.8-50.9c-0.6-15.5-6.4-27.9-17.4-36.9c-29.1-23.9-85.8-19.1-101.6-17.2L196,389.5
			L196,389.5z"/>
	</g>
	<g>
		<path class="st1" d="M79.2,140.6v253.3c0,0,149.8,22.8,149-78.2c-0.4-53-48-60.9-48-60.9s29.8-10.4,28.1-55.9
			C205.5,120.3,79.2,140.6,79.2,140.6z"/>
		<path d="M113.5,401.1c-19.9,0-34.3-2.1-35-2.3c-2.5-0.4-4.3-2.5-4.3-5V140.6c0-2.5,1.8-4.6,4.2-5c3.1-0.5,76.5-11.9,113.9,18.8
			c13.3,10.9,20.4,25.9,21.1,44.4c0.9,25.2-7.5,40.3-14.7,48.5c-2.1,2.4-4.3,4.4-6.3,6c4.3,1.8,9.4,4.3,14.6,8
			c11.9,8.5,26,24.9,26.3,54.3c0.2,24.6-8.1,44.3-24.6,58.7c-18.2,15.8-45.7,24.7-81.8,26.5C122.2,401,117.7,401.1,113.5,401.1z
			 M84.3,389.5c17.4,1.9,83.5,7,117.8-22.8c14.2-12.3,21.4-29.5,21.2-51c-0.4-48-42-55.6-43.8-55.9c-2.3-0.4-4-2.3-4.2-4.5
			s1.2-4.4,3.4-5.2c1-0.4,26.3-10,24.8-50.9c-0.6-15.5-6.4-27.9-17.4-36.9c-29.1-23.9-85.8-19.1-101.7-17.2L84.3,389.5L84.3,389.5z"
			/>
	</g>
	<g>
		<path class="st2" d="M184.4,198.9c0,16.5-13.3,29.8-29.8,29.8s-26.5-13.3-26.5-29.8s10-29.8,26.5-29.8
			C171,169.1,184.4,182.5,184.4,198.9z"/>
		<path d="M154.6,233.8c-18.3,0-31.5-14.6-31.5-34.8s13.3-34.8,31.5-34.8c19.2,0,34.8,15.6,34.8,34.8S173.8,233.8,154.6,233.8z
			 M154.6,174.2c-14.8,0-21.5,12.4-21.5,24.8s6.6,24.8,21.5,24.8c13.7,0,24.8-11.1,24.8-24.8S168.2,174.2,154.6,174.2z"/>
	</g>
	<g>
		<path class="st2" d="M299.4,195.6c0,16.5-12.5,26.5-29,26.5s-30.6-10-30.6-26.5s13.3-29.8,29.8-29.8S299.4,179.2,299.4,195.6z"/>
		<path d="M270.5,227.2c-20.7,0-35.7-13.3-35.7-31.5c0-19.2,15.6-34.8,34.8-34.8s34.8,15.6,34.8,34.8
			C304.5,214.2,290.5,227.2,270.5,227.2z M269.6,170.9c-13.7,0-24.8,11.1-24.8,24.8c0,14.7,13.3,21.5,25.6,21.5
			c14.5,0,23.9-8.4,23.9-21.5C294.4,182,283.3,170.9,269.6,170.9z"/>
	</g>
	<g>
		<path class="st2" d="M411.7,184.6c7.8,14.5,1.6,29.3-12.9,37.1c-14.5,7.8-31.7,5.7-39.5-8.7c-7.8-14.5-2.4-32.6,12-40.4
			C385.8,164.7,403.9,170.1,411.7,184.6z"/>
		<path d="M381.9,231.2c-2.1,0-4.3-0.2-6.3-0.6c-9-1.7-16.4-7.1-20.8-15.3c-4.4-8.2-5.4-17.6-2.7-26.5s8.6-16.3,16.8-20.7
			c8.2-4.4,17.6-5.4,26.5-2.7c8.9,2.7,16.3,8.6,20.7,16.8c8.8,16.3,2.7,34.4-14.9,43.9C395,229.4,388.3,231.2,381.9,231.2z
			 M385.5,174c-4.1,0-8.1,1-11.7,3c-5.8,3.1-10.1,8.4-12,14.7c-1.9,6.3-1.2,13,1.9,18.9c3,5.5,7.7,9,13.8,10.2
			c6,1.1,12.7-0.1,18.9-3.5c12.8-6.9,17.1-18.8,10.9-30.3c-3.1-5.8-8.4-10.1-14.7-12C390.2,174.3,387.8,174,385.5,174z"/>
	</g>
	<circle cx="161.2" cy="193.2" r="13.2"/>
	<path d="M185.8,338.9c-11.5,0-21-8.4-21.4-8.7c-2.1-1.9-2.2-5-0.4-7.1c1.9-2.1,5-2.2,7.1-0.4c0.1,0.1,7.1,6.2,14.7,6.2
		c13.4,0,20.5-12.9,20.6-13.1c1.3-2.5,4.4-3.4,6.8-2.1c2.4,1.3,3.4,4.4,2.1,6.8C214.9,321.3,205.2,338.9,185.8,338.9z"/>
	<path d="M424.4,343.1c-9.3,0-15.1-8.8-17.1-14c-1-2.6,0.3-5.5,2.9-6.5c2.6-1,5.5,0.3,6.5,2.9c0.8,2,3.9,7.5,7.7,7.5
		c5.9,0,6.5-7.6,6.6-8.5c0.2-2.8,2.5-4.9,5.3-4.7c2.8,0.1,4.9,2.5,4.8,5.2C440.8,331.3,436.9,343.1,424.4,343.1z"/>
	<g>
		<path class="st2" d="M398.8,204.8c0,0,1.1-17.5-12.1-18.6c-15.2-1.2-12.3,22-12.3,22"/>
		<path d="M374.3,211.7c-1.8,0-3.3-1.3-3.6-3.1c-0.2-1.5-1.7-15.1,5-22.1c2.8-2.9,6.6-4.3,11.1-3.9c13.2,1.1,15.9,15.1,15.4,22.4
			c-0.1,2-1.8,3.5-3.8,3.4c-2-0.1-3.5-1.8-3.4-3.8l0,0c0-0.6,0.7-14-8.8-14.8c-3.1-0.2-4.5,0.9-5.3,1.7c-3.7,3.9-3.5,13.3-3.1,16.3
			c0.2,2-1.1,3.8-3.1,4C374.6,211.7,374.5,211.7,374.3,211.7z"/>
	</g>
	<g>
		<path class="st2" d="M276.2,186.3c0,0-0.8-7.4-8-5.8c-7,1.6-6.8,6-6.3,8.3c1.6,7.2,16.5,1.8,18.1,9.2c1.1,4.7-2,7.5-6.5,8.6
			s-8.1-2.2-9-6"/>
		<path d="M271.7,208.9c-4.8,0-8.4-3.7-9.4-7.9c-0.3-1.2,0.5-2.3,1.6-2.6c1.2-0.3,2.3,0.5,2.6,1.6c0.6,2.7,3,5.1,6.4,4.4
			c1.9-0.4,3.4-1.2,4.2-2.2c0.8-1,1.1-2.2,0.7-3.8c-0.5-2.1-3.1-2.5-7.3-3c-4.3-0.5-9.7-1.1-10.8-6.2c-1.2-5.4,1.8-9.4,8-10.8
			c2.8-0.6,5.1-0.2,7,1.1c3.1,2.2,3.6,6.1,3.6,6.5c0.1,1.2-0.7,2.2-1.9,2.4s-2.2-0.7-2.4-1.9c-0.1-0.7-0.6-2.6-1.9-3.5
			c-0.9-0.6-2-0.8-3.6-0.4c-5.1,1.1-5.1,3.8-4.7,5.7c0.4,1.9,3,2.4,7.1,2.8c4.4,0.5,9.9,1.1,11,6.3c0.8,3.7-0.4,6.1-1.6,7.5
			c-1.5,1.7-3.7,3-6.6,3.6C273.1,208.8,272.4,208.9,271.7,208.9z"/>
	</g>
	<g>
		<line class="st3" x1="267.5" y1="176.9" x2="274.8" y2="209.7"/>
		<path d="M274.8,211.8c-1,0-1.9-0.7-2.1-1.7l-7.3-32.7c-0.3-1.2,0.5-2.3,1.6-2.6c1.2-0.3,2.3,0.5,2.6,1.6l7.3,32.7
			c0.3,1.2-0.5,2.3-1.6,2.6C275.1,211.8,275,211.8,274.8,211.8z"/>
	</g>
	<path d="M291.1,338.9c-0.2,0-0.4,0-0.6,0c-10.6-0.4-15-10.3-15.9-15.5c-0.5-2.8,1.4-5.3,4.2-5.8c2.7-0.5,5.3,1.4,5.8,4.1
		c0.1,0.4,1.3,6.9,6.3,7c2.2,0.1,2.8-0.5,4.8-3.2c2-2.8,4.8-6.5,10.8-8.2c10.2-2.8,17.3,4.4,21.8,10c1.7,2.2,1.4,5.3-0.8,7.1
		c-2.2,1.7-5.3,1.4-7.1-0.8c-6.3-7.9-9.7-7-11.3-6.6c-2.4,0.7-3.5,2-5.3,4.4C301.5,334.5,298.3,338.9,291.1,338.9z"/>
	<path d="M54,287c-6,0-12.1-1-17.5-3.7c-6.9-3.6-11.5-9.5-13.5-17.7c-7.6-30.5-2.8-59.6-2.6-60.9c0.5-2.7,3.1-4.6,5.8-4.1
		s4.6,3.1,4.1,5.8c0,0.3-4.7,28.3,2.4,56.7c1.3,5.3,4,9,8.3,11.2c11,5.7,29.9,0.5,36.3-1.9c2.6-1,5.5,0.3,6.5,2.9
		c1,2.6-0.3,5.5-2.9,6.5C80.3,282.1,67.5,287,54,287z"/>
	<path d="M81.7,468.9c-1.6,0-3.1-0.7-4.1-2.1c-1.6-2.3-1.1-5.4,1.2-7c0.3-0.2,18.6-13.6,24.7-30c4.4-11.9,2.2-28.9,2.2-29
		c-0.4-2.8,1.6-5.3,4.3-5.7c2.8-0.4,5.3,1.5,5.7,4.3c0.1,0.8,2.6,19.6-2.8,33.9c-7.2,19.4-27.4,34-28.3,34.6
		C83.8,468.6,82.7,468.9,81.7,468.9z"/>
	<path d="M161.2,463.9c-0.7,0-1.3-0.1-2-0.4c-2.6-1.1-3.7-4.1-2.6-6.6l0,0c0.1-0.2,7.6-18.2,2.3-34.5c-3.9-12.1-14.9-22.9-15-23
		c-2-1.9-2-5.1-0.1-7.1s5.1-2,7.1-0.1c0.5,0.5,12.9,12.6,17.6,27.1c6.5,20-2.3,40.8-2.6,41.6C165,462.8,163.1,463.9,161.2,463.9z"/>
	<path d="M214.1,448.3c-3.1,0-5.9-0.5-8.1-1.1c-2.7-0.8-4.2-3.6-3.4-6.3c0.8-2.6,3.6-4.1,6.3-3.4c1.5,0.4,14.6,3.8,19.5-9.4
		c4.3-11.5-0.9-28.9-0.9-29c-0.8-2.7,0.7-5.5,3.4-6.3s5.5,0.7,6.3,3.4c0.3,0.8,6.2,20.8,0.7,35.5C233,444.8,222.6,448.3,214.1,448.3
		z"/>
	<path d="M273.8,458.1c-1.4,0-2.7-0.5-3.7-1.6c-1.9-2-1.8-5.2,0.2-7.1c0.2-0.2,15.1-14.5,10.2-29.5c-3.9-12.1-14.9-22.9-15-23
		c-2-1.9-2-5.1-0.1-7.1s5.1-2,7.1-0.1c0.5,0.5,12.9,12.6,17.6,27.1c6.9,21.2-12.1,39.2-13,40C276.2,457.7,275,458.1,273.8,458.1z"/>
	<g>
		<path d="M325.1,455.6c-1.5,0-2.9-0.6-3.9-1.8c-1.8-2.1-1.5-5.3,0.6-7.1c0.2-0.2,7.3-6.5,13.4-22.8c4.7-12.5,6.3-26.8,6.3-26.9
			c0.3-2.8,2.8-4.8,5.6-4.4s4.8,2.8,4.4,5.6c-0.1,0.6-1.8,15.7-6.9,29.4c-7.2,19.2-16,26.6-16.4,27
			C327.4,455.3,326.2,455.6,325.1,455.6z"/>
		<path d="M438.5,439.9c-1.9,0-3.7-1.1-4.5-2.9c-0.1-0.3-8.1-16.7-19.6-27.5c-9.4-8.8-31.1-16.2-31.3-16.3c-2.6-0.9-4-3.8-3.1-6.4
			c0.9-2.6,3.8-4,6.4-3.1c1,0.3,23.9,8.2,34.9,18.5c13,12.1,21.5,29.8,21.8,30.5c1.2,2.5,0.1,5.5-2.4,6.7
			C440,439.8,439.2,439.9,438.5,439.9z"/>
	</g>
	<g>
		<path class="st1" d="M37,189c0,8.9-2.1,16.6-10.8,16.6s-15.7-7.2-15.7-16.1s7-16.1,15.7-16.1S37,180.1,37,189z"/>
		<path d="M26.2,210.6c-11.4,0-20.8-9.5-20.8-21.2c0-11.7,9.3-21.2,20.8-21.2c7.4,0,11.2,3.8,13,7.1c1.9,3.3,2.8,7.7,2.8,13.7
			C42,206.9,33.5,210.6,26.2,210.6z M26.2,178.3c-5.9,0-10.7,5-10.7,11.1s4.8,11.1,10.7,11.1c2,0,5.7,0,5.7-11.5
			C32,178.3,28.8,178.3,26.2,178.3z"/>
	</g>
	<path d="M501.8,318.5c-3.1,0-6.3-0.4-9.8-1.2c-19.1-4.3-42.4-22.5-43.4-23.3c-2.2-1.7-2.6-4.9-0.9-7.1s4.9-2.6,7.1-0.9
		c0.2,0.2,22.5,17.6,39.4,21.4c7.8,1.8,13.9,1,18.2-2.3c7.3-5.6,7.9-16.8,7.9-17c0.1-2.8,2.5-5,5.2-4.8c2.8,0.1,4.9,2.5,4.8,5.2
		c0,0.6-0.8,16-11.8,24.5C514,316.7,508.3,318.5,501.8,318.5z"/>
	<g>
		<path class="st1" d="M547.3,291c-5.1,7.3-11.1,12.5-18.3,7.5c-7.2-4.9-8.8-14.9-3.8-22.2c5.1-7.3,15-9.3,22.1-4.4
			C554.5,276.9,552.4,283.7,547.3,291z"/>
		<path d="M534.7,305.5c-3.3,0-6.2-1.3-8.5-2.9c-9.4-6.5-11.7-19.6-5-29.2s19.7-12.1,29.1-5.6c6.1,4.2,7,9.5,6.7,13.2
			c-0.3,3.8-2.1,7.9-5.5,12.9l0,0C545.4,302.7,539.6,305.5,534.7,305.5z M538.6,274.2c-3.5,0-7,1.7-9.2,4.9
			c-3.5,5-2.4,11.9,2.5,15.2c1.7,1.1,4.7,3.2,11.3-6.2l0,0c6.1-8.8,3.5-10.6,1.4-12.1C542.8,274.8,540.7,274.2,538.6,274.2z"/>
	</g>
	<g>
		<path class="st1" d="M82.4,470.4c-2.3-2.7-4-12.7-10-10c-6,2.7-22,17.3-10.7,22c11.3,4.7,24,16,30.6,10.7c6.7-5.3,16-14,12-20
			C100.4,467.1,88.2,477.2,82.4,470.4z"/>
		<path d="M88.2,499.6c-5.8,0-12.1-3.6-18.4-7.2c-3.4-1.9-6.9-3.9-10.1-5.2c-4.4-1.8-7-5.3-7.1-9.5c-0.1-9.6,12.7-19.5,17.6-21.7
			c3.9-1.7,7.8-0.9,10.8,2.3c1.8,2,3,4.6,3.9,6.7c0.4,0.8,0.9,2,1.2,2.4c1,1.1,3.5,0.7,7.2-0.1c4.5-1,11.2-2.5,15.1,3.3
			c7.1,10.6-8.1,22.7-13,26.7C93.2,498.8,90.8,499.6,88.2,499.6z M62.8,477.3c0.1,0.1,0.4,0.3,0.8,0.5c3.8,1.6,7.6,3.7,11.2,5.8
			c4.9,2.8,12.4,7.1,14.4,5.6c10.5-8.4,11.1-12.1,11-13c-1,0-3.2,0.4-4.6,0.7c-4.8,1.1-12.1,2.7-17.1-3.2l0,0
			c-1.1-1.3-1.9-3-2.7-4.7c-0.5-1-1.3-2.8-1.9-3.7C69.5,467.5,62.7,474.8,62.8,477.3z"/>
	</g>
	<g>
		<path class="st1" d="M445.3,427c-3.5,0.7-13-2.8-13.6,3.7s4.2,27.7,13.8,20.1s25.8-12.9,24.5-21.4s-4.2-20.8-11.4-20.3
			C451.3,409.7,454.1,425.3,445.3,427z"/>
		<path d="M441.5,457.5c-1.6,0-3.2-0.4-4.7-1.2c-8.4-4.6-10.7-20.7-10.1-26c0.4-4.3,3.1-7.3,7.4-8.2c2.6-0.6,5.5-0.3,7.8-0.1
			c0.9,0.1,2.2,0.2,2.6,0.2c1.5-0.3,2.3-2.7,3.5-6.4c1.4-4.4,3.4-11,10.3-11.5c12.7-0.9,15.8,18.3,16.8,24.5
			c1.5,9.2-7.8,14.7-16.8,20c-3.4,2-6.8,4-9.5,6.1C446.4,456.6,443.9,457.5,441.5,457.5z M436.7,431.7c-0.2,5,2.7,14.5,4.9,15.7
			c0.1,0,0.4-0.2,0.8-0.5c3.2-2.5,7-4.7,10.6-6.9c4.9-2.9,12.3-7.3,11.9-9.7c-2.1-13.3-5-15.6-5.9-16c-0.5,0.9-1.2,3-1.6,4.4
			c-1.5,4.7-3.7,11.9-11.2,13.3c-1.7,0.3-3.5,0.1-5.4,0C439.7,431.8,437.7,431.6,436.7,431.7z M444.4,422L444.4,422L444.4,422z"/>
	</g>
	<g>
		<path class="st1" d="M334.6,459c-2.4-2.6-4.5-12.5-10.4-9.6c-5.9,2.9-21.3,18.2-9.8,22.4c11.5,4.2,24.6,15,31.1,9.4
			s15.4-14.6,11.2-20.5C352.5,454.9,340.7,465.5,334.6,459z"/>
		<path d="M341.1,487.9c-5.6,0-11.9-3.3-18.1-6.5c-3.5-1.8-7-3.6-10.3-4.8c-4.5-1.6-7.2-5-7.5-9.2c-0.5-9.5,11.9-20,16.7-22.4
			c3.8-1.9,7.8-1.2,10.9,1.9c1.9,1.9,3.2,4.5,4.2,6.5c0.4,0.8,1,2,1.2,2.3c1,1.1,3.5,0.5,7.2-0.5c4.4-1.2,11.1-2.9,15.2,2.7
			c7.5,10.3-7.1,23-12,27.2C346.5,487,343.9,487.9,341.1,487.9z M315.4,466.6c0.1,0.1,0.4,0.2,0.9,0.4c3.9,1.4,7.7,3.4,11.5,5.4
			c5,2.6,12.7,6.6,14.6,5c10.2-8.8,10.6-12.5,10.5-13.5c0,0,0,0,0,0c-1,0-3.2,0.6-4.5,0.9c-4.8,1.3-12,3.1-17.2-2.5l0,0
			c-1.2-1.2-2-2.9-2.8-4.6c-0.5-1-1.4-2.8-2.1-3.6C321.6,456.6,315.2,464.1,315.4,466.6z"/>
	</g>
	<g>
		<path class="st1" d="M281.4,457.7c-3.2-1.4-9.1-9.6-13.4-4.6s-12.1,25.2,0.1,24.4s28.6,3.8,32.2-3.9c3.6-7.7,8.2-19.6,2-23.2
			C296.1,446.8,289.6,461.2,281.4,457.7z"/>
		<path d="M288.2,483.2c-2.8,0-5.6-0.2-8.5-0.4c-3.9-0.2-7.9-0.5-11.4-0.3c-4.8,0.3-8.6-1.7-10.5-5.5c-4.3-8.5,2.8-23.1,6.3-27.2
			c2.8-3.3,6.7-4.3,10.7-2.7c2.5,1,4.7,2.8,6.5,4.3c0.7,0.5,1.7,1.4,2.1,1.6c1.4,0.6,3.5-1,6.5-3.3c3.6-2.9,9-7.2,15-3.7
			c11,6.4,2.7,24,0,29.7C301.9,481.9,295.5,483.2,288.2,483.2z M271.2,472.4c3,0,6.1,0.2,9.2,0.4c5.7,0.4,14.3,0.9,15.3-1.3
			c5.8-12.2,4.6-15.7,4.2-16.5c-0.9,0.4-2.7,1.8-3.8,2.7c-3.9,3.1-9.7,7.7-16.8,4.7l0,0c-1.6-0.7-3-1.9-4.5-3.1
			c-0.9-0.7-2.4-2-3.4-2.5c-3,4-5.9,13.5-4.8,15.8c0.1,0,0.4,0.1,1,0C268.9,472.4,270,472.4,271.2,472.4z M283.4,453.1L283.4,453.1
			L283.4,453.1L283.4,453.1z"/>
	</g>
	<g>
		<path class="st1" d="M205.8,448c-0.6-3.5,3-12.9-3.6-13.7s-27.7,3.8-20.3,13.6s12.6,25.9,21,24.7c8.4-1.2,20.9-4,20.5-11.2
			C223,454.2,207.4,456.8,205.8,448z"/>
		<path d="M201.9,477.7c-8.2,0-13.2-8.7-18-17.2c-1.9-3.4-3.9-6.9-6-9.6c-2.9-3.8-3.4-8.1-1.3-11.8c4.7-8.3,20.8-10.4,26.2-9.8
			c4.3,0.5,7.2,3.2,8.1,7.5c0.6,2.6,0.3,5.5,0,7.8c-0.1,0.9-0.2,2.2-0.2,2.6c0.3,1.5,2.7,2.4,6.3,3.5c4.4,1.4,10.9,3.6,11.4,10.5
			c0.7,12.7-18.5,15.5-24.8,16.4C203.1,477.6,202.5,477.7,201.9,477.7z M185.4,444c0.1,0.1,0.2,0.4,0.5,0.8c2.5,3.3,4.6,7,6.7,10.7
			c2.8,5,7.1,12.4,9.6,12.1c13.3-1.9,15.7-4.8,16.1-5.7c-0.9-0.6-3-1.2-4.3-1.7c-4.7-1.5-11.8-3.8-13.1-11.4
			c-0.3-1.7-0.1-3.5,0.1-5.4c0.1-1.1,0.3-3.1,0.2-4.2C196.1,438.9,186.7,441.8,185.4,444z M210.8,447.1L210.8,447.1L210.8,447.1z"/>
	</g>
	<g>
		<path class="st1" d="M164.6,466.6c-3-1.8-7.9-10.7-12.7-6.2c-4.8,4.5-15.2,23.5-3,24.2c12.2,0.8,27.9,7.4,32.5,0.2
			c4.6-7.2,10.6-18.4,4.9-22.8C180.6,457.6,172.3,471.1,164.6,466.6z"/>
		<path d="M173.4,493.1c-4.2,0-8.9-0.9-13.5-1.8c-3.8-0.7-7.8-1.5-11.2-1.7c-4.8-0.3-8.4-2.8-9.8-6.7c-3.2-9,5.7-22.6,9.7-26.2
			c3.1-2.9,7.1-3.4,11-1.3c2.4,1.3,4.3,3.4,5.9,5.1c0.6,0.6,1.5,1.6,1.9,1.9c1.3,0.7,3.6-0.5,6.8-2.5c3.9-2.4,9.9-6,15.3-1.8
			c10.1,7.8-0.3,24.1-3.7,29.5C182.9,491.8,178.5,493.1,173.4,493.1z M148.3,479.4c0.1,0,0.4,0.1,0.9,0.2c4.1,0.2,8.4,1.1,12.5,1.9
			c5.6,1.1,14.1,2.7,15.4,0.6c7.2-11.4,6.6-15,6.2-15.9c-1,0.3-2.9,1.5-4.1,2.2c-4.2,2.6-10.6,6.4-17.2,2.5l0,0
			c-1.5-0.9-2.7-2.2-4-3.6c-0.8-0.8-2.1-2.3-3-2.9C151.5,468,147.4,477,148.3,479.4z"/>
	</g>
</g>
<g>
	<path class="st0" d="M782.7,385.9c-5-30.2-24.8-57.1-61.1-59.7c-48.7-3.4-107.8,12.9-116.5,57.5c-3.3,16.9,2.7,86,85.6,75.5
		C762.6,450.2,789.4,425.7,782.7,385.9z"/>
	<path d="M674.3,465.4c-23.7,0-42.3-7.1-55.5-21.3c-20.6-22-20.3-52.4-18.6-61.3c4.3-22.1,20.2-39.5,46.2-50.4
		c21.3-9,48.8-13,75.5-11.1c18.2,1.3,33.9,8.5,45.6,21c10.3,11.1,17.3,25.9,20.1,42.8l0,0c2.8,16.9-0.1,31.4-8.8,43
		c-13.9,18.7-42.5,30.5-87.6,36.2C685.4,465,679.7,465.4,674.3,465.4z M708.9,330.8c-45.7,0-91.8,17.5-98.8,53.9
		c-1.8,9.2-0.2,35.1,16,52.5c14,14.9,35.5,20.6,64,17c42.2-5.3,68.6-15.9,80.8-32.2c7-9.5,9.3-21,7-35.3l0,0
		c-5.4-32.7-26.6-53.4-56.5-55.5C717.2,331,713,330.8,708.9,330.8z"/>
</g>
<g>
	<path class="st4" d="M743,380.3c-6.4,0.8-21.7,6.3-15.2,23.4s19,16.6,28.3,12.5c9.3-4.1,19.7-12.8,17.6-21.7
		C769.9,378.4,751.9,379.2,743,380.3z"/>
	<path d="M745.7,423c-2.9,0-5.6-0.5-8.2-1.6c-6.1-2.5-10.7-7.9-13.8-16.1c-2.7-7.1-2.5-13.3,0.7-18.6c4-6.7,12.2-9.9,18-10.7l0,0
		c26.5-3.4,33.6,9.5,35.5,17.4c2.6,11.1-8.2,21.4-20,26.7C753.7,422,749.6,423,745.7,423z M743.5,384.6c-3.1,0.4-9.1,2.2-11.7,6.6
		c-1.7,2.8-1.7,6.5,0,11.1c2.2,5.8,5.3,9.6,9.1,11.1c4.7,2,9.9,0.5,13.5-1.1c8.4-3.7,16.6-10.9,15.2-16.8
		C767.3,386.3,758.6,382.7,743.5,384.6L743.5,384.6z"/>
</g>
<g>
	<line class="st3" x1="745" y1="395" x2="745.1" y2="402.8"/>
	<path d="M745.1,407.8c-2.8,0-5-2.2-5-5l-0.1-7.7c0-2.8,2.2-5.1,5-5.1c0,0,0,0,0.1,0c2.8,0,5,2.2,5,5l0.1,7.7
		C750.2,405.5,747.9,407.7,745.1,407.8C745.2,407.8,745.1,407.8,745.1,407.8z"/>
</g>
<g>
	<line class="st3" x1="757.4" y1="392.8" x2="757.5" y2="400.6"/>
	<path d="M757.5,403.8c-1.8,0-3.2-1.4-3.2-3.2l-0.1-7.7c0-1.8,1.4-3.3,3.2-3.3c0,0,0,0,0,0c1.8,0,3.2,1.4,3.2,3.2l0.1,7.7
		C760.8,402.3,759.3,403.8,757.5,403.8C757.5,403.8,757.5,403.8,757.5,403.8z"/>
</g>
<path d="M719,373.7c-6.3,0-10.5-4.3-12.1-7c-0.8-1.4-0.3-3.1,1.1-3.9c1.4-0.8,3.1-0.3,3.9,1.1c0.3,0.6,3.5,5.6,9.8,3.7
	c6.6-2,7.5-4.9,7.5-4.9c0,0.1,0,0.2,0,0.2l5.7,1c-0.1,0.6-1.3,6.1-11.5,9.2C721.8,373.5,720.3,373.7,719,373.7z"/>
<path d="M754,370c-5.7,0-8.6-4.4-9.4-6.8c-0.4-1.1,0.3-2.4,1.4-2.7c1.1-0.4,2.3,0.3,2.7,1.4c0.2,0.4,1.5,4.2,5.9,3.8
	c4.1-0.4,4.6-3.1,4.7-3.6c0.1-1.2,1.2-2,2.3-1.9c1.2,0.1,2,1.1,2,2.3c-0.2,2.4-2.2,7-8.6,7.5C754.6,370,754.3,370,754,370z"/>
<g>
	<path class="st1" d="M643.8,353.3c0,0,24.9-11.4,43.4-8.8"/>
	<path d="M643.8,358.4c-1.9,0-3.7-1.1-4.6-3c-1.2-2.5,0-5.5,2.5-6.7c1.1-0.5,26.5-11.9,46.2-9.1c2.8,0.4,4.7,2.9,4.3,5.7
		c-0.4,2.8-2.9,4.7-5.7,4.3c-16.8-2.4-40.4,8.2-40.7,8.4C645.2,358.2,644.5,358.4,643.8,358.4z"/>
</g>
<path d="M604.2,406.4c-0.3,0-0.7,0-1-0.1c-0.1,0-13.1-3.6-23.6-1.9c-2.2,0.4-8.2,1.3-9.9-3c-1-2.5,0.3-5.2,2.1-7.3
	c-1.7,0.4-3.8,1-6.4,1.8c-4.3,1.4-7.7,1-10-1.1c-2.6-2.5-3.1-6.6-1.5-12.6c1-3.6,2.5-7,3.3-8.7c2.1-4.6,3-5.5,4.6-5.8
	c1.9-0.5,3.9,0.7,4.3,2.7c0.3,1.2-0.1,2.5-0.9,3.3c-1.9,2.9-6.1,13.5-4.9,15.9c0.2,0,1.1,0.1,2.8-0.5c15.5-5,18.9-3,20.2-0.3
	c0.9,1.8,0.7,4.5-2.6,6.8c-0.7,0.5-1.4,1.1-2.1,1.7c12-1.9,25.8,2,26.4,2.1c1.9,0.5,3,2.5,2.5,4.4
	C607.2,405.4,605.8,406.4,604.2,406.4z M563.5,374.6L563.5,374.6L563.5,374.6z M563.5,374.6L563.5,374.6L563.5,374.6z M563.5,374.6
	L563.5,374.6L563.5,374.6z"/>
<g>
	<g>
		<circle class="st1" cx="620.2" cy="282.4" r="32.4"/>
		<path d="M620.2,319.8c-20.6,0-37.4-16.8-37.4-37.4s16.8-37.4,37.4-37.4s37.4,16.8,37.4,37.4S640.8,319.8,620.2,319.8z
			 M620.2,255.1c-15.1,0-27.3,12.3-27.3,27.3s12.3,27.3,27.3,27.3s27.3-12.3,27.3-27.3S635.3,255.1,620.2,255.1z"/>
	</g>
	<path d="M621.2,296.2c-1.8,0-3.5-0.5-4.9-1.6c-1.7-1.3-3-3.3-3.5-5.5c-0.3-1.2,0.5-2.3,1.6-2.6c1.2-0.2,2.3,0.5,2.6,1.6
		c0.3,1.2,0.9,2.2,1.9,2.9c0.7,0.5,1.8,1,3.3,0.7c4.9-1.1,4.3-3.9,4-4.9c-0.4-1.6-2.5-2-6.1-2.4c-3.8-0.4-8.6-1-9.6-5.6
		c-0.4-1.9-0.3-3.7,0.5-5.2c1.1-2.3,3.3-3.8,6.7-4.5c3.1-0.7,5.2,0.2,6.3,1c2.8,2,3.2,5.5,3.3,5.9c0.1,1.2-0.7,2.2-1.9,2.4
		c-1.2,0.1-2.2-0.7-2.4-1.9c-0.1-0.5-0.5-2.1-1.5-2.8c-0.7-0.5-1.6-0.6-2.9-0.3c-2,0.4-3.2,1.2-3.7,2.2c-0.3,0.6-0.4,1.5-0.1,2.4
		c0.3,1.5,2.5,1.9,5.9,2.2c3.9,0.4,8.8,1,9.8,5.7c1.1,4.9-1.7,8.8-7.3,10C622.4,296.1,621.8,296.2,621.2,296.2z"/>
	<path d="M623.9,298.7c-1,0-1.9-0.7-2.1-1.7l-6.4-28.4c-0.3-1.2,0.5-2.3,1.6-2.6c1.2-0.3,2.3,0.5,2.6,1.6l6.4,28.4
		c0.3,1.2-0.5,2.3-1.6,2.6C624.2,298.7,624,298.7,623.9,298.7z"/>
	<path d="M629.2,316.9c-0.9,0-1.8-0.6-2.1-1.6l-2.5-8.6c-0.3-1.1,0.3-2.3,1.5-2.7c1.1-0.3,2.3,0.3,2.7,1.5l2.5,8.6
		c0.3,1.1-0.3,2.3-1.5,2.7C629.6,316.9,629.4,316.9,629.2,316.9z"/>
	<path d="M637.7,311.8c-0.8,0-1.5-0.4-1.9-1.1l-4.5-7.9c-0.6-1-0.2-2.4,0.8-2.9s2.3-0.2,2.9,0.8l4.5,7.9c0.6,1,0.2,2.4-0.8,2.9
		C638.4,311.7,638,311.8,637.7,311.8z"/>
	<path d="M645.1,305.2c-0.5,0-1-0.2-1.4-0.5l-6.2-5.6c-0.9-0.8-1-2.2-0.2-3c0.8-0.9,2.2-1,3-0.2l6.2,5.6c0.9,0.8,1,2.2,0.2,3
		C646.3,305,645.7,305.2,645.1,305.2z"/>
	<path d="M650.1,296.9c-0.4,0-0.9-0.1-1.3-0.4l-6.2-4.4c-1-0.7-1.2-2-0.5-3c0.7-1,2-1.2,3-0.5l6.2,4.4c1,0.7,1.2,2,0.5,3
		C651.5,296.6,650.8,296.9,650.1,296.9z"/>
	<path d="M652.6,284.5C652.6,284.5,652.6,284.5,652.6,284.5l-6.9,0c-1.2,0-2.2-1-2.2-2.2c0-1.2,1-2.1,2.2-2.1h0l6.9,0
		c1.2,0,2.2,1,2.2,2.2C654.7,283.6,653.8,284.5,652.6,284.5z"/>
	<path d="M642,274.8c-0.9,0-1.8-0.6-2.1-1.6c-0.3-1.1,0.3-2.3,1.5-2.7l8.2-2.3c1.1-0.3,2.3,0.4,2.7,1.5c0.3,1.1-0.3,2.3-1.5,2.7
		l-8.2,2.3C642.4,274.8,642.2,274.8,642,274.8z"/>
	<path d="M637.6,268.5c-0.5,0-1-0.2-1.5-0.6c-0.9-0.8-0.9-2.2-0.1-3l5.9-6.4c0.8-0.9,2.2-0.9,3-0.1c0.9,0.8,0.9,2.2,0.1,3l-5.9,6.4
		C638.8,268.3,638.2,268.5,637.6,268.5z"/>
	<path d="M631,262.2c-0.2,0-0.3,0-0.5,0c-1.2-0.3-1.9-1.4-1.6-2.6l1.7-7.6c0.3-1.2,1.4-1.9,2.6-1.6c1.2,0.3,1.9,1.4,1.6,2.6
		l-1.7,7.6C632.9,261.6,632,262.2,631,262.2z"/>
	<path d="M622.4,260.8c-0.1,0-0.3,0-0.4,0c-1.2-0.2-1.9-1.4-1.7-2.5l1.5-7.3c0.2-1.2,1.4-1.9,2.5-1.7c1.2,0.2,1.9,1.4,1.7,2.6
		l-1.5,7.3C624.3,260.1,623.4,260.8,622.4,260.8z"/>
	<path d="M613.8,261.5c-1,0-1.9-0.7-2.1-1.7l-1.7-8c-0.2-1.2,0.5-2.3,1.7-2.6s2.3,0.5,2.6,1.7l1.7,8c0.2,1.2-0.5,2.3-1.7,2.6
		C614.1,261.5,613.9,261.5,613.8,261.5z"/>
	<path d="M590.8,295.3c-0.8,0-1.6-0.5-2-1.3c-0.5-1.1,0-2.4,1.1-2.8l6.5-2.9c1.1-0.5,2.4,0,2.8,1.1c0.5,1.1,0,2.4-1.1,2.8l-6.5,2.9
		C591.3,295.3,591,295.3,590.8,295.3z"/>
	<path d="M596.5,303.2c-0.6,0-1.2-0.2-1.6-0.7c-0.8-0.9-0.7-2.3,0.2-3l5.8-5c0.9-0.8,2.3-0.7,3,0.2c0.8,0.9,0.7,2.3-0.2,3l-5.8,5
		C597.5,303.1,597,303.2,596.5,303.2z"/>
	<path d="M603.7,310.4c-0.3,0-0.6-0.1-0.9-0.2c-1.1-0.5-1.5-1.8-1-2.9l3-6.5c0.5-1.1,1.8-1.5,2.9-1s1.5,1.8,1,2.9l-3,6.5
		C605.3,310,604.5,310.4,603.7,310.4z"/>
	<path d="M610.2,316.2c-0.2,0-0.5,0-0.7-0.1c-1.1-0.4-1.7-1.6-1.3-2.8l2.7-7.9c0.4-1.1,1.6-1.7,2.8-1.3s1.7,1.6,1.3,2.8l-2.7,7.9
		C611.9,315.6,611.1,316.2,610.2,316.2z"/>
	<path d="M595.8,281c-0.2,0-0.5,0-0.7-0.1l-7.3-2.6c-1.1-0.4-1.7-1.6-1.3-2.8c0.4-1.1,1.7-1.7,2.8-1.3l7.3,2.6
		c1.1,0.4,1.7,1.6,1.3,2.8C597.5,280.4,596.7,281,595.8,281z"/>
	<path d="M600,270.3c-0.6,0-1.2-0.2-1.6-0.7l-5.1-5.8c-0.8-0.9-0.7-2.2,0.2-3c0.9-0.8,2.2-0.7,3,0.2l5.1,5.8c0.8,0.9,0.7,2.2-0.2,3
		C601,270.1,600.5,270.3,600,270.3z"/>
</g>
<g>
	<g>
		<circle class="st1" cx="680" cy="220" r="32.4"/>
		<path d="M680,257.3c-6.7,0-13.5-1.8-19.7-5.6c-8.5-5.3-14.4-13.5-16.7-23.2s-0.6-19.8,4.6-28.2c10.9-17.5,34-22.9,51.5-12
			c17.5,10.9,22.9,34,12,51.5l0,0C704.7,251.1,692.5,257.3,680,257.3z M680.1,192.6c-9.2,0-18.1,4.6-23.2,12.9
			c-3.8,6.2-5,13.5-3.4,20.6c1.7,7.1,6,13.1,12.2,17c12.8,7.9,29.7,4,37.6-8.8l0,0c8-12.8,4-29.7-8.8-37.6
			C690,194,685,192.6,680.1,192.6z"/>
	</g>
	<path d="M679.3,233.8c-1.3,0-2.6-0.2-4.1-0.7c-2.4-0.8-4.2-2.5-5.1-4.8c-0.8-2-0.8-4.4-0.1-6.5c0.4-1.1,1.6-1.7,2.8-1.3
		c1.1,0.4,1.7,1.6,1.3,2.8c-0.4,1.1-0.4,2.4,0,3.5c0.3,0.8,1,1.8,2.5,2.3c4.7,1.6,5.7-1.1,6-2c0.5-1.6-1.1-3-3.9-5.2
		c-3-2.4-6.8-5.4-5.2-9.8c0.6-1.8,1.7-3.3,3.2-4.2c2.1-1.3,4.8-1.5,8-0.3c3,1,4.3,2.9,4.8,4.2c1.3,3.1-0.1,6.3-0.3,6.7
		c-0.5,1.1-1.8,1.5-2.9,1c-1.1-0.5-1.5-1.8-1-2.9c0.2-0.5,0.7-2,0.2-3.2c-0.3-0.8-1.1-1.4-2.3-1.8c-1.9-0.7-3.4-0.7-4.3-0.1
		c-0.6,0.4-1.1,1-1.4,2c-0.5,1.4,1.1,2.9,3.8,5c3.1,2.4,6.9,5.5,5.3,10.1C685.5,231.9,682.8,233.8,679.3,233.8z"/>
	<path d="M675.6,236.1c-0.2,0-0.5,0-0.7-0.1c-1.1-0.4-1.7-1.6-1.3-2.8l9.6-27.5c0.4-1.1,1.6-1.7,2.8-1.3s1.7,1.6,1.3,2.8l-9.6,27.5
		C677.4,235.6,676.5,236.1,675.6,236.1z"/>
	<path d="M670.5,254.4c-0.2,0-0.4,0-0.6-0.1c-1.1-0.3-1.8-1.5-1.5-2.7l2.4-8.7c0.3-1.1,1.5-1.8,2.7-1.5c1.1,0.3,1.8,1.5,1.5,2.7
		l-2.4,8.7C672.3,253.7,671.5,254.4,670.5,254.4z"/>
	<path d="M680.4,254.5C680.4,254.5,680.4,254.5,680.4,254.5c-1.3,0-2.2-1.1-2.2-2.2l0.3-9c0-1.2,1-2.1,2.2-2.1
		c1.2,0,2.1,1.1,2.1,2.2l-0.3,9C682.5,253.6,681.6,254.5,680.4,254.5z"/>
	<path d="M690.3,252.8c-0.9,0-1.8-0.6-2.1-1.6l-2.3-8c-0.3-1.1,0.3-2.3,1.5-2.7c1.1-0.3,2.3,0.3,2.7,1.5l2.3,8
		c0.3,1.1-0.3,2.3-1.5,2.7C690.7,252.8,690.5,252.8,690.3,252.8z"/>
	<path d="M698.9,248.4c-0.8,0-1.7-0.5-2-1.3l-2.9-7c-0.5-1.1,0.1-2.4,1.2-2.8c1.1-0.4,2.4,0.1,2.8,1.2l2.9,7
		c0.5,1.1-0.1,2.4-1.2,2.8C699.5,248.3,699.2,248.4,698.9,248.4z"/>
	<path d="M707.5,239.2c-0.4,0-0.8-0.1-1.1-0.3l-5.8-3.6c-1-0.6-1.3-2-0.7-3c0.6-1,2-1.3,3-0.7l5.8,3.6c1,0.6,1.3,2,0.7,3
		C708.9,238.8,708.2,239.2,707.5,239.2z"/>
	<path d="M711.9,227.8c-0.2,0-0.4,0-0.6-0.1l-8.2-2.4c-1.1-0.3-1.8-1.5-1.5-2.7s1.5-1.8,2.7-1.5l8.2,2.4c1.1,0.3,1.8,1.5,1.5,2.7
		C713.7,227.1,712.8,227.8,711.9,227.8z"/>
	<path d="M703.3,217.7c-0.9,0-1.8-0.6-2.1-1.6c-0.3-1.1,0.3-2.3,1.5-2.7l8.4-2.3c1.2-0.3,2.3,0.4,2.7,1.5c0.3,1.1-0.3,2.3-1.5,2.7
		l-8.4,2.3C703.7,217.6,703.5,217.7,703.3,217.7z"/>
	<path d="M700.9,208.9c-0.5,0-1.1-0.2-1.5-0.6c-0.8-0.8-0.9-2.2,0-3.1l5.5-5.5c0.8-0.9,2.2-0.9,3,0c0.8,0.8,0.9,2.2,0,3.1l-5.5,5.5
		C702,208.7,701.5,208.9,700.9,208.9z"/>
	<path d="M694.4,203.1c-0.5,0-1.1-0.2-1.5-0.6c-0.9-0.8-0.9-2.2-0.1-3.1l5.1-5.4c0.8-0.9,2.2-0.9,3-0.1c0.9,0.8,0.9,2.2,0.1,3.1
		l-5.1,5.4C695.5,202.9,694.9,203.1,694.4,203.1z"/>
	<path d="M686.7,199.2c-0.2,0-0.5,0-0.7-0.1c-1.1-0.4-1.7-1.6-1.3-2.8l2.8-7.7c0.4-1.1,1.6-1.7,2.8-1.3s1.7,1.6,1.3,2.8l-2.8,7.7
		C688.4,198.6,687.5,199.2,686.7,199.2z"/>
	<path d="M656.3,216.7c-0.1,0-0.2,0-0.3,0l-7.1-1c-1.2-0.2-2-1.3-1.8-2.4c0.2-1.2,1.3-2,2.4-1.8l7.1,1c1.2,0.2,2,1.3,1.8,2.4
		C658.3,216,657.4,216.7,656.3,216.7z"/>
	<path d="M650,225.5c-1,0-2-0.8-2.1-1.8c-0.2-1.2,0.6-2.3,1.8-2.5l7.5-1.2c1.2-0.2,2.3,0.6,2.5,1.8s-0.6,2.3-1.8,2.5l-7.5,1.2
		C650.2,225.5,650.1,225.5,650,225.5z"/>
	<path d="M652.3,235.4c-0.7,0-1.4-0.4-1.8-1c-0.7-1-0.4-2.3,0.6-3l6-3.9c1-0.6,2.3-0.4,3,0.6c0.7,1,0.4,2.3-0.6,3l-6,3.9
		C653.1,235.3,652.7,235.4,652.3,235.4z"/>
	<path d="M654.8,243.7c-0.6,0-1.2-0.3-1.7-0.8c-0.8-0.9-0.6-2.3,0.3-3l6.5-5.3c0.9-0.8,2.3-0.6,3,0.3c0.8,0.9,0.6,2.3-0.3,3
		l-6.5,5.3C655.7,243.5,655.2,243.7,654.8,243.7z"/>
	<path d="M661.2,206.2c-0.6,0-1.3-0.3-1.7-0.8l-4.8-6.1c-0.7-0.9-0.6-2.3,0.4-3c0.9-0.7,2.3-0.6,3,0.4l4.8,6.1
		c0.7,0.9,0.6,2.3-0.4,3C662.1,206,661.6,206.2,661.2,206.2z"/>
	<path d="M670.3,199.3c-1,0-1.9-0.7-2.1-1.8l-1.3-7.6c-0.2-1.2,0.6-2.3,1.8-2.5c1.2-0.2,2.3,0.6,2.5,1.8l1.3,7.6
		c0.2,1.2-0.6,2.3-1.8,2.5C670.5,199.3,670.4,199.3,670.3,199.3z"/>
</g>
<g>
	<g>
		<circle class="st1" cx="733.9" cy="96.3" r="32.4"/>
		<path d="M733.9,133.7c-3.4,0-6.9-0.5-10.4-1.5c-19.8-5.7-31.2-26.5-25.5-46.3c2.8-9.6,9.1-17.5,17.9-22.3s18.8-5.9,28.4-3.2
			c19.8,5.7,31.2,26.5,25.5,46.3l0,0C765.1,123.1,750.1,133.7,733.9,133.7z M734,69c-11.8,0-22.8,7.8-26.2,19.7
			c-4.2,14.5,4.2,29.7,18.6,33.8c14.5,4.2,29.7-4.2,33.8-18.6c4.2-14.5-4.2-29.7-18.6-33.8C739,69.3,736.5,69,734,69z"/>
	</g>
	<path d="M733.8,110.2c-0.3,0-0.6,0-0.9,0c-5.4-0.3-8.3-5.1-8-9.5c0.1-1.2,1.1-2.1,2.3-2c1.2,0.1,2.1,1.1,2,2.3
		c-0.1,2.2,1.2,4.7,4,4.9c1.6,0.1,3-0.2,3.8-0.8c0.8-0.6,1.3-1.5,1.4-2.8c0.1-1.7-1.9-2.6-5.2-4c-3.6-1.5-8-3.3-7.7-8
		c0.1-1.9,0.8-3.6,1.9-4.9c1.7-1.9,4.3-2.7,7.7-2.5c3.2,0.2,4.9,1.6,5.8,2.8c2.1,2.7,1.6,6.1,1.5,6.5c-0.2,1.2-1.3,2-2.5,1.8
		c-1.2-0.2-2-1.3-1.8-2.5c0.1-0.5,0.1-2.2-0.7-3.1c-0.5-0.7-1.4-1-2.7-1.1c-2-0.1-3.4,0.2-4.2,1.1c-0.5,0.5-0.8,1.3-0.8,2.3
		c-0.1,1.5,1.8,2.5,5,3.8c3.6,1.5,8.1,3.4,7.8,8.2c-0.2,3.4-1.9,5.2-3.3,6.1C737.9,109.7,736,110.2,733.8,110.2z"/>
	<path d="M733.5,113.1c0,0-0.1,0-0.1,0c-1.2-0.1-2.1-1.1-2-2.3l1.8-29.1c0.1-1.2,1.1-2.1,2.3-2c1.2,0.1,2.1,1.1,2,2.3l-1.8,29.1
		C735.6,112.2,734.6,113.1,733.5,113.1z"/>
	<path d="M733.5,132.1L733.5,132.1c-1.2,0-2.2-1-2.2-2.2l0-9c0-1.2,1-2.2,2.2-2.2l0,0c1.2,0,2.2,1,2.2,2.2l0,9
		C735.7,131.1,734.7,132.1,733.5,132.1z"/>
	<path d="M743.1,129.5c-1,0-1.9-0.7-2.1-1.7l-2.1-8.8c-0.3-1.2,0.4-2.3,1.6-2.6s2.3,0.4,2.6,1.6l2.1,8.8c0.3,1.2-0.4,2.3-1.6,2.6
		C743.4,129.5,743.2,129.5,743.1,129.5z"/>
	<path d="M752.1,125.2c-0.7,0-1.4-0.4-1.8-1l-4.4-7.1c-0.6-1-0.3-2.3,0.7-3c1-0.6,2.3-0.3,3,0.7l4.4,7.1c0.6,1,0.3,2.3-0.7,3
		C752.9,125.1,752.5,125.2,752.1,125.2z"/>
	<path d="M759.2,118.7c-0.6,0-1.3-0.3-1.7-0.8l-4.7-6c-0.7-0.9-0.6-2.3,0.4-3c0.9-0.7,2.3-0.6,3,0.4l4.7,6c0.7,0.9,0.6,2.3-0.4,3
		C760.2,118.5,759.7,118.7,759.2,118.7z"/>
	<path d="M765,107.5c-0.2,0-0.4,0-0.6-0.1l-6.6-1.9c-1.1-0.3-1.8-1.5-1.5-2.7s1.5-1.8,2.7-1.5l6.6,1.9c1.1,0.3,1.8,1.5,1.5,2.7
		C766.8,106.9,766,107.5,765,107.5z"/>
	<path d="M766.1,95.3C766.1,95.3,766.1,95.3,766.1,95.3l-8.6-0.1c-1.2,0-2.2-1-2.1-2.2c0-1.2,1-2.1,2.2-2.1c0,0,0,0,0,0l8.6,0.1
		c1.2,0,2.2,1,2.1,2.2C768.3,94.3,767.3,95.3,766.1,95.3z"/>
	<path d="M755.1,87.9c-0.7,0-1.4-0.4-1.8-1c-0.6-1-0.3-2.3,0.7-3l7.4-4.5c1-0.6,2.3-0.3,3,0.7c0.6,1,0.3,2.3-0.7,3l-7.4,4.5
		C755.9,87.8,755.5,87.9,755.1,87.9z"/>
	<path d="M750.5,80.1c-0.3,0-0.7-0.1-1-0.3c-1-0.6-1.4-1.9-0.8-2.9l3.8-6.8c0.6-1,1.9-1.4,2.9-0.8s1.4,1.9,0.8,2.9l-3.8,6.8
		C752,79.7,751.3,80.1,750.5,80.1z"/>
	<path d="M742.6,76.3c-0.3,0-0.7-0.1-1-0.2c-1.1-0.6-1.5-1.9-0.9-2.9l3.5-6.6c0.5-1.1,1.9-1.5,2.9-0.9c1.1,0.6,1.5,1.9,0.9,2.9
		l-3.5,6.6C744.1,75.8,743.4,76.3,742.6,76.3z"/>
	<path d="M734.1,74.6c0,0-0.1,0-0.2,0c-1.2-0.1-2.1-1.1-2-2.3l0.6-8.2c0.1-1.2,1.1-2.1,2.3-2c1.2,0.1,2.1,1.1,2,2.3l-0.6,8.2
		C736.2,73.7,735.2,74.6,734.1,74.6z"/>
	<path d="M702.6,100.6c-1.1,0-2-0.8-2.1-1.9c-0.2-1.2,0.7-2.3,1.9-2.4l7.1-0.9c1.2-0.2,2.3,0.7,2.4,1.9s-0.7,2.3-1.9,2.4l-7.1,0.9
		C702.8,100.6,702.7,100.6,702.6,100.6z"/>
	<path d="M706,109.8c-0.8,0-1.6-0.5-2-1.2c-0.5-1.1,0-2.4,1-2.9l6.9-3.2c1.1-0.5,2.4,0,2.9,1s0,2.4-1,2.9l-6.9,3.2
		C706.6,109.7,706.2,109.8,706,109.8z"/>
	<path d="M710.8,118.7c-0.5,0-1-0.2-1.4-0.5c-0.9-0.8-1-2.2-0.2-3l4.7-5.4c0.8-0.9,2.2-1,3-0.2c0.9,0.8,1,2.2,0.2,3l-4.7,5.4
		C712,118.5,711.4,118.7,710.8,118.7z"/>
	<path d="M715.5,126c-0.4,0-0.9-0.1-1.2-0.4c-1-0.7-1.2-2-0.5-3l4.8-6.8c0.7-1,2-1.2,3-0.5c1,0.7,1.2,2,0.5,3l-4.8,6.8
		C716.8,125.7,716.1,126,715.5,126z"/>
	<path d="M711.5,88.2c-0.4,0-0.9-0.1-1.3-0.4l-6.3-4.6c-1-0.7-1.2-2.1-0.5-3s2-1.2,3-0.5l6.3,4.6c1,0.7,1.2,2.1,0.5,3
		C712.8,87.9,712.1,88.2,711.5,88.2z"/>
	<path d="M718.4,79.1c-0.8,0-1.6-0.4-2-1.2l-3.3-7c-0.5-1.1-0.1-2.4,1-2.9c1.1-0.5,2.4-0.1,2.9,1l3.3,7c0.5,1.1,0.1,2.4-1,2.9
		C719,79.1,718.7,79.1,718.4,79.1z"/>
</g>
<g>
	<g>
		<circle class="st1" cx="590.1" cy="140.9" r="32.4"/>
		<path d="M590.1,178.3c-7,0-14-2-20-5.9c-8.4-5.4-14.2-13.7-16.4-23.4c-2.2-9.8-0.4-19.8,5-28.2s13.7-14.2,23.5-16.4
			s19.8-0.4,28.2,5s14.2,13.7,16.4,23.5c2.2,9.8,0.4,19.8-5,28.2c-5.4,8.4-13.7,14.2-23.5,16.4C595.5,178,592.8,178.3,590.1,178.3z
			 M590.2,113.5c-2,0-4,0.2-6,0.7c-7.1,1.6-13.2,5.8-17.1,12c-3.9,6.2-5.2,13.5-3.6,20.6c1.6,7.1,5.8,13.2,12,17.1
			c6.2,3.9,13.5,5.2,20.6,3.6c7.1-1.6,13.2-5.8,17.1-12c3.9-6.1,5.2-13.5,3.6-20.6c-1.6-7.1-5.8-13.2-12-17.1
			C600.4,115,595.3,113.5,590.2,113.5z"/>
	</g>
	<path d="M592.2,154.4c-1.1,0-2.3-0.2-3.4-0.7c-2-0.9-3.7-2.6-4.6-4.6c-0.5-1.1,0-2.4,1-2.9c1.1-0.5,2.4,0,2.9,1
		c0.5,1.1,1.4,2,2.5,2.5c0.8,0.3,2,0.6,3.4-0.1c4.5-2.1,3.3-4.8,2.9-5.6c-0.7-1.5-2.9-1.4-6.5-1c-3.8,0.4-8.6,0.9-10.6-3.4
		c-0.8-1.8-1.1-3.6-0.7-5.2c0.6-2.4,2.4-4.4,5.5-5.9c2.9-1.3,5.1-0.9,6.4-0.4c3.1,1.3,4.3,4.6,4.5,5c0.4,1.1-0.2,2.4-1.3,2.7
		c-1.1,0.4-2.3-0.2-2.7-1.3c-0.2-0.5-0.9-1.9-2.1-2.4c-0.8-0.3-1.7-0.2-2.9,0.3c-1.8,0.9-2.9,1.9-3.2,3c-0.2,0.7,0,1.5,0.4,2.4
		c0.7,1.4,2.8,1.3,6.3,0.9c3.9-0.4,8.8-0.9,10.8,3.5c2.1,4.6,0.2,8.9-5,11.4C594.7,154.1,593.5,154.4,592.2,154.4z"/>
	<path d="M596.8,156.1c-0.8,0-1.6-0.5-2-1.2l-12.4-26.4c-0.5-1.1,0-2.4,1-2.9c1.1-0.5,2.4,0,2.9,1l12.4,26.4c0.5,1.1,0,2.4-1,2.9
		C597.4,156,597.1,156.1,596.8,156.1z"/>
	<path d="M605.9,172.7c-0.8,0-1.5-0.4-1.9-1.1l-4.3-7.9c-0.6-1.1-0.2-2.4,0.9-2.9c1-0.6,2.4-0.2,2.9,0.9l4.3,7.9
		c0.6,1.1,0.2,2.4-0.9,2.9C606.6,172.6,606.2,172.7,605.9,172.7z"/>
	<path d="M613,165.9c-0.6,0-1.2-0.2-1.6-0.7l-6.1-6.7c-0.8-0.9-0.7-2.2,0.2-3.1s2.2-0.7,3,0.1l6.1,6.7c0.8,0.9,0.7,2.2-0.2,3.1
		C614.1,165.7,613.5,165.9,613,165.9z"/>
	<path d="M618.9,157.8c-0.4,0-0.7-0.1-1.1-0.3l-7.3-4.1c-1-0.6-1.4-1.9-0.8-2.9c0.6-1,1.9-1.4,2.9-0.8l7.3,4.1
		c1,0.6,1.4,1.9,0.8,2.9C620.4,157.4,619.7,157.8,618.9,157.8z"/>
	<path d="M622,148.6c-0.3,0-0.6-0.1-0.8-0.2l-7-3c-1.1-0.5-1.6-1.7-1.1-2.8s1.7-1.6,2.8-1.1l7,3c1.1,0.5,1.6,1.7,1.1,2.8
		C623.6,148.1,622.8,148.6,622,148.6z"/>
	<path d="M615,137.5c-1,0-1.9-0.7-2.1-1.7c-0.2-1.2,0.5-2.3,1.7-2.6l6.7-1.5c1.2-0.2,2.3,0.5,2.6,1.6c0.2,1.2-0.5,2.3-1.7,2.6
		l-6.7,1.5C615.3,137.5,615.2,137.5,615,137.5z"/>
	<path d="M609.3,128.9c-0.8,0-1.5-0.4-1.9-1.1c-0.6-1.1-0.2-2.4,0.9-2.9l7.5-4.1c1-0.6,2.4-0.2,2.9,0.9c0.6,1.1,0.2,2.4-0.9,2.9
		l-7.5,4.1C610,128.8,609.7,128.9,609.3,128.9z"/>
	<path d="M603.7,123.6c-0.4,0-0.7-0.1-1.1-0.3c-1-0.6-1.4-1.9-0.8-2.9l4.4-7.5c0.6-1,1.9-1.4,3-0.8s1.4,1.9,0.8,2.9l-4.4,7.5
		C605.1,123.2,604.4,123.6,603.7,123.6z"/>
	<path d="M595.8,118.9L595.8,118.9c-1.2,0-2.2-1-2.2-2.2l0-7.8c0-1.2,1-2.1,2.2-2.1h0c1.2,0,2.2,1,2.1,2.2l0,7.8
		C598,118,597,118.9,595.8,118.9z"/>
	<path d="M587.1,119.4c-1.2,0-2.1-0.9-2.2-2.1l-0.1-7.4c0-1.2,0.9-2.2,2.1-2.2c1.2,0,2.2,0.9,2.2,2.1l0.1,7.4
		C589.3,118.4,588.4,119.4,587.1,119.4C587.1,119.4,587.1,119.4,587.1,119.4z"/>
	<path d="M578.9,122c-0.8,0-1.6-0.5-2-1.3l-3.4-7.4c-0.5-1.1,0-2.4,1.1-2.9c1.1-0.5,2.4,0,2.9,1.1l3.4,7.4c0.5,1.1,0,2.4-1.1,2.9
		C579.5,121.9,579.2,122,578.9,122z"/>
	<path d="M563.7,159.9c-0.7,0-1.3-0.3-1.7-0.9c-0.7-1-0.5-2.3,0.5-3l5.8-4.2c1-0.7,2.3-0.5,3,0.5c0.7,1,0.5,2.3-0.5,3l-5.8,4.2
		C564.6,159.8,564.1,159.9,563.7,159.9z"/>
	<path d="M571,166.4c-0.5,0-0.9-0.1-1.3-0.4c-1-0.7-1.2-2.1-0.5-3l4.5-6.1c0.7-1,2.1-1.2,3-0.5s1.2,2.1,0.5,3l-4.5,6.1
		C572.3,166.1,571.7,166.4,571,166.4z"/>
	<path d="M579.6,171.9c-0.2,0-0.3,0-0.5-0.1c-1.2-0.3-1.9-1.4-1.6-2.6l1.6-7c0.3-1.2,1.4-1.9,2.6-1.6c1.2,0.3,1.9,1.4,1.6,2.6
		l-1.6,7C581.5,171.2,580.6,171.9,579.6,171.9z"/>
	<path d="M587.2,176.1c-0.1,0-0.2,0-0.2,0c-1.2-0.1-2-1.2-1.9-2.4l1-8.3c0.1-1.2,1.2-2,2.4-1.9c1.2,0.1,2,1.2,1.9,2.4l-1,8.3
		C589.2,175.3,588.2,176.1,587.2,176.1z"/>
	<path d="M565.5,144.8c-0.1,0-0.2,0-0.3,0l-7.7-1c-1.2-0.1-2-1.2-1.9-2.4s1.2-2,2.4-1.9l7.7,1c1.2,0.1,2,1.2,1.9,2.4
		C567.5,144,566.6,144.8,565.5,144.8z"/>
	<path d="M567.3,133.5c-0.4,0-0.9-0.1-1.3-0.4l-6.3-4.5c-1-0.7-1.2-2.1-0.5-3s2-1.2,3-0.5l6.3,4.5c1,0.7,1.2,2.1,0.5,3
		C568.6,133.2,567.9,133.5,567.3,133.5z"/>
</g>
<g>
	<g>
		<circle class="st1" cx="412.6" cy="68.3" r="32.4"/>
		<path d="M412.6,105.7c-14.6,0-28.6-8.6-34.5-23c-8-19,1.1-41,20.1-48.9c9.2-3.9,19.4-3.9,28.6-0.1s16.5,11,20.3,20.2
			c3.9,9.2,3.9,19.4,0.1,28.6s-11,16.4-20.2,20.3C422.3,104.8,417.4,105.7,412.6,105.7z M412.6,41c-3.6,0-7.1,0.7-10.5,2.1
			C388.1,49,381.5,65,387.4,78.9c5.8,13.9,21.8,20.5,35.8,14.7c6.7-2.8,12-8.1,14.7-14.8s2.8-14.2-0.1-20.9
			c-2.8-6.7-8.1-12-14.8-14.7C419.6,41.7,416.1,41,412.6,41z"/>
	</g>
	<path d="M408.5,80.7c-0.8,0-1.5-0.1-2.2-0.3c-1.9-0.6-3.7-2-5.2-4.2c-1.5-2.1-1.9-4.5-1.3-6.9c0.5-2.1,1.9-4.1,3.7-5.3
		c1-0.7,2.3-0.5,3,0.5s0.5,2.3-0.5,3c-1,0.7-1.7,1.7-2,2.8c-0.2,0.8-0.2,2.1,0.7,3.3c1,1.3,2,2.2,3,2.5c1,0.3,2,0.1,3-0.7
		c1.4-1,0.9-3.1-0.1-6.5c-1.1-3.7-2.4-8.3,1.4-11c4.1-2.9,8.5-1.8,11.8,2.8c1.8,2.6,1.8,4.8,1.5,6.2c-0.8,3.3-3.8,5.1-4.1,5.3
		c-1,0.6-2.4,0.2-2.9-0.8s-0.2-2.3,0.8-2.9c0.5-0.3,1.8-1.2,2-2.5c0.2-0.8-0.1-1.7-0.8-2.8c-2.4-3.5-4.4-2.8-5.7-1.8
		c-1.3,0.9-0.8,3,0.2,6.3c1.1,3.8,2.5,8.5-1.5,11.3C411.5,80.3,409.9,80.7,408.5,80.7z"/>
	<path d="M400.9,79.3c-0.7,0-1.3-0.3-1.8-0.9c-0.7-1-0.5-2.3,0.5-3l23.8-16.8c1-0.7,2.3-0.5,3,0.5c0.7,1,0.5,2.3-0.5,3l-23.8,16.8
		C401.7,79.2,401.3,79.3,400.9,79.3z"/>
	<path d="M386.1,91.3c-0.6,0-1.3-0.3-1.7-0.8c-0.8-0.9-0.6-2.3,0.3-3l7-5.6c0.9-0.8,2.3-0.6,3,0.3c0.8,0.9,0.6,2.3-0.3,3l-7,5.6
		C387.1,91.1,386.6,91.3,386.1,91.3z"/>
	<path d="M394.1,97.1c-0.5,0-0.9-0.1-1.3-0.4c-0.9-0.7-1.1-2.1-0.4-3l5.5-7.2c0.7-0.9,2.1-1.1,3-0.4c0.9,0.7,1.1,2.1,0.4,3l-5.5,7.2
		C395.4,96.8,394.8,97.1,394.1,97.1z"/>
	<path d="M403.1,101.4c-0.2,0-0.5,0-0.7-0.1c-1.1-0.4-1.7-1.6-1.3-2.8l2.7-7.9c0.4-1.1,1.6-1.7,2.8-1.3c1.1,0.4,1.7,1.6,1.3,2.8
		l-2.7,7.9C404.8,100.9,404,101.4,403.1,101.4z"/>
	<path d="M412.7,102.9c-0.2,0-0.3,0-0.5-0.1c-1.2-0.3-1.9-1.4-1.6-2.6l1.7-7.4c0.3-1.2,1.4-1.9,2.6-1.6c1.2,0.3,1.9,1.4,1.6,2.6
		l-1.7,7.4C414.6,102.2,413.7,102.9,412.7,102.9z"/>
	<path d="M425,100.4c-0.9,0-1.6-0.5-2-1.3l-2.6-6.4c-0.5-1.1,0.1-2.4,1.2-2.8s2.4,0.1,2.8,1.2l2.6,6.4c0.5,1.1-0.1,2.4-1.2,2.8
		C425.6,100.3,425.3,100.4,425,100.4z"/>
	<path d="M435.2,93.6c-0.6,0-1.3-0.3-1.7-0.8l-5.3-6.7c-0.7-0.9-0.6-2.3,0.4-3s2.3-0.6,3,0.3l5.3,6.7c0.7,0.9,0.6,2.3-0.4,3
		C436.2,93.4,435.7,93.6,435.2,93.6z"/>
	<path d="M442.3,83.3c-0.2,0-0.5,0-0.7-0.1l-8.2-3c-1.1-0.4-1.7-1.6-1.3-2.8c0.4-1.1,1.6-1.7,2.8-1.3l8.2,3c1.1,0.4,1.7,1.6,1.3,2.8
		C444,82.8,443.1,83.3,442.3,83.3z"/>
	<path d="M437.3,71.9c-1,0-1.9-0.7-2.1-1.8c-0.2-1.2,0.6-2.3,1.8-2.5l7.6-1.3c1.2-0.2,2.3,0.6,2.5,1.8c0.2,1.2-0.6,2.3-1.8,2.5
		l-7.6,1.3C437.5,71.8,437.4,71.9,437.3,71.9z"/>
	<path d="M435.3,63.3c-1,0-1.9-0.7-2.1-1.8c-0.2-1.2,0.5-2.3,1.7-2.5l7.3-1.4c1.2-0.2,2.3,0.5,2.5,1.7c0.2,1.2-0.5,2.3-1.7,2.5
		l-7.3,1.4C435.6,63.3,435.4,63.3,435.3,63.3z"/>
	<path d="M431.3,55.7c-0.7,0-1.4-0.3-1.8-0.9c-0.7-1-0.4-2.3,0.5-3l6.7-4.7c1-0.7,2.3-0.4,3,0.5s0.4,2.3-0.5,3l-6.7,4.7
		C432.1,55.5,431.7,55.7,431.3,55.7z"/>
	<path d="M396.4,52.4c-0.5,0-1.1-0.2-1.5-0.6l-5.2-4.9c-0.9-0.8-0.9-2.2-0.1-3s2.2-0.9,3-0.1l5.2,4.9c0.9,0.8,0.9,2.2,0.1,3
		C397.6,52.2,397,52.4,396.4,52.4z"/>
	<path d="M393,59.2c-0.3,0-0.6-0.1-1-0.2l-6.9-3.4c-1.1-0.5-1.5-1.8-1-2.9c0.5-1.1,1.8-1.5,2.9-1l6.9,3.4c1.1,0.5,1.5,1.8,1,2.9
		C394.6,58.7,393.8,59.2,393,59.2z"/>
	<path d="M389.5,65.5C389.4,65.5,389.4,65.5,389.5,65.5l-7.2-0.3c-1.2-0.1-2.1-1.1-2.1-2.2c0-1.2,1.1-2.1,2.2-2.1l7.1,0.3
		c1.2,0,2.1,1.1,2.1,2.2C391.5,64.6,390.6,65.5,389.5,65.5z"/>
	<path d="M379.5,73.4c-1.1,0-2.1-0.9-2.1-2c-0.1-1.2,0.8-2.2,2-2.3l8.4-0.5c1.2-0.1,2.2,0.8,2.3,2c0.1,1.2-0.8,2.2-2,2.3l-8.4,0.5
		C379.6,73.4,379.5,73.4,379.5,73.4z"/>
	<path d="M406.5,46.6c-1.1,0-2.1-0.9-2.1-2.1l-0.4-7.8c-0.1-1.2,0.9-2.2,2-2.3c0,0,0.1,0,0.1,0c1.1,0,2.1,0.9,2.1,2.1l0.4,7.8
		c0.1,1.2-0.9,2.2-2,2.3C406.5,46.6,406.5,46.6,406.5,46.6z"/>
	<path d="M417.9,46.3c-0.3,0-0.6-0.1-0.9-0.2c-1.1-0.5-1.5-1.8-1-2.9l3.3-7c0.5-1.1,1.8-1.5,2.9-1c1.1,0.5,1.5,1.8,1,2.9l-3.3,7
		C419.5,45.8,418.7,46.3,417.9,46.3z"/>
</g>
<g class="st5">
	<path d="M69.9,588.8c6.9,2.4,11.6,5.4,14.2,8.9c2.6,3.5,3.9,8.4,3.9,14.6c0,9.5-2.4,16.5-7.1,21.2c-4.8,4.6-12.1,7-22.1,7H31.2
		c-1.1,0-1.7-0.6-1.7-1.7v-3.4c0-0.9,0.5-1.6,1.5-2.1c2.1-1,3.2-2.5,3.2-4.4v-67.8c0-0.9-0.1-1.6-0.4-1.9c-0.3-0.3-1.2-0.9-2.7-1.6
		c-0.7-0.3-1.2-0.7-1.3-1.1c-0.1-0.4-0.2-1.4-0.2-3c0-1.4,0.2-2.4,0.6-2.9c0.4-0.5,1.1-0.7,2-0.7H63c7.4,0,13.1,1.9,17.1,5.7
		c4,3.8,6,8.6,6,14.4c0,4.9-1.6,8.9-4.7,12.2C78.2,585.5,74.4,587.7,69.9,588.8z M55.2,556.2v29.5h3c1.9,0,3.3-0.5,4.4-1.6
		c1.1-1.1,1.7-2.9,1.9-5.4c0.2-2.5,0.3-5.7,0.3-9.6c0-5.4-0.5-8.9-1.5-10.5c-1-1.6-2.7-2.4-5-2.4H55.2z M55.2,592.1V634
		c3.4,0,5.8-0.5,6.9-1.4c1.2-0.9,1.9-2.8,2.1-5.6c0.2-2.8,0.3-7.4,0.3-14c0-1.3-0.1-4.4-0.2-9.2c-0.1-4.8-0.3-7.6-0.7-8.6
		c-0.3-1-0.9-1.7-1.8-2.3c-0.8-0.6-2.1-0.8-3.7-0.8H55.2z"/>
	<path d="M96,572.4c-0.5-0.2-0.9-0.4-1.1-0.5c-0.9-0.4-1.5-0.8-1.8-1.2c-0.2-0.4-0.4-1.2-0.4-2.4c0-0.7,0-1.2-0.1-1.7
		c0-1.1,0.2-1.9,0.5-2.2c0.3-0.4,1-0.5,2.1-0.5h17.5c0.9,0,1.4,0.1,1.6,0.4c0.2,0.3,0.3,0.9,0.3,1.9v55.3c0,4.8,1.3,7.2,4,7.2
		c2,0,3.6-0.9,4.6-2.6v-51.9c0-1.3-0.7-2.4-2-3.1c-0.6-0.4-1-0.8-1.2-1.2c-0.1-0.4-0.2-1.9-0.2-4.4c0-1.1,0.6-1.6,1.9-1.6h18.4
		c0.8,0,1.3,0.1,1.4,0.3c0.2,0.2,0.3,0.8,0.3,1.8v64.4c0,1.2,0.5,2.1,1.5,2.6c1.2,0.7,1.9,1.8,1.9,3.4c0,2.2-0.1,3.5-0.3,3.8
		c-0.2,0.3-0.8,0.4-1.8,0.4h-17.1c-1.1,0-1.8-0.2-2.2-0.6c-0.4-0.4-0.6-1.2-0.6-2.6v-1.4c0-1.5,0-2.3-0.1-2.5
		c-6,5.2-11,7.9-15.1,7.9c-3.5,0-6.4-1.2-8.7-3.5c-2.3-2.4-3.4-6.9-3.4-13.6V572.4z"/>
	<path d="M169.8,633.2h2.1c1.9,0,3.2-0.4,3.9-1.2c0.7-0.8,1.5-2.8,2.4-6c0.6-2.4,1.2-4,1.8-4.8c0.6-0.8,2.2-1.3,4.8-1.3
		c1.2,0,1.7,0.4,1.7,1.2c0,0.2-0.1,1.3-0.4,3.4l-1.9,12.1c-0.3,2.2-0.6,3.5-0.7,3.6c-0.1,0.2-0.8,0.3-2.1,0.3H152l-1.6,0.1
		c-0.5,0-0.7-0.2-0.7-0.5c0-0.1,0-0.3,0.1-0.5l0.4-1.5l16.3-66.8h-2.7c-1.1,0-2,0.3-2.6,1c-0.6,0.7-1.4,2.6-2.5,5.7
		c-1,3.1-1.9,4.9-2.5,5.6c-0.7,0.6-2,1-3.9,1c-1.5,0-2.2-0.4-2.2-1.2c0-0.3,0-0.7,0.1-1.2l2.5-15.8c0.2-1.2,0.4-2,0.8-2.2
		c0.3-0.2,1.1-0.3,2.2-0.3h30.5c0.5,0,0.8,0.3,0.8,0.7c0,0.2-0.1,0.8-0.4,1.7l-0.2,0.8L169.8,633.2z"/>
	<path d="M211.7,633.2h2.1c1.9,0,3.2-0.4,3.9-1.2c0.7-0.8,1.5-2.8,2.4-6c0.6-2.4,1.2-4,1.8-4.8c0.6-0.8,2.2-1.3,4.8-1.3
		c1.2,0,1.7,0.4,1.7,1.2c0,0.2-0.1,1.3-0.4,3.4l-1.9,12.1c-0.3,2.2-0.6,3.5-0.7,3.6c-0.1,0.2-0.8,0.3-2.1,0.3h-29.5l-1.6,0.1
		c-0.5,0-0.7-0.2-0.7-0.5c0-0.1,0-0.3,0.1-0.5l0.4-1.5l16.3-66.8h-2.7c-1.1,0-2,0.3-2.6,1c-0.6,0.7-1.4,2.6-2.5,5.7
		c-1,3.1-1.9,4.9-2.5,5.6c-0.7,0.6-2,1-3.9,1c-1.5,0-2.2-0.4-2.2-1.2c0-0.3,0-0.7,0.1-1.2l2.5-15.8c0.2-1.2,0.4-2,0.8-2.2
		c0.3-0.2,1.1-0.3,2.2-0.3h30.5c0.5,0,0.8,0.3,0.8,0.7c0,0.2-0.1,0.8-0.4,1.7l-0.2,0.8L211.7,633.2z"/>
	<path d="M272.4,588.8c6.9,2.4,11.6,5.4,14.2,8.9c2.6,3.5,3.9,8.4,3.9,14.6c0,9.5-2.4,16.5-7.1,21.2c-4.8,4.6-12.1,7-22.1,7h-27.5
		c-1.1,0-1.7-0.6-1.7-1.7v-3.4c0-0.9,0.5-1.6,1.5-2.1c2.1-1,3.2-2.5,3.2-4.4v-67.8c0-0.9-0.1-1.6-0.4-1.9c-0.3-0.3-1.2-0.9-2.7-1.6
		c-0.7-0.3-1.2-0.7-1.3-1.1c-0.1-0.4-0.2-1.4-0.2-3c0-1.4,0.2-2.4,0.6-2.9c0.4-0.5,1.1-0.7,2-0.7h30.8c7.4,0,13.1,1.9,17.1,5.7
		c4,3.8,6,8.6,6,14.4c0,4.9-1.6,8.9-4.7,12.2C280.8,585.5,276.9,587.7,272.4,588.8z M257.7,556.2v29.5h3c1.9,0,3.3-0.5,4.4-1.6
		c1.1-1.1,1.7-2.9,1.9-5.4c0.2-2.5,0.3-5.7,0.3-9.6c0-5.4-0.5-8.9-1.5-10.5c-1-1.6-2.7-2.4-5-2.4H257.7z M257.7,592.1V634
		c3.4,0,5.8-0.5,6.9-1.4c1.2-0.9,1.9-2.8,2.1-5.6c0.2-2.8,0.3-7.4,0.3-14c0-1.3-0.1-4.4-0.2-9.2c-0.1-4.8-0.3-7.6-0.7-8.6
		c-0.3-1-0.9-1.7-1.8-2.3c-0.8-0.6-2.1-0.8-3.7-0.8H257.7z"/>
	<path d="M298.6,572.4c-0.5-0.2-0.9-0.4-1.1-0.5c-0.9-0.4-1.5-0.8-1.8-1.2c-0.2-0.4-0.4-1.2-0.4-2.4c0-0.7,0-1.2-0.1-1.7
		c0-1.1,0.2-1.9,0.5-2.2c0.3-0.4,1-0.5,2.1-0.5h17.5c0.9,0,1.4,0.1,1.6,0.4c0.2,0.3,0.3,0.9,0.3,1.9v55.3c0,4.8,1.3,7.2,4,7.2
		c2,0,3.6-0.9,4.6-2.6v-51.9c0-1.3-0.7-2.4-2-3.1c-0.6-0.4-1-0.8-1.2-1.2c-0.1-0.4-0.2-1.9-0.2-4.4c0-1.1,0.6-1.6,1.9-1.6h18.4
		c0.8,0,1.3,0.1,1.4,0.3c0.2,0.2,0.3,0.8,0.3,1.8v64.4c0,1.2,0.5,2.1,1.5,2.6c1.2,0.7,1.9,1.8,1.9,3.4c0,2.2-0.1,3.5-0.3,3.8
		c-0.2,0.3-0.8,0.4-1.8,0.4h-17.1c-1.1,0-1.8-0.2-2.2-0.6c-0.4-0.4-0.6-1.2-0.6-2.6v-1.4c0-1.5,0-2.3-0.1-2.5
		c-6,5.2-11,7.9-15.1,7.9c-3.5,0-6.4-1.2-8.7-3.5c-2.3-2.4-3.4-6.9-3.4-13.6V572.4z"/>
	<path d="M373.3,574v54.4c0,1.3,0.4,2.5,1.2,3.5c0.8,1,1.8,1.5,3.2,1.5c1.9,0,3.3-1.2,4.4-3.5c1-2.3,1.5-5.3,1.5-9l-0.1-1.6
		c0-2,0.4-3.2,1.1-3.5c0.7-0.4,2-0.6,3.7-0.6c1.5,0,2.6,0.3,3.1,0.8c0.6,0.6,0.8,1.7,0.8,3.5c0,5.8-1.5,10.8-4.5,15.1
		c-3,4.3-7.3,6.4-12.9,6.4c-6.6,0-11.9-3.3-16.1-9.9c-4.2-6.6-6.3-15.9-6.3-28c0-9.1,1.1-16.6,3.2-22.6s4.7-10.5,7.8-13.4
		c3.1-2.9,6.9-4.4,11.4-4.4c5.4,0,9.7,1.8,12.9,5.4c3.2,3.6,4.7,7.8,4.7,12.5c0,2.5-0.5,4.6-1.6,6.3c-1,1.7-2.6,2.6-4.8,2.6
		c-2.2,0-3.9-0.8-5.1-2.5c-1.2-1.6-1.8-3.7-1.8-6.2c0-1,0.1-2.3,0.3-3.7c0.3-1.6,0.4-2.9,0.4-3.8c0-1-0.4-1.8-1.1-2.5
		c-0.7-0.7-1.5-1-2.5-1c-0.9,0-1.7,0.4-2.3,1.2C373.6,572.2,373.3,573.1,373.3,574z"/>
	<path d="M418.4,615.8v15c0,1,0.5,1.8,1.5,2.4c0.7,0.4,1.1,1.1,1.1,2.2v3c0,1.4-0.7,2.1-2.1,2.1h-20.3c-1.3,0-2-0.8-2-2.5v-2.6
		c0-0.6,0.5-1.4,1.6-2.2c0.9-0.7,1.4-1.2,1.5-1.5c0.1-0.3,0.1-0.8,0.1-1.4V563c0-2.4-0.7-4.1-2.2-5.2c-0.5-0.4-0.8-0.7-0.8-1
		c-0.1-0.3-0.1-1-0.1-2.2c0-2.4,0-3.8,0.1-4.2c0.1-0.4,0.7-0.6,1.7-0.6h17.8c0.9,0,1.5,0.1,1.7,0.4c0.2,0.3,0.3,1,0.3,2V601
		l10.3-23.6c0.7-1.5,1-2.5,1-3c0-1.2-0.9-2.2-2.6-2.9c-0.8-0.3-1.3-0.7-1.6-1.1c-0.3-0.4-0.4-1.4-0.4-2.8c0-1.7,0.2-2.8,0.5-3.2
		c0.3-0.4,1-0.6,1.9-0.6H443c0.9,0.1,1.3,1.1,1.3,3c0,1.7-0.2,2.8-0.5,3.4c-0.3,0.6-1,1.2-2.1,1.7c-1.7,0.8-2.9,1.9-3.5,3.3
		l-3.9,8.3l12,46.2c0.3,1.4,1.1,2.5,2.4,3.3c0.8,0.5,1.2,1.3,1.2,2.4v3c0,1.4-0.8,2.1-2.3,2.1h-15.1c-1.9,0-3.1-1.2-3.7-3.7
		l-6.4-28.7L418.4,615.8z"/>
	<path d="M483.4,565.1l3.1,15.6c0.1,0.5,0.1,0.9,0.1,1.3c0,1-1,1.6-3,1.6c-1.3,0-2.3-0.2-2.9-0.5c-0.6-0.3-1.3-1.2-2.1-2.7
		c-0.9-1.7-2.3-3.8-4.1-6.1c-1.8-2.4-3.5-3.5-4.9-3.5c-0.6,0-1.1,0.3-1.5,0.8c-0.4,0.5-0.6,1.1-0.6,1.9c0,1.9,2.7,7.3,8.2,16.2
		c4.7,7.7,7.9,13.8,9.6,18.2c1.7,4.4,2.5,9.4,2.5,14.9c0,5.9-1.3,10.4-3.8,13.7c-2.5,3.3-5.5,4.9-9,4.9c-2.2,0-4.5-0.8-6.9-2.4
		c-1.3-0.9-2.2-1.3-2.6-1.3c-0.5,0-0.8,0.4-0.9,1.3c-0.1,1-0.4,1.7-0.7,1.9c-0.3,0.3-1.3,0.4-2.9,0.4c-1.3,0-2.1-0.2-2.5-0.6
		s-0.6-1-0.8-2l-2.8-15.7c-0.1-0.7-0.2-1.2-0.2-1.4c0-1,1.3-1.6,3.8-1.6c1.3,0,2.2,0.2,2.7,0.5c0.5,0.3,1.2,1.3,1.9,2.9
		c2.9,6.1,5.7,9.2,8.3,9.2c1.7,0,2.5-1,2.5-3c0-1.8-0.6-4-1.9-6.7c-1.3-2.7-3.7-7-7.3-13.1c-3.8-6.4-6.6-11.8-8.3-16.2
		c-1.7-4.3-2.6-8.7-2.6-13.1c0-5.9,1.3-10.4,3.8-13.3c2.5-2.9,5.6-4.4,9.3-4.4c1.9,0,4.1,0.7,6.5,2c1.2,0.7,2.1,1,2.5,1
		c0.6,0,1-0.4,1.1-1.2c0.1-0.8,0.4-1.3,0.9-1.5s1.4-0.3,2.9-0.3c0.9,0,1.5,0.1,1.8,0.3C483,563.5,483.2,564.1,483.4,565.1z"/>
	<path d="M531.2,588.8c6.9,2.4,11.6,5.4,14.2,8.9c2.6,3.5,3.9,8.4,3.9,14.6c0,9.5-2.4,16.5-7.1,21.2c-4.8,4.6-12.1,7-22.1,7h-27.5
		c-1.1,0-1.7-0.6-1.7-1.7v-3.4c0-0.9,0.5-1.6,1.5-2.1c2.1-1,3.2-2.5,3.2-4.4v-67.8c0-0.9-0.2-1.6-0.4-1.9c-0.3-0.3-1.2-0.9-2.7-1.6
		c-0.7-0.3-1.2-0.7-1.3-1.1c-0.1-0.4-0.2-1.4-0.2-3c0-1.4,0.2-2.4,0.6-2.9c0.4-0.5,1.1-0.7,2-0.7h30.8c7.4,0,13.1,1.9,17.1,5.7
		c4,3.8,6,8.6,6,14.4c0,4.9-1.6,8.9-4.7,12.2C539.6,585.5,535.8,587.7,531.2,588.8z M516.5,556.2v29.5h3c1.9,0,3.3-0.5,4.4-1.6
		c1.1-1.1,1.7-2.9,1.9-5.4c0.2-2.5,0.3-5.7,0.3-9.6c0-5.4-0.5-8.9-1.5-10.5c-1-1.6-2.7-2.4-5-2.4H516.5z M516.5,592.1V634
		c3.4,0,5.8-0.5,6.9-1.4c1.2-0.9,1.9-2.8,2.1-5.6c0.2-2.8,0.3-7.4,0.3-14c0-1.3-0.1-4.4-0.2-9.2c-0.1-4.8-0.3-7.6-0.7-8.6
		c-0.3-1-0.9-1.7-1.8-2.3c-0.8-0.6-2.1-0.8-3.7-0.8H516.5z"/>
	<path d="M557.4,572.4c-0.5-0.2-0.9-0.4-1.1-0.5c-0.9-0.4-1.5-0.8-1.8-1.2c-0.2-0.4-0.4-1.2-0.4-2.4c0-0.7,0-1.2-0.1-1.7
		c0-1.1,0.2-1.9,0.5-2.2c0.3-0.4,1-0.5,2.1-0.5h17.5c0.9,0,1.4,0.1,1.6,0.4c0.2,0.3,0.3,0.9,0.3,1.9v55.3c0,4.8,1.3,7.2,4,7.2
		c2,0,3.6-0.9,4.6-2.6v-51.9c0-1.3-0.7-2.4-2-3.1c-0.6-0.4-1-0.8-1.2-1.2c-0.1-0.4-0.2-1.9-0.2-4.4c0-1.1,0.6-1.6,1.9-1.6h18.4
		c0.8,0,1.3,0.1,1.4,0.3c0.2,0.2,0.3,0.8,0.3,1.8v64.4c0,1.2,0.5,2.1,1.5,2.6c1.2,0.7,1.9,1.8,1.9,3.4c0,2.2-0.1,3.5-0.3,3.8
		c-0.2,0.3-0.8,0.4-1.8,0.4h-17.1c-1.1,0-1.8-0.2-2.2-0.6c-0.4-0.4-0.6-1.2-0.6-2.6v-1.4c0-1.5,0-2.3-0.1-2.5
		c-6,5.2-11,7.9-15.1,7.9c-3.5,0-6.4-1.2-8.7-3.5c-2.3-2.4-3.4-6.9-3.4-13.6V572.4z"/>
	<path d="M640.4,568.9v-9.8c0-1.6-0.7-2.5-2-2.6c-0.7,0-1.2-0.2-1.4-0.5c-0.2-0.3-0.3-1-0.3-1.9v-2.2c0-0.9,0.1-1.4,0.4-1.6
		c0.2-0.2,0.8-0.3,1.7-0.3h17.9c1,0,1.7,0.2,1.9,0.5c0.3,0.3,0.4,1.1,0.4,2.3v78.1c0,1.6,0.9,2.8,2.6,3.3c0.9,0.3,1.3,0.8,1.3,1.7
		v2.9c0,1.2-0.5,1.9-1.6,1.9h-19.6c-0.6,0-1-0.1-1.2-0.4c-0.1-0.2-0.2-1.2-0.2-3c0-0.3,0-0.8,0.1-1.5c-4.1,3.8-7.9,5.7-11.4,5.7
		c-11.9,0-17.8-12.1-17.8-36.3c0-17.2,1.6-28.5,4.7-33.9c3.2-5.4,7.3-8.1,12.4-8.1C632.3,563,636.3,565,640.4,568.9z M640.4,575.2
		c-1.7-1-3.1-1.6-4.2-1.6c-1.2,0-2.2,0.6-3,1.8c-0.8,1.2-1.2,2.5-1.2,4v46.4c0,1.4,0.4,2.6,1.1,3.5c0.7,1,1.6,1.4,2.7,1.4
		c1,0,2-0.4,3.1-1.3c1-0.9,1.5-1.7,1.5-2.5V575.2z"/>
	<path d="M696.8,568.9v-9.8c0-1.6-0.7-2.5-2-2.6c-0.7,0-1.2-0.2-1.4-0.5c-0.2-0.3-0.3-1-0.3-1.9v-2.2c0-0.9,0.1-1.4,0.4-1.6
		c0.2-0.2,0.8-0.3,1.7-0.3H713c1,0,1.7,0.2,1.9,0.5c0.3,0.3,0.4,1.1,0.4,2.3v78.1c0,1.6,0.9,2.8,2.6,3.3c0.9,0.3,1.3,0.8,1.3,1.7
		v2.9c0,1.2-0.5,1.9-1.6,1.9H698c-0.6,0-1-0.1-1.2-0.4c-0.1-0.2-0.2-1.2-0.2-3c0-0.3,0-0.8,0.1-1.5c-4.1,3.8-7.9,5.7-11.4,5.7
		c-11.9,0-17.8-12.1-17.8-36.3c0-17.2,1.6-28.5,4.7-33.9c3.2-5.4,7.3-8.1,12.4-8.1C688.6,563,692.6,565,696.8,568.9z M696.8,575.2
		c-1.7-1-3.1-1.6-4.2-1.6c-1.2,0-2.2,0.6-3,1.8c-0.8,1.2-1.2,2.5-1.2,4v46.4c0,1.4,0.4,2.6,1.1,3.5c0.7,1,1.6,1.4,2.7,1.4
		c1,0,2-0.4,3.1-1.3c1-0.9,1.5-1.7,1.5-2.5V575.2z"/>
	<path d="M750.4,606.9l5.6-29.6c0.1-0.4,0.2-0.8,0.2-1c0.3-1.1,0.4-1.9,0.4-2.2c0-1-0.7-2-2-3c-0.6-0.5-1-1-1.2-1.7
		c-0.1-0.6-0.2-1.9-0.2-3.8c0-1.2,0.5-1.8,1.6-1.8h9.7c1.1,0,1.8,0.2,2.2,0.7c0.4,0.4,0.6,1.6,0.6,3.5c0,1.1-0.1,1.8-0.2,2
		c-0.1,0.2-0.6,0.5-1.3,1.1c-1,0.7-1.8,2.4-2.3,4.9l-9.4,49.4c-1.6,8.6-2.9,14.1-3.7,16.6c-0.8,2.5-2.1,4.6-3.8,6.6
		c-1.7,1.9-3.7,3.4-6,4.4c-2.3,1-5,1.5-8,1.5c-3.3,0-5.8-0.8-7.6-2.3c-1.8-1.6-2.7-3.6-2.7-6.1c0-1.8,0.6-3.3,1.8-4.4
		c1.2-1.1,2.7-1.6,4.4-1.6c2.6,0,4.5,1.5,5.6,4.6c0.5,1.5,1.3,2.2,2.3,2.2c1.9,0,2.9-1,2.9-3c0-0.6-0.4-2.7-1.1-6.3l-12-58.2
		c-0.6-2.8-1-4.7-1.4-5.8c-0.4-1.1-0.9-1.8-1.7-2.1c-0.7-0.3-1-1-1-2.1v-3.1c0-1,0.1-1.7,0.4-2c0.3-0.3,0.9-0.4,1.7-0.4h19.8
		c1,0,1.7,0.1,2.1,0.4c0.3,0.2,0.5,0.8,0.5,1.7c0,1.8-0.1,3-0.2,3.6s-0.6,1-1.3,1.3c-1.1,0.4-1.7,1.4-1.7,2.8c0,0.8,0.1,1.9,0.4,3.2
		L750.4,606.9z"/>
</g>
</svg>
