<?xml version="1.0" encoding="utf-8"?>
<!-- Generator: Adobe Illustrator 27.2.0, SVG Export Plug-In . SVG Version: 6.00 Build 0)  -->
<svg version="1.1" id="레이어_1" xmlns="http://www.w3.org/2000/svg" xmlns:xlink="http://www.w3.org/1999/xlink" x="0px"
	 y="0px" viewBox="0 0 800 600" style="enable-background:new 0 0 800 600;" xml:space="preserve">
<style type="text/css">
	.st0{fill:#FB9392;}
	.st1{fill:#FFDA00;}
	.st2{fill:#FFFFFF;}
	.st3{fill:none;}
	.st4{fill:#E2AAAA;}
</style>
<g>
	<path class="st0" d="M627.6,483.2c0,0-9.8,15.3-0.8,16.9s11.8,1.9,15.1-7.3"/>
	<path d="M633.7,505.3c-2.3,0-4.8-0.4-7.7-0.9c-3.1-0.6-5.4-2.3-6.6-5c-2.8-6.4,2.7-15.8,4.5-18.6l7.3,4.7l-3.6-2.3l3.6,2.3
		c-2.4,3.8-4.3,8.7-3.9,10.3c0.1,0,0.1,0,0.3,0.1c2.9,0.5,6.1,1.1,7.3,0.7c0.8-0.3,1.9-2.1,3-5.2l8.1,2.9
		C642.9,503,639.1,505.3,633.7,505.3z"/>
</g>
<g>
	<path class="st0" d="M650,493.3c0,0-5.7,17.2,3.5,16.6s11.9-1.1,12.8-10.9"/>
	<path d="M653,514.2c-2.8,0-5.2-1.1-6.8-3.2c-4.3-5.5-1.3-16-0.3-19.1l8.2,2.7l-4.1-1.3l4.1,1.3c-1.4,4.3-1.9,9.5-1.2,11
		c0.1,0,0.2,0,0.3,0c2.9-0.2,6.2-0.4,7.2-1.2c0.7-0.5,1.3-2.5,1.6-5.8l8.6,0.8c-1.2,13.1-6.9,14.1-16.8,14.8
		C653.5,514.2,653.3,514.2,653,514.2z"/>
</g>
<g>
	<path class="st0" d="M723.2,492.7c0,0,5.4,17.3,12.4,11.5c7.1-5.8,9.1-7.8,4.2-16.3"/>
	<path d="M732.7,509.8c-0.8,0-1.6-0.1-2.3-0.4c-6.7-2-10.3-12.3-11.3-15.4l8.2-2.6c1.3,4.3,3.9,8.9,5.4,9.6c0.1,0,0.1-0.1,0.2-0.2
		c2.3-1.8,4.8-3.9,5.2-5.2c0.3-0.9-0.4-2.8-2-5.6l7.5-4.3c6.5,11.4,2.5,15.5-5.2,21.8C736.6,509,734.7,509.8,732.7,509.8z"/>
</g>
<g>
	<path class="st0" d="M747.6,484.1c0,0,5.4,17.3,12.4,11.5c7.1-5.8,9.1-7.8,4.2-16.3"/>
	<path d="M757.1,501.1c-0.8,0-1.6-0.1-2.3-0.4c-6.7-2-10.3-12.3-11.3-15.4l8.2-2.6c1.3,4.3,3.9,8.9,5.4,9.6c0.1,0,0.1-0.1,0.2-0.2
		c2.3-1.8,4.8-3.9,5.2-5.2c0.3-0.9-0.4-2.8-2-5.6l7.5-4.3c6.5,11.4,2.5,15.5-5.2,21.8C761.1,500.4,759.1,501.1,757.1,501.1z"/>
</g>
<g>
	<g>
		<path class="st1" d="M309.1,175.8v249.9c0,0,149.8,22.5,149-77.2c-0.4-52.3-48-60-48-60s29.8-10.2,28.1-55.1
			C435.4,155.8,309.1,175.8,309.1,175.8z"/>
		<path d="M343.4,432.9c-19.9,0-34.3-2.1-35-2.2c-2.5-0.4-4.3-2.5-4.3-5V175.8c0-2.5,1.8-4.6,4.2-5c3.1-0.5,77-11.8,114.2,18.8
			c13.1,10.8,20.1,25.4,20.8,43.5c0.9,24.9-7.5,39.8-14.7,47.9c-2.1,2.3-4.2,4.3-6.2,5.9c4.3,1.7,9.4,4.2,14.5,7.8
			c11.9,8.4,26,24.6,26.3,53.7c0.2,24.1-8,43.4-24.2,57.6c-18.1,15.8-45.7,24.7-81.9,26.5C352.3,432.8,347.7,432.9,343.4,432.9z
			 M314.2,421.3c17.5,1.9,84,6.9,118.2-22.8c14-12.1,20.9-28.9,20.8-49.9c-0.2-20-7.6-35.3-22.1-45.6c-10.9-7.7-21.6-9.5-21.7-9.5
			c-2.3-0.4-4-2.2-4.2-4.5c-0.2-2.3,1.2-4.4,3.4-5.2c1-0.4,26.2-9.9,24.7-50.2c-0.6-15.3-6.2-27.1-17.1-36.1
			c-29-23.8-86-19.1-102-17.2L314.2,421.3L314.2,421.3z"/>
	</g>
	<g>
		<path class="st1" d="M193.2,175.8v253.3c0,0,149.8,22.8,149-78.2c-0.4-53-48-60.8-48-60.8s29.8-10.3,28.1-55.9
			C319.5,155.5,193.2,175.8,193.2,175.8z"/>
		<path d="M227.5,436.4c-19.9,0-34.3-2.1-35-2.3c-2.5-0.4-4.3-2.5-4.3-5V175.8c0-2.5,1.8-4.6,4.2-5c3.1-0.5,76.5-11.9,113.9,18.8
			c13.3,11,20.4,25.9,21.1,44.3c0.9,25.2-7.5,40.3-14.7,48.5c-2.1,2.4-4.3,4.4-6.3,6c4.3,1.7,9.4,4.3,14.6,8
			c11.8,8.5,26,24.9,26.3,54.3c0.2,24.6-8.1,44.3-24.7,58.7c-18.2,15.8-45.7,24.7-81.8,26.5C236.2,436.3,231.8,436.4,227.5,436.4z
			 M198.3,424.7c17.4,1.9,83.5,7,117.8-22.8c14.2-12.3,21.3-29.5,21.2-51c-0.4-48-42-55.6-43.8-55.9c-2.3-0.4-4-2.3-4.2-4.5
			c-0.2-2.3,1.2-4.4,3.4-5.2c1-0.4,26.3-10,24.8-50.9c-0.6-15.5-6.4-27.9-17.4-36.9c-29.1-23.9-85.7-19.1-101.6-17.2L198.3,424.7
			L198.3,424.7z"/>
	</g>
	<g>
		<path class="st1" d="M81.5,175.8v253.3c0,0,149.8,22.8,149-78.2c-0.4-53-48-60.8-48-60.8s29.8-10.3,28.1-55.9
			C207.8,155.5,81.5,175.8,81.5,175.8z"/>
		<path d="M115.8,436.4c-19.9,0-34.3-2.1-35-2.3c-2.5-0.4-4.3-2.5-4.3-5V175.8c0-2.5,1.8-4.6,4.2-5c3.1-0.5,76.5-11.9,113.9,18.8
			c13.3,11,20.4,25.9,21.1,44.3c0.9,25.2-7.5,40.3-14.7,48.5c-2.1,2.4-4.3,4.4-6.3,6c4.3,1.7,9.4,4.3,14.6,8
			c11.8,8.5,26,24.9,26.3,54.3c0.2,24.6-8.1,44.3-24.7,58.7c-18.2,15.8-45.7,24.7-81.8,26.5C124.5,436.3,120,436.4,115.8,436.4z
			 M86.5,424.7c17.4,1.9,83.5,7,117.8-22.8c14.2-12.3,21.3-29.5,21.2-51c-0.4-48-42-55.6-43.8-55.9c-2.3-0.4-4-2.3-4.2-4.5
			c-0.2-2.3,1.2-4.4,3.4-5.2c1-0.4,26.3-10,24.8-50.9c-0.6-15.5-6.4-27.9-17.4-36.9c-29-23.9-85.7-19.1-101.7-17.2L86.5,424.7
			L86.5,424.7z"/>
	</g>
	<g>
		<path class="st2" d="M186.6,234.2c0,16.5-13.3,29.8-29.8,29.8s-26.5-13.3-26.5-29.8s10-29.8,26.5-29.8S186.6,217.7,186.6,234.2z"
			/>
		<path d="M156.8,269c-18.3,0-31.5-14.7-31.5-34.8s13.3-34.8,31.5-34.8c19.2,0,34.8,15.6,34.8,34.8S176,269,156.8,269z M156.8,209.4
			c-14.8,0-21.5,12.4-21.5,24.8c0,12.3,6.6,24.8,21.5,24.8c13.7,0,24.8-11.1,24.8-24.8C181.6,220.5,170.5,209.4,156.8,209.4z"/>
	</g>
	<g>
		<path class="st2" d="M301.7,230.9c0,16.5-12.5,26.5-29,26.5s-30.6-10-30.6-26.5s13.3-29.8,29.8-29.8S301.7,214.4,301.7,230.9z"/>
		<path d="M272.7,262.4c-20.7,0-35.7-13.3-35.7-31.5c0-19.2,15.6-34.8,34.8-34.8s34.8,15.6,34.8,34.8
			C306.7,249.4,292.7,262.4,272.7,262.4z M271.9,206.1c-13.7,0-24.8,11.1-24.8,24.8c0,14.7,13.3,21.5,25.6,21.5
			c14.5,0,23.9-8.4,23.9-21.5C296.7,217.2,285.6,206.1,271.9,206.1z"/>
	</g>
	<g>
		<path class="st2" d="M414,219.8c7.8,14.5,1.6,29.3-12.9,37.1c-14.5,7.8-31.7,5.7-39.5-8.7c-7.8-14.5-2.4-32.6,12.1-40.4
			C388.1,199.9,406.1,205.3,414,219.8z"/>
		<path d="M384.2,266.4c-2.1,0-4.3-0.2-6.3-0.6c-9-1.7-16.4-7.1-20.8-15.3c-4.4-8.2-5.4-17.6-2.7-26.5c2.7-8.9,8.6-16.3,16.8-20.7
			c8.2-4.4,17.6-5.4,26.5-2.7c8.9,2.7,16.3,8.6,20.7,16.8c8.8,16.3,2.7,34.4-14.9,43.9C397.3,264.7,390.6,266.4,384.2,266.4z
			 M387.7,209.2c-4.1,0-8.1,1-11.7,3c-5.8,3.1-10.1,8.4-12,14.7c-1.9,6.3-1.2,13,1.9,18.9c3,5.5,7.7,9,13.8,10.2
			c6,1.1,12.7-0.1,18.9-3.5c12.8-6.9,17.1-18.8,10.9-30.3c-3.1-5.8-8.4-10.1-14.7-12C392.5,209.6,390.1,209.2,387.7,209.2z"/>
	</g>
	<circle cx="163.4" cy="228.4" r="13.2"/>
	<path d="M188.1,374.2c-11.5,0-21-8.4-21.4-8.7c-2.1-1.9-2.2-5-0.4-7.1c1.9-2.1,5-2.2,7.1-0.4c0.1,0.1,7.1,6.2,14.7,6.2
		c13.4,0,20.5-12.9,20.6-13.1c1.3-2.5,4.4-3.4,6.8-2.1c2.5,1.3,3.4,4.4,2.1,6.8C217.2,356.5,207.5,374.2,188.1,374.2z"/>
	<path d="M426.7,378.3c-9.3,0-15.1-8.8-17.1-14c-1-2.6,0.3-5.5,2.9-6.5c2.6-1,5.5,0.3,6.5,2.9c0.8,2,3.9,7.5,7.7,7.5
		c5.9,0,6.5-7.6,6.6-8.5c0.2-2.8,2.5-4.9,5.3-4.7c2.8,0.2,4.9,2.5,4.8,5.2C443,366.5,439.2,378.3,426.7,378.3z"/>
	<g>
		<path class="st2" d="M401,240c0,0,1.1-17.5-12.1-18.6c-15.2-1.3-12.3,22-12.3,22"/>
		<path d="M376.6,247c-1.8,0-3.3-1.3-3.6-3.1c-0.2-1.5-1.7-15.1,5-22.1c2.8-2.9,6.6-4.3,11.1-3.9c13.2,1.1,15.9,15.1,15.4,22.4
			c-0.1,2-1.8,3.5-3.8,3.4c-2-0.1-3.5-1.8-3.4-3.8l0,0c0-0.6,0.7-14-8.8-14.8c-3.1-0.3-4.5,0.9-5.3,1.7c-3.7,3.9-3.5,13.3-3.1,16.3
			c0.2,2-1.2,3.8-3.1,4C376.9,246.9,376.8,247,376.6,247z"/>
	</g>
	<g>
		<path class="st2" d="M278.4,221.6c0,0-0.8-7.4-8.1-5.8c-7,1.6-6.8,6-6.3,8.3c1.6,7.2,16.5,1.7,18.1,9.2c1.1,4.7-2,7.5-6.5,8.5
			c-4.6,1-8.1-2.2-9-6"/>
		<path d="M274,244.2c-4.8,0-8.4-3.7-9.4-7.9c-0.3-1.2,0.5-2.3,1.6-2.6c1.2-0.3,2.3,0.5,2.6,1.6c0.6,2.7,3,5.1,6.4,4.4
			c1.9-0.4,3.4-1.2,4.2-2.2c0.8-1,1.1-2.2,0.7-3.8c-0.5-2.1-3.1-2.5-7.3-3c-4.3-0.5-9.7-1.1-10.8-6.2c-1.2-5.4,1.8-9.5,8-10.8
			c2.8-0.6,5.1-0.2,7,1.1c3.1,2.2,3.6,6.1,3.6,6.5c0.1,1.2-0.7,2.3-1.9,2.4c-1.2,0.1-2.2-0.7-2.4-1.9c-0.1-0.7-0.6-2.6-1.9-3.5
			c-0.9-0.6-2-0.7-3.6-0.4c-5.1,1.1-5.1,3.8-4.7,5.7c0.4,1.9,3,2.4,7.1,2.8c4.4,0.5,9.9,1.1,11,6.3c0.8,3.7-0.4,6.1-1.6,7.5
			c-1.5,1.7-3.7,3-6.6,3.6C275.4,244.1,274.7,244.2,274,244.2z"/>
	</g>
	<g>
		<line class="st3" x1="269.8" y1="212.2" x2="277.1" y2="244.9"/>
		<path d="M277.1,247.1c-1,0-1.9-0.7-2.1-1.7l-7.3-32.7c-0.3-1.2,0.5-2.3,1.6-2.6c1.2-0.3,2.3,0.5,2.6,1.6l7.3,32.7
			c0.3,1.2-0.5,2.3-1.6,2.6C277.4,247.1,277.3,247.1,277.1,247.1z"/>
	</g>
	<path d="M293.4,374.2c-0.2,0-0.4,0-0.6,0c-10.6-0.4-15-10.3-15.9-15.5c-0.4-2.7,1.4-5.3,4.2-5.8c2.7-0.4,5.3,1.4,5.8,4.1
		c0.1,0.3,1.3,6.9,6.3,7c2.2,0.1,2.8-0.6,4.8-3.2c2-2.8,4.8-6.6,10.8-8.2c10.2-2.8,17.3,4.4,21.8,10c1.7,2.2,1.4,5.3-0.8,7.1
		s-5.3,1.4-7.1-0.8c-6.3-7.9-9.7-7-11.3-6.6c-2.4,0.7-3.5,2-5.3,4.4C303.8,369.8,300.6,374.2,293.4,374.2z"/>
	<path d="M56.2,322.2c-6,0-12.1-1-17.5-3.7c-6.9-3.6-11.4-9.5-13.5-17.7c-7.6-30.5-2.8-59.6-2.6-60.8c0.5-2.7,3.1-4.6,5.8-4.1
		c2.7,0.5,4.6,3.1,4.1,5.8c-0.1,0.3-4.7,28.3,2.4,56.7c1.3,5.3,4,9,8.3,11.2c11,5.7,29.9,0.5,36.3-1.9c2.6-1,5.5,0.3,6.5,2.9
		c1,2.6-0.3,5.5-2.9,6.5C82.6,317.3,69.8,322.2,56.2,322.2z"/>
	<path d="M84,504.1c-1.6,0-3.1-0.7-4.1-2.1c-1.6-2.3-1.1-5.4,1.2-7c0.3-0.2,18.6-13.6,24.7-30c4.5-11.9,2.2-28.8,2.2-29
		c-0.4-2.8,1.6-5.3,4.3-5.7c2.8-0.4,5.3,1.6,5.7,4.3c0.1,0.8,2.6,19.6-2.8,33.9c-7.3,19.4-27.4,34-28.3,34.6
		C86,503.8,85,504.1,84,504.1z"/>
	<path d="M163.4,499.2c-0.7,0-1.3-0.1-2-0.4c-2.6-1.1-3.7-4.1-2.6-6.6l0,0c0.1-0.2,7.6-18.2,2.3-34.5c-3.9-12.1-14.9-22.9-15-23
		c-2-1.9-2-5.1-0.1-7.1s5.1-2,7.1-0.1c0.5,0.5,12.9,12.7,17.6,27.1c6.5,20-2.3,40.7-2.6,41.6C167.3,498,165.4,499.2,163.4,499.2z"/>
	<path d="M216.4,483.5c-3.1,0-5.9-0.5-8.1-1.1c-2.7-0.8-4.2-3.6-3.4-6.3c0.8-2.7,3.6-4.1,6.3-3.4c1.5,0.4,14.6,3.8,19.5-9.4
		c4.3-11.5-0.9-28.9-0.9-29.1c-0.8-2.7,0.7-5.5,3.4-6.3c2.7-0.8,5.5,0.7,6.3,3.4c0.3,0.8,6.2,20.8,0.7,35.5
		C235.3,480,224.8,483.5,216.4,483.5z"/>
	<path d="M276,493.4c-1.4,0-2.7-0.5-3.7-1.6c-1.9-2-1.8-5.2,0.3-7.1c0.3-0.2,15.1-14.5,10.2-29.5c-3.9-12.1-14.9-22.9-15-23
		c-2-1.9-2-5.1-0.1-7.1s5.1-2,7.1-0.1c0.5,0.5,12.9,12.7,17.6,27.1c6.9,21.2-12.1,39.2-12.9,40C278.5,492.9,277.3,493.4,276,493.4z"
		/>
	<g>
		<path d="M327.4,490.9c-1.5,0-2.9-0.6-3.9-1.8c-1.8-2.1-1.5-5.3,0.6-7.1c0.2-0.2,7.3-6.5,13.4-22.7c4.7-12.5,6.3-26.8,6.3-26.9
			c0.3-2.8,2.8-4.8,5.6-4.4c2.8,0.3,4.8,2.8,4.4,5.6c-0.1,0.6-1.8,15.7-6.9,29.4c-7.2,19.2-16,26.6-16.4,26.9
			C329.6,490.5,328.5,490.9,327.4,490.9z"/>
		<path d="M440.8,475.2c-1.9,0-3.7-1.1-4.5-2.9c-0.1-0.3-8.1-16.7-19.6-27.5c-9.4-8.8-31.1-16.2-31.3-16.3c-2.6-0.9-4-3.8-3.1-6.4
			c0.9-2.6,3.8-4,6.4-3.1c1,0.3,23.9,8.2,34.9,18.5c13,12.1,21.4,29.7,21.8,30.5c1.2,2.5,0.1,5.5-2.4,6.7
			C442.2,475,441.5,475.2,440.8,475.2z"/>
	</g>
	<g>
		<path class="st1" d="M39.3,224.3c0,8.9-2.1,16.6-10.8,16.6s-15.7-7.2-15.7-16.1s7-16.1,15.7-16.1S39.3,215.3,39.3,224.3z"/>
		<path d="M28.5,245.9c-11.4,0-20.8-9.5-20.8-21.2c0-11.7,9.3-21.2,20.8-21.2c7.4,0,11.2,3.8,13,7.1c1.9,3.3,2.8,7.7,2.8,13.7
			C44.3,242.1,35.7,245.9,28.5,245.9z M28.5,213.6c-5.9,0-10.7,5-10.7,11.1c0,6.1,4.8,11.1,10.7,11.1c2,0,5.7,0,5.7-11.5
			C34.2,213.6,31.1,213.6,28.5,213.6z"/>
	</g>
	<path d="M504.1,353.7c-3.1,0-6.3-0.4-9.8-1.2c-19.1-4.3-42.4-22.5-43.4-23.3c-2.2-1.7-2.6-4.9-0.8-7.1c1.7-2.2,4.9-2.6,7.1-0.8
		c0.2,0.2,22.5,17.6,39.4,21.4c7.8,1.8,13.9,1,18.2-2.3c7.3-5.6,7.9-16.8,7.9-17c0.1-2.8,2.5-4.9,5.2-4.8c2.8,0.1,4.9,2.5,4.8,5.2
		c0,0.7-0.8,16-11.8,24.5C516.2,351.9,510.6,353.7,504.1,353.7z"/>
	<g>
		<path class="st1" d="M549.6,326.2c-5.1,7.3-11.1,12.4-18.3,7.5c-7.1-4.9-8.8-14.9-3.8-22.2c5.1-7.3,15-9.3,22.1-4.3
			C556.8,312.1,554.7,318.9,549.6,326.2z"/>
		<path d="M537,340.8c-3.3,0-6.1-1.3-8.5-2.9c-9.4-6.5-11.7-19.6-5.1-29.2c6.6-9.6,19.7-12.1,29.1-5.6c6.1,4.2,7,9.5,6.7,13.2
			c-0.3,3.8-2.1,7.9-5.5,12.9l0,0C547.6,337.9,541.9,340.8,537,340.8z M540.9,309.5c-3.5,0-7,1.7-9.2,4.9c-3.5,5-2.4,11.9,2.5,15.2
			c1.6,1.1,4.7,3.2,11.3-6.2l0,0c6.1-8.8,3.5-10.6,1.4-12.1C545,310.1,543,309.5,540.9,309.5z"/>
	</g>
	<g>
		<path class="st1" d="M84.6,505.7c-2.3-2.7-4-12.7-10-10c-6,2.7-22,17.3-10.7,22c11.3,4.7,24,16,30.7,10.7c6.7-5.3,16-14,12-20
			C102.6,502.3,90.4,512.5,84.6,505.7z"/>
		<path d="M90.5,534.8c-5.8,0-12.1-3.7-18.4-7.2c-3.4-1.9-6.9-3.9-10.1-5.2c-4.4-1.8-7-5.3-7.1-9.5c-0.1-9.6,12.7-19.5,17.6-21.7
			c3.9-1.7,7.9-0.9,10.8,2.3c1.8,2,3,4.6,3.9,6.7c0.4,0.8,0.9,2,1.2,2.4c1,1.1,3.5,0.7,7.3-0.2c4.5-1,11.2-2.5,15.1,3.3
			c7.1,10.6-8.1,22.7-13,26.7C95.5,534.1,93.1,534.8,90.5,534.8z M65,512.6c0.1,0.1,0.4,0.3,0.8,0.5c3.8,1.6,7.6,3.7,11.2,5.8
			c4.9,2.8,12.4,7.1,14.4,5.6c10.5-8.4,11.1-12.1,11-13c-1-0.1-3.2,0.4-4.6,0.7c-4.8,1.1-12.1,2.7-17.1-3.2l0,0
			c-1.1-1.3-1.9-3-2.7-4.7c-0.5-1-1.3-2.8-1.9-3.7C71.7,502.8,65,510,65,512.6z"/>
	</g>
	<g>
		<path class="st1" d="M447.6,462.2c-3.5,0.7-13-2.8-13.6,3.7c-0.7,6.5,4.2,27.7,13.8,20.2s25.8-12.9,24.4-21.4
			c-1.3-8.4-4.2-20.8-11.4-20.3C453.6,444.9,456.4,460.5,447.6,462.2z"/>
		<path d="M443.8,492.7c-1.6,0-3.2-0.4-4.7-1.2c-8.4-4.6-10.7-20.7-10.1-26c0.4-4.3,3.1-7.3,7.3-8.2c2.6-0.6,5.5-0.3,7.8-0.1
			c0.9,0.1,2.2,0.2,2.6,0.2c1.5-0.3,2.3-2.7,3.5-6.4c1.4-4.4,3.4-11,10.3-11.5c12.7-0.9,15.8,18.3,16.8,24.6
			c1.5,9.2-7.8,14.7-16.8,20c-3.4,2-6.8,4-9.5,6.1C448.6,491.8,446.2,492.7,443.8,492.7z M438.9,466.9c-0.3,5,2.7,14.5,4.9,15.7
			c0.1-0.1,0.4-0.2,0.8-0.5c3.2-2.5,7-4.7,10.6-6.9c4.9-2.9,12.3-7.3,11.9-9.7c-2.1-13.3-5-15.6-5.9-16c-0.5,0.9-1.2,3-1.6,4.4
			c-1.5,4.7-3.7,11.8-11.2,13.3c-1.7,0.3-3.5,0.2-5.4,0C442,467,440,466.8,438.9,466.9z M446.7,457.2L446.7,457.2L446.7,457.2z"/>
	</g>
	<g>
		<path class="st1" d="M336.9,494.2c-2.4-2.6-4.5-12.5-10.4-9.6c-5.9,2.9-21.3,18.2-9.8,22.4c11.5,4.2,24.6,15,31.1,9.4
			c6.4-5.6,15.4-14.6,11.2-20.5C354.8,490.2,343,500.8,336.9,494.2z"/>
		<path d="M343.4,523.1c-5.6,0-11.9-3.3-18.1-6.5c-3.5-1.8-7-3.7-10.3-4.8c-4.5-1.6-7.2-5-7.4-9.2c-0.5-9.5,11.9-20,16.7-22.4
			c3.8-1.9,7.8-1.2,10.9,1.9c1.9,1.9,3.2,4.5,4.2,6.5c0.4,0.8,1,1.9,1.3,2.3c1,1.1,3.6,0.5,7.2-0.4c4.4-1.2,11.1-2.9,15.2,2.7
			c7.5,10.3-7.1,23-11.9,27.2C348.8,522.3,346.2,523.1,343.4,523.1z M317.6,501.9c0.1,0.1,0.4,0.2,0.9,0.4c3.9,1.4,7.7,3.4,11.5,5.4
			c5.1,2.6,12.7,6.6,14.6,5c10.2-8.8,10.6-12.5,10.5-13.5c0,0,0,0,0,0c-1,0-3.2,0.6-4.5,0.9c-4.8,1.3-12,3.1-17.2-2.5l0,0
			c-1.2-1.3-2-2.9-2.8-4.6c-0.5-1-1.4-2.8-2.1-3.6C323.9,491.8,317.5,499.4,317.6,501.9z"/>
	</g>
	<g>
		<path class="st1" d="M283.6,492.9c-3.2-1.4-9.2-9.6-13.4-4.6c-4.2,5-12.2,25.2,0.1,24.4c12.2-0.8,28.6,3.8,32.2-3.9
			c3.7-7.7,8.2-19.6,2-23.2C298.3,482,291.8,496.5,283.6,492.9z"/>
		<path d="M290.5,518.5c-2.8,0-5.6-0.2-8.5-0.4c-3.9-0.3-7.9-0.5-11.3-0.3c-4.8,0.3-8.6-1.7-10.5-5.5c-4.3-8.5,2.8-23.1,6.3-27.2
			c2.8-3.3,6.7-4.3,10.7-2.7c2.5,1,4.7,2.8,6.5,4.3c0.7,0.6,1.7,1.4,2.1,1.6c1.4,0.6,3.5-0.9,6.4-3.3c3.6-2.8,9-7.2,15-3.7
			c11,6.4,2.7,24,0,29.7C304.2,517.1,297.8,518.5,290.5,518.5z M273.5,507.6c3,0,6.1,0.2,9.2,0.4c5.7,0.4,14.3,0.9,15.3-1.3
			c5.8-12.2,4.6-15.7,4.2-16.5c-0.9,0.4-2.7,1.8-3.8,2.7c-3.9,3.1-9.7,7.7-16.8,4.7l0,0c-1.6-0.7-3-1.8-4.5-3.1
			c-0.9-0.7-2.4-2-3.4-2.5c-3,4-5.9,13.5-4.8,15.7c0.1,0,0.4,0.1,1,0C271.2,507.7,272.3,507.6,273.5,507.6z M285.7,488.3
			L285.7,488.3L285.7,488.3L285.7,488.3z"/>
	</g>
	<g>
		<path class="st1" d="M208.1,483.2c-0.6-3.5,3-12.9-3.6-13.7c-6.5-0.7-27.7,3.8-20.3,13.6c7.4,9.8,12.6,25.9,21,24.7
			c8.4-1.2,20.9-4,20.5-11.2C225.3,489.4,209.6,492,208.1,483.2z"/>
		<path d="M204.2,512.9c-8.2,0-13.2-8.7-18-17.2c-1.9-3.4-3.9-6.9-6-9.6c-2.9-3.8-3.4-8.1-1.3-11.8c4.7-8.3,20.8-10.4,26.2-9.8
			c4.3,0.5,7.2,3.2,8.1,7.4c0.6,2.6,0.3,5.5,0,7.8c-0.1,0.9-0.2,2.2-0.2,2.6c0.3,1.5,2.7,2.4,6.3,3.5c4.4,1.4,11,3.6,11.3,10.4
			c0.7,12.7-18.5,15.5-24.8,16.4C205.4,512.9,204.8,512.9,204.2,512.9z M187.7,479.2c0.1,0.1,0.2,0.4,0.5,0.8
			c2.5,3.3,4.6,7.1,6.7,10.7c2.8,4.9,7.1,12.4,9.6,12.1c13.3-1.9,15.7-4.8,16.1-5.7c-0.9-0.6-3-1.3-4.3-1.7
			c-4.7-1.5-11.8-3.8-13.1-11.4c-0.3-1.7-0.1-3.5,0.1-5.4c0.1-1.1,0.3-3.1,0.2-4.2C198.4,474.1,188.9,477,187.7,479.2z M213,482.4
			L213,482.4L213,482.4z"/>
	</g>
	<g>
		<path class="st1" d="M166.9,501.8c-3-1.8-7.9-10.7-12.7-6.2c-4.8,4.5-15.2,23.5-3,24.3c12.2,0.8,27.9,7.4,32.5,0.2
			s10.6-18.4,4.9-22.8C182.9,492.8,174.6,506.4,166.9,501.8z"/>
		<path d="M175.7,528.4c-4.2,0-8.9-0.9-13.5-1.8c-3.8-0.7-7.8-1.5-11.2-1.7c-4.8-0.3-8.3-2.8-9.8-6.7c-3.2-9,5.7-22.6,9.7-26.2
			c3.1-2.9,7.1-3.4,11-1.3c2.4,1.3,4.3,3.4,5.9,5.1c0.6,0.6,1.5,1.6,1.8,1.9c1.3,0.7,3.6-0.5,6.8-2.5c3.9-2.4,9.9-6,15.3-1.8
			c10.1,7.8-0.3,24.1-3.7,29.5C185.2,527,180.8,528.4,175.7,528.4z M150.6,514.6c0.1,0.1,0.4,0.1,0.9,0.2c4.1,0.3,8.4,1.1,12.5,1.9
			c5.6,1.1,14.1,2.7,15.4,0.6c7.2-11.4,6.6-15,6.2-15.9c-1,0.3-2.9,1.4-4.1,2.2c-4.2,2.6-10.6,6.4-17.2,2.5l0,0
			c-1.5-0.9-2.7-2.2-4-3.6c-0.8-0.8-2.1-2.3-3-2.9C153.8,503.2,149.7,512.2,150.6,514.6z"/>
	</g>
</g>
<g>
	<path class="st0" d="M785,421.2c-5-30.2-24.8-57.1-61.1-59.7c-48.7-3.4-107.9,12.9-116.5,57.5c-3.3,16.9,2.7,85.9,85.6,75.5
		C764.9,485.4,791.6,460.9,785,421.2z"/>
	<path d="M676.6,500.6c-23.6,0-42.3-7.1-55.5-21.3c-20.6-22-20.3-52.4-18.6-61.3c4.3-22.1,20.3-39.5,46.2-50.4
		c21.3-9,48.8-13,75.6-11.2c18.2,1.3,33.9,8.5,45.6,21c10.3,11.1,17.3,25.9,20.1,42.8l0,0c2.8,16.9-0.1,31.4-8.8,43
		c-13.9,18.7-42.5,30.5-87.6,36.2C687.7,500.2,682,500.6,676.6,500.6z M711.2,366.1c-45.7,0-91.8,17.5-98.8,53.9
		c-1.8,9.2-0.2,35.2,16,52.5c13.9,14.9,35.5,20.6,63.9,17c42.2-5.3,68.6-15.8,80.8-32.2c7.1-9.5,9.3-21,6.9-35.3l0,0
		c-5.4-32.7-26.6-53.4-56.5-55.5C719.4,366.2,715.3,366.1,711.2,366.1z"/>
</g>
<g>
	<path class="st4" d="M745.2,415.6c-6.4,0.8-21.7,6.3-15.2,23.4c6.5,17.1,19,16.6,28.3,12.4c9.3-4.1,19.7-12.8,17.6-21.7
		C772.2,413.6,754.1,414.4,745.2,415.6z"/>
	<path d="M748,458.2c-2.9,0-5.6-0.5-8.2-1.6c-6.1-2.5-10.7-7.9-13.8-16.1c-2.7-7.1-2.5-13.3,0.6-18.6c4-6.7,12.2-9.9,18-10.7l0,0
		c26.5-3.4,33.6,9.5,35.5,17.4c2.6,11.1-8.2,21.4-20.1,26.7C755.9,457.3,751.9,458.2,748,458.2z M745.8,419.9
		c-3.1,0.4-9.1,2.2-11.7,6.6c-1.7,2.8-1.7,6.6,0,11.1c2.2,5.8,5.3,9.6,9.1,11.2c4.7,1.9,9.9,0.5,13.5-1.1
		c8.4-3.7,16.6-10.9,15.2-16.8C769.6,421.6,760.9,417.9,745.8,419.9L745.8,419.9z"/>
</g>
<g>
	<line class="st3" x1="747.3" y1="430.2" x2="747.4" y2="438"/>
	<path d="M747.4,443c-2.7,0-5-2.2-5-5l-0.1-7.7c0-2.8,2.2-5.1,5-5.1c0,0,0,0,0.1,0c2.7,0,5,2.2,5,5l0.1,7.7
		C752.4,440.7,750.2,443,747.4,443C747.4,443,747.4,443,747.4,443z"/>
</g>
<g>
	<line class="st3" x1="759.7" y1="428.1" x2="759.8" y2="435.8"/>
	<path d="M759.8,439c-1.8,0-3.2-1.4-3.2-3.2l-0.1-7.7c0-1.8,1.4-3.3,3.2-3.3c0,0,0,0,0,0c1.8,0,3.2,1.4,3.2,3.2l0.1,7.7
		C763,437.6,761.6,439,759.8,439C759.8,439,759.8,439,759.8,439z"/>
</g>
<path d="M721.2,408.9c-6.3,0-10.5-4.3-12.1-7c-0.8-1.4-0.3-3.1,1.1-3.9c1.4-0.8,3.1-0.3,3.9,1.1c0.4,0.6,3.5,5.6,9.8,3.7
	c6.6-2,7.5-4.9,7.5-4.9c0,0.1,0,0.2,0,0.2l5.7,1c-0.1,0.6-1.3,6.2-11.5,9.2C724.1,408.7,722.6,408.9,721.2,408.9z"/>
<path d="M756.2,405.2c-5.7,0-8.6-4.4-9.4-6.8c-0.4-1.1,0.3-2.4,1.4-2.7s2.3,0.3,2.7,1.4c0.2,0.4,1.5,4.2,5.9,3.8
	c4.1-0.4,4.6-3.1,4.7-3.6c0.1-1.2,1.2-2,2.4-1.9c1.2,0.1,2,1.1,1.9,2.3c-0.2,2.4-2.2,7-8.6,7.5C756.9,405.2,756.6,405.2,756.2,405.2
	z"/>
<g>
	<path class="st1" d="M646.1,388.6c0,0,24.9-11.4,43.4-8.8"/>
	<path d="M646.1,393.6c-1.9,0-3.7-1.1-4.6-2.9c-1.2-2.5,0-5.5,2.5-6.7c1.1-0.5,26.5-11.9,46.2-9.2c2.8,0.4,4.7,2.9,4.3,5.7
		c-0.4,2.8-2.9,4.7-5.7,4.3c-16.8-2.4-40.4,8.2-40.7,8.3C647.5,393.4,646.8,393.6,646.1,393.6z"/>
</g>
<path d="M606.5,441.6c-0.3,0-0.6,0-1-0.1c-0.1,0-13.1-3.6-23.6-1.9c-2.2,0.4-8.2,1.3-9.9-3c-1-2.5,0.3-5.2,2.1-7.3
	c-1.7,0.4-3.8,1-6.4,1.8c-4.3,1.4-7.7,1-10-1.1c-2.6-2.5-3.1-6.6-1.5-12.6c1-3.6,2.5-7,3.3-8.7c2.1-4.6,3-5.5,4.6-5.8
	c1.9-0.5,3.9,0.7,4.3,2.7c0.3,1.2-0.1,2.5-0.9,3.3c-1.9,2.9-6.1,13.5-4.9,15.9c0.3,0,1.1,0.1,2.8-0.5c15.5-5.1,18.9-3,20.2-0.3
	c0.9,1.8,0.7,4.5-2.6,6.8c-0.7,0.5-1.4,1.1-2.1,1.7c12-1.9,25.8,2,26.4,2.1c1.9,0.5,3,2.5,2.5,4.4
	C609.5,440.6,608.1,441.6,606.5,441.6z M565.8,409.9L565.8,409.9L565.8,409.9z M565.8,409.9L565.8,409.9L565.8,409.9z M565.8,409.9
	L565.8,409.9L565.8,409.9z"/>
<g>
	<g>
		<circle class="st1" cx="622.5" cy="317.6" r="32.4"/>
		<path d="M622.5,355c-20.6,0-37.4-16.8-37.4-37.4s16.8-37.4,37.4-37.4c20.6,0,37.4,16.8,37.4,37.4S643.1,355,622.5,355z
			 M622.5,290.3c-15.1,0-27.3,12.3-27.3,27.3c0,15.1,12.3,27.3,27.3,27.3c15.1,0,27.3-12.3,27.3-27.3
			C649.8,302.6,637.6,290.3,622.5,290.3z"/>
	</g>
	<path d="M623.4,331.4c-1.8,0-3.5-0.6-4.9-1.6c-1.7-1.3-3-3.3-3.5-5.5c-0.3-1.2,0.5-2.3,1.6-2.6c1.2-0.3,2.3,0.5,2.6,1.6
		c0.3,1.2,0.9,2.3,1.9,2.9c0.7,0.5,1.8,1,3.3,0.7c4.9-1.1,4.3-3.9,4-4.9c-0.4-1.6-2.5-2-6.1-2.4c-3.8-0.4-8.6-1-9.6-5.6
		c-0.4-1.9-0.3-3.7,0.5-5.2c1.1-2.3,3.3-3.8,6.7-4.5c3.1-0.7,5.1,0.2,6.3,1c2.8,2,3.2,5.5,3.3,5.8c0.1,1.2-0.7,2.3-1.9,2.4
		c-1.2,0.1-2.2-0.7-2.4-1.9c-0.1-0.5-0.5-2.1-1.5-2.8c-0.7-0.5-1.6-0.6-2.9-0.3c-2,0.4-3.2,1.2-3.7,2.2c-0.3,0.6-0.4,1.4-0.1,2.4
		c0.3,1.5,2.5,1.8,5.9,2.2c3.9,0.4,8.8,1,9.8,5.7c1.1,4.9-1.7,8.8-7.3,10C624.7,331.4,624.1,331.4,623.4,331.4z"/>
	<path d="M626.1,334c-1,0-1.9-0.7-2.1-1.7l-6.4-28.4c-0.3-1.2,0.5-2.3,1.6-2.6c1.2-0.3,2.3,0.5,2.6,1.6l6.4,28.4
		c0.3,1.2-0.5,2.3-1.6,2.6C626.5,334,626.3,334,626.1,334z"/>
	<path d="M631.5,352.2c-0.9,0-1.8-0.6-2.1-1.6l-2.5-8.6c-0.3-1.1,0.3-2.3,1.5-2.7c1.1-0.3,2.3,0.3,2.7,1.5l2.5,8.6
		c0.3,1.1-0.3,2.3-1.5,2.7C631.9,352.1,631.7,352.2,631.5,352.2z"/>
	<path d="M639.9,347.1c-0.7,0-1.5-0.4-1.9-1.1l-4.5-7.9c-0.6-1-0.2-2.4,0.8-2.9c1-0.6,2.4-0.2,2.9,0.8l4.5,7.9
		c0.6,1,0.2,2.4-0.8,2.9C640.6,347,640.3,347.1,639.9,347.1z"/>
	<path d="M647.4,340.4c-0.5,0-1-0.2-1.4-0.6l-6.2-5.6c-0.9-0.8-1-2.2-0.2-3c0.8-0.9,2.2-1,3-0.2l6.2,5.6c0.9,0.8,1,2.2,0.2,3
		C648.6,340.2,648,340.4,647.4,340.4z"/>
	<path d="M652.4,332.1c-0.4,0-0.9-0.1-1.3-0.4l-6.2-4.4c-1-0.7-1.2-2-0.5-3c0.7-1,2-1.2,3-0.5l6.2,4.4c1,0.7,1.2,2,0.5,3
		C653.7,331.8,653.1,332.1,652.4,332.1z"/>
	<path d="M654.9,319.8C654.9,319.8,654.9,319.8,654.9,319.8l-6.9,0c-1.2,0-2.2-1-2.1-2.2c0-1.2,1-2.1,2.2-2.1h0l6.9,0
		c1.2,0,2.2,1,2.1,2.2C657,318.8,656,319.8,654.9,319.8z"/>
	<path d="M644.3,310.1c-0.9,0-1.8-0.6-2.1-1.6c-0.3-1.1,0.3-2.3,1.5-2.7l8.2-2.3c1.1-0.3,2.3,0.3,2.7,1.5c0.3,1.1-0.3,2.3-1.5,2.7
		l-8.2,2.3C644.7,310.1,644.5,310.1,644.3,310.1z"/>
	<path d="M639.9,303.7c-0.5,0-1-0.2-1.5-0.6c-0.9-0.8-0.9-2.2-0.1-3l5.9-6.4c0.8-0.9,2.2-0.9,3-0.1c0.9,0.8,0.9,2.2,0.1,3l-5.9,6.4
		C641.1,303.5,640.5,303.7,639.9,303.7z"/>
	<path d="M633.3,297.5c-0.2,0-0.3,0-0.5-0.1c-1.2-0.3-1.9-1.4-1.6-2.6l1.7-7.6c0.3-1.2,1.4-1.9,2.6-1.6c1.2,0.3,1.9,1.4,1.6,2.6
		l-1.7,7.6C635.2,296.8,634.3,297.5,633.3,297.5z"/>
	<path d="M624.7,296.1c-0.1,0-0.3,0-0.4,0c-1.2-0.2-1.9-1.4-1.7-2.5l1.5-7.3c0.2-1.2,1.4-1.9,2.5-1.7c1.2,0.2,1.9,1.4,1.7,2.5
		l-1.5,7.3C626.6,295.3,625.7,296.1,624.7,296.1z"/>
	<path d="M616,296.8c-1,0-1.9-0.7-2.1-1.7l-1.7-8c-0.3-1.2,0.5-2.3,1.7-2.6s2.3,0.5,2.6,1.7l1.7,8c0.3,1.2-0.5,2.3-1.7,2.6
		C616.3,296.8,616.2,296.8,616,296.8z"/>
	<path d="M593,330.6c-0.8,0-1.6-0.5-2-1.3c-0.5-1.1,0-2.4,1.1-2.8l6.5-2.9c1.1-0.5,2.4,0,2.8,1.1c0.5,1.1,0,2.4-1.1,2.8l-6.5,2.9
		C593.6,330.5,593.3,330.6,593,330.6z"/>
	<path d="M598.8,338.5c-0.6,0-1.2-0.3-1.6-0.7c-0.8-0.9-0.7-2.3,0.2-3l5.8-5c0.9-0.8,2.3-0.7,3,0.2c0.8,0.9,0.7,2.3-0.2,3l-5.8,5
		C599.8,338.3,599.3,338.5,598.8,338.5z"/>
	<path d="M606,345.7c-0.3,0-0.6-0.1-0.9-0.2c-1.1-0.5-1.5-1.8-1-2.9l3-6.5c0.5-1.1,1.8-1.5,2.9-1c1.1,0.5,1.5,1.8,1,2.9l-3,6.5
		C607.5,345.2,606.8,345.7,606,345.7z"/>
	<path d="M612.4,351.4c-0.2,0-0.5,0-0.7-0.1c-1.1-0.4-1.7-1.6-1.3-2.7l2.7-7.9c0.4-1.1,1.6-1.7,2.7-1.3c1.1,0.4,1.7,1.6,1.3,2.7
		l-2.7,7.9C614.2,350.9,613.3,351.4,612.4,351.4z"/>
	<path d="M598.1,316.2c-0.2,0-0.5,0-0.7-0.1l-7.3-2.6c-1.1-0.4-1.7-1.6-1.3-2.8c0.4-1.1,1.6-1.7,2.8-1.3l7.3,2.6
		c1.1,0.4,1.7,1.6,1.3,2.8C599.8,315.6,598.9,316.2,598.1,316.2z"/>
	<path d="M602.2,305.5c-0.6,0-1.2-0.2-1.6-0.7l-5.1-5.8c-0.8-0.9-0.7-2.3,0.2-3c0.9-0.8,2.3-0.7,3,0.2l5.1,5.8
		c0.8,0.9,0.7,2.3-0.2,3C603.2,305.4,602.7,305.5,602.2,305.5z"/>
</g>
<g>
	<g>
		<circle class="st1" cx="682.3" cy="255.2" r="32.4"/>
		<path d="M682.2,292.6c-6.7,0-13.5-1.8-19.7-5.6c-8.5-5.3-14.4-13.5-16.7-23.3c-2.3-9.7-0.6-19.8,4.6-28.2
			c10.9-17.5,34-22.9,51.5-12c17.5,10.9,22.9,34,12,51.5l0,0C707,286.3,694.7,292.6,682.2,292.6z M682.3,227.9
			c-9.1,0-18.1,4.6-23.3,12.9c-3.8,6.2-5.1,13.5-3.4,20.6c1.7,7.1,6,13.1,12.2,17c12.8,7.9,29.7,4,37.6-8.8l0,0
			c7.9-12.8,4-29.7-8.8-37.6C692.2,229.2,687.2,227.9,682.3,227.9z"/>
	</g>
	<path d="M681.6,269c-1.3,0-2.6-0.2-4.1-0.7c-2.4-0.8-4.2-2.5-5.1-4.8c-0.8-2-0.8-4.4-0.1-6.5c0.4-1.1,1.6-1.7,2.7-1.3
		c1.1,0.4,1.7,1.6,1.3,2.7c-0.4,1.1-0.4,2.4,0,3.5c0.3,0.8,1,1.8,2.5,2.3c4.7,1.6,5.7-1.1,6-2c0.5-1.6-1.1-3-3.9-5.2
		c-3-2.4-6.8-5.4-5.2-9.8c0.6-1.8,1.7-3.3,3.2-4.2c2.1-1.3,4.8-1.5,8-0.3c3,1,4.3,2.9,4.8,4.2c1.3,3.1-0.1,6.3-0.3,6.7
		c-0.5,1.1-1.8,1.5-2.9,1c-1.1-0.5-1.5-1.8-1-2.9c0.2-0.5,0.7-2,0.2-3.2c-0.3-0.8-1.1-1.4-2.3-1.8c-1.9-0.7-3.4-0.7-4.3-0.1
		c-0.6,0.4-1.1,1-1.4,2c-0.5,1.5,1.1,2.9,3.8,5c3.1,2.4,6.9,5.5,5.3,10.1C687.8,267.1,685.1,269,681.6,269z"/>
	<path d="M677.9,271.3c-0.2,0-0.5,0-0.7-0.1c-1.1-0.4-1.7-1.6-1.3-2.7l9.6-27.5c0.4-1.1,1.6-1.7,2.7-1.3s1.7,1.6,1.3,2.7l-9.6,27.5
		C679.6,270.8,678.8,271.3,677.9,271.3z"/>
	<path d="M672.8,289.6c-0.2,0-0.4,0-0.6-0.1c-1.1-0.3-1.8-1.5-1.5-2.7l2.4-8.7c0.3-1.2,1.5-1.8,2.7-1.5s1.8,1.5,1.5,2.7l-2.4,8.7
		C674.6,289,673.8,289.6,672.8,289.6z"/>
	<path d="M682.7,289.7C682.7,289.7,682.6,289.7,682.7,289.7c-1.3,0-2.2-1-2.2-2.2l0.4-9c0-1.2,1-2.1,2.2-2.1c1.2,0,2.1,1,2.1,2.2
		l-0.4,9C684.8,288.8,683.8,289.7,682.7,289.7z"/>
	<path d="M692.5,288c-0.9,0-1.8-0.6-2.1-1.6l-2.3-8c-0.3-1.1,0.3-2.3,1.5-2.7c1.1-0.3,2.3,0.3,2.7,1.5l2.3,8
		c0.3,1.1-0.3,2.3-1.5,2.7C692.9,288,692.7,288,692.5,288z"/>
	<path d="M701.2,283.6c-0.8,0-1.6-0.5-2-1.3l-2.9-7c-0.5-1.1,0.1-2.4,1.2-2.8c1.1-0.5,2.4,0.1,2.8,1.2l2.9,7
		c0.5,1.1-0.1,2.4-1.2,2.8C701.7,283.6,701.5,283.6,701.2,283.6z"/>
	<path d="M709.8,274.4c-0.4,0-0.8-0.1-1.1-0.3l-5.8-3.6c-1-0.6-1.3-2-0.7-3c0.6-1,2-1.3,3-0.7l5.8,3.6c1,0.6,1.3,2,0.7,3
		C711.2,274.1,710.5,274.4,709.8,274.4z"/>
	<path d="M714.1,263c-0.2,0-0.4,0-0.6-0.1l-8.2-2.4c-1.1-0.3-1.8-1.5-1.5-2.7c0.3-1.1,1.5-1.8,2.7-1.5l8.2,2.4
		c1.1,0.3,1.8,1.5,1.5,2.7C716,262.4,715.1,263,714.1,263z"/>
	<path d="M705.5,252.9c-0.9,0-1.8-0.6-2.1-1.6c-0.3-1.2,0.4-2.3,1.5-2.7l8.4-2.3c1.2-0.3,2.3,0.4,2.7,1.5c0.3,1.2-0.4,2.3-1.5,2.7
		l-8.4,2.3C705.9,252.9,705.7,252.9,705.5,252.9z"/>
	<path d="M703.2,244.1c-0.5,0-1.1-0.2-1.5-0.6c-0.8-0.8-0.9-2.2,0-3l5.5-5.5c0.8-0.8,2.2-0.9,3,0c0.8,0.8,0.9,2.2,0,3l-5.5,5.5
		C704.3,243.9,703.8,244.1,703.2,244.1z"/>
	<path d="M696.6,238.3c-0.5,0-1.1-0.2-1.5-0.6c-0.9-0.8-0.9-2.2-0.1-3l5.1-5.4c0.8-0.9,2.2-0.9,3-0.1c0.9,0.8,0.9,2.2,0.1,3
		l-5.1,5.4C697.8,238.1,697.2,238.3,696.6,238.3z"/>
	<path d="M688.9,234.4c-0.2,0-0.5,0-0.7-0.1c-1.1-0.4-1.7-1.6-1.3-2.8l2.8-7.7c0.4-1.1,1.6-1.7,2.8-1.3c1.1,0.4,1.7,1.6,1.3,2.8
		L691,233C690.6,233.9,689.8,234.4,688.9,234.4z"/>
	<path d="M658.6,252c-0.1,0-0.2,0-0.3,0l-7.1-1c-1.2-0.2-2-1.3-1.8-2.4c0.2-1.2,1.3-2,2.4-1.8l7.1,1c1.2,0.2,2,1.3,1.8,2.4
		C660.6,251.2,659.7,252,658.6,252z"/>
	<path d="M652.3,260.7c-1,0-1.9-0.7-2.1-1.8c-0.2-1.2,0.6-2.3,1.8-2.5l7.5-1.2c1.2-0.2,2.3,0.6,2.5,1.8c0.2,1.2-0.6,2.3-1.8,2.5
		l-7.5,1.2C652.5,260.7,652.4,260.7,652.3,260.7z"/>
	<path d="M654.6,270.6c-0.7,0-1.4-0.3-1.8-1c-0.6-1-0.4-2.3,0.6-3l6-3.9c1-0.6,2.3-0.4,3,0.6c0.6,1,0.4,2.3-0.6,3l-6,3.9
		C655.4,270.5,655,270.6,654.6,270.6z"/>
	<path d="M657,278.9c-0.6,0-1.3-0.3-1.7-0.8c-0.7-0.9-0.6-2.3,0.3-3l6.5-5.3c0.9-0.7,2.3-0.6,3,0.3c0.7,0.9,0.6,2.3-0.3,3l-6.5,5.3
		C658,278.8,657.5,278.9,657,278.9z"/>
	<path d="M663.4,241.4c-0.6,0-1.3-0.3-1.7-0.8l-4.8-6.1c-0.7-0.9-0.6-2.3,0.4-3s2.3-0.6,3,0.4l4.8,6.1c0.7,0.9,0.6,2.3-0.4,3
		C664.3,241.3,663.9,241.4,663.4,241.4z"/>
	<path d="M672.6,234.6c-1,0-1.9-0.7-2.1-1.8l-1.3-7.6c-0.2-1.2,0.6-2.3,1.8-2.5c1.2-0.2,2.3,0.6,2.5,1.8l1.3,7.6
		c0.2,1.2-0.6,2.3-1.8,2.5C672.8,234.5,672.7,234.6,672.6,234.6z"/>
</g>
<g>
	<g>
		<circle class="st1" cx="736.2" cy="131.5" r="32.4"/>
		<path d="M736.2,168.9c-3.4,0-6.9-0.5-10.4-1.5c-19.8-5.7-31.2-26.5-25.5-46.3c2.8-9.6,9.1-17.5,17.9-22.3
			c8.8-4.8,18.9-5.9,28.4-3.1c19.8,5.7,31.2,26.5,25.5,46.3l0,0C767.4,158.3,752.4,168.9,736.2,168.9z M736.2,104.2
			c-11.8,0-22.8,7.8-26.3,19.7c-4.2,14.5,4.2,29.7,18.6,33.9c14.5,4.2,29.7-4.2,33.9-18.6c4.2-14.5-4.2-29.7-18.6-33.9
			C741.3,104.6,738.7,104.2,736.2,104.2z"/>
	</g>
	<path d="M736.1,145.4c-0.3,0-0.6,0-0.9,0c-5.4-0.3-8.3-5.1-8-9.5c0.1-1.2,1.1-2.1,2.3-2c1.2,0.1,2.1,1.1,2,2.3
		c-0.1,2.3,1.2,4.7,4,4.9c1.6,0.1,3-0.2,3.9-0.7c0.8-0.6,1.3-1.5,1.4-2.8c0.1-1.7-1.9-2.6-5.2-4c-3.6-1.5-8-3.3-7.7-8
		c0.1-1.9,0.8-3.6,1.9-4.9c1.7-1.9,4.3-2.7,7.7-2.5c3.2,0.2,4.9,1.6,5.8,2.7c2.1,2.7,1.6,6.1,1.5,6.5c-0.2,1.2-1.3,2-2.5,1.8
		c-1.2-0.2-2-1.3-1.8-2.5c0.1-0.5,0.1-2.1-0.7-3.1c-0.5-0.7-1.4-1-2.7-1.1c-2-0.1-3.4,0.2-4.2,1.1c-0.5,0.5-0.7,1.3-0.8,2.3
		c-0.1,1.5,1.8,2.5,5.1,3.8c3.6,1.5,8.1,3.4,7.8,8.2c-0.2,3.4-1.9,5.2-3.3,6.1C740.2,144.9,738.3,145.4,736.1,145.4z"/>
	<path d="M735.8,148.3c0,0-0.1,0-0.1,0c-1.2-0.1-2.1-1.1-2-2.3l1.8-29.1c0.1-1.2,1.1-2.1,2.3-2c1.2,0.1,2.1,1.1,2,2.3l-1.8,29.1
		C737.8,147.5,736.9,148.3,735.8,148.3z"/>
	<path d="M735.8,167.3L735.8,167.3c-1.2,0-2.2-1-2.2-2.2l0-9c0-1.2,1-2.1,2.2-2.1l0,0c1.2,0,2.2,1,2.2,2.2l0,9
		C738,166.3,737,167.3,735.8,167.3z"/>
	<path d="M745.3,164.7c-1,0-1.9-0.7-2.1-1.7l-2.1-8.8c-0.3-1.2,0.4-2.3,1.6-2.6c1.2-0.3,2.3,0.4,2.6,1.6l2.1,8.8
		c0.3,1.2-0.4,2.3-1.6,2.6C745.7,164.7,745.5,164.7,745.3,164.7z"/>
	<path d="M754.4,160.5c-0.7,0-1.4-0.4-1.8-1l-4.4-7.1c-0.6-1-0.3-2.3,0.7-3c1-0.6,2.3-0.3,3,0.7l4.4,7.1c0.6,1,0.3,2.3-0.7,3
		C755.1,160.4,754.8,160.5,754.4,160.5z"/>
	<path d="M761.5,153.9c-0.6,0-1.3-0.3-1.7-0.8l-4.7-6c-0.7-0.9-0.6-2.3,0.4-3c0.9-0.7,2.3-0.6,3,0.4l4.7,6c0.7,0.9,0.6,2.3-0.4,3
		C762.4,153.7,762,153.9,761.5,153.9z"/>
	<path d="M767.3,142.7c-0.2,0-0.4,0-0.6-0.1l-6.6-1.9c-1.1-0.3-1.8-1.5-1.5-2.7c0.3-1.1,1.5-1.8,2.7-1.5l6.6,1.9
		c1.1,0.3,1.8,1.5,1.5,2.7C769.1,142.1,768.2,142.7,767.3,142.7z"/>
	<path d="M768.4,130.5C768.4,130.5,768.4,130.5,768.4,130.5l-8.6-0.1c-1.2,0-2.1-1-2.1-2.2c0-1.2,1-2.1,2.2-2.1c0,0,0,0,0,0l8.6,0.1
		c1.2,0,2.1,1,2.1,2.2C770.6,129.6,769.6,130.5,768.4,130.5z"/>
	<path d="M757.4,123.1c-0.7,0-1.4-0.4-1.8-1c-0.6-1-0.3-2.3,0.7-3l7.4-4.5c1-0.6,2.3-0.3,3,0.7s0.3,2.3-0.7,3l-7.4,4.5
		C758.2,123,757.8,123.1,757.4,123.1z"/>
	<path d="M752.8,115.3c-0.4,0-0.7-0.1-1-0.3c-1-0.6-1.4-1.9-0.8-2.9l3.8-6.8c0.6-1,1.9-1.4,2.9-0.8c1,0.6,1.4,1.9,0.8,2.9l-3.8,6.8
		C754.3,114.9,753.5,115.3,752.8,115.3z"/>
	<path d="M744.9,111.5c-0.3,0-0.7-0.1-1-0.3c-1.1-0.6-1.5-1.9-0.9-2.9l3.5-6.6c0.6-1,1.9-1.5,2.9-0.9c1.1,0.6,1.5,1.9,0.9,2.9
		l-3.5,6.6C746.4,111.1,745.7,111.5,744.9,111.5z"/>
	<path d="M736.4,109.8c-0.1,0-0.1,0-0.2,0c-1.2-0.1-2.1-1.1-2-2.3l0.6-8.1c0.1-1.2,1.1-2.1,2.3-2c1.2,0.1,2.1,1.1,2,2.3l-0.6,8.1
		C738.5,108.9,737.5,109.8,736.4,109.8z"/>
	<path d="M704.9,135.8c-1.1,0-2-0.8-2.1-1.9c-0.2-1.2,0.7-2.3,1.9-2.4l7.1-0.9c1.2-0.2,2.3,0.7,2.4,1.9c0.2,1.2-0.7,2.3-1.9,2.4
		l-7.1,0.9C705.1,135.8,705,135.8,704.9,135.8z"/>
	<path d="M708.2,145c-0.8,0-1.6-0.5-2-1.2c-0.5-1.1,0-2.4,1-2.9l6.9-3.2c1.1-0.5,2.4,0,2.9,1s0,2.4-1,2.9l-6.9,3.2
		C708.8,145,708.5,145,708.2,145z"/>
	<path d="M713.1,153.9c-0.5,0-1-0.2-1.4-0.5c-0.9-0.8-1-2.1-0.2-3l4.7-5.4c0.8-0.9,2.1-1,3-0.2c0.9,0.8,1,2.1,0.2,3l-4.7,5.4
		C714.3,153.7,713.7,153.9,713.1,153.9z"/>
	<path d="M717.7,161.3c-0.4,0-0.9-0.1-1.2-0.4c-1-0.7-1.2-2-0.5-3l4.8-6.8c0.7-1,2-1.2,3-0.5c1,0.7,1.2,2,0.5,3l-4.8,6.8
		C719.1,161,718.4,161.3,717.7,161.3z"/>
	<path d="M713.7,123.4c-0.4,0-0.9-0.1-1.3-0.4l-6.3-4.6c-1-0.7-1.2-2-0.5-3c0.7-1,2-1.2,3-0.5l6.3,4.6c1,0.7,1.2,2,0.5,3
		C715.1,123.1,714.4,123.4,713.7,123.4z"/>
	<path d="M720.7,114.4c-0.8,0-1.6-0.5-1.9-1.2l-3.3-7c-0.5-1.1-0.1-2.4,1-2.9c1.1-0.5,2.4-0.1,2.9,1l3.3,7c0.5,1.1,0.1,2.4-1,2.9
		C721.3,114.3,721,114.4,720.7,114.4z"/>
</g>
<g>
	<g>
		<circle class="st1" cx="592.4" cy="176.1" r="32.4"/>
		<path d="M592.3,213.5c-7,0-13.9-2-20-5.9c-8.4-5.4-14.2-13.7-16.4-23.4c-2.2-9.7-0.4-19.8,5-28.2c5.4-8.4,13.7-14.2,23.4-16.4
			s19.8-0.4,28.2,5c8.4,5.4,14.2,13.7,16.4,23.4c2.2,9.7,0.4,19.8-5,28.2c-5.4,8.4-13.7,14.2-23.4,16.4
			C597.8,213.2,595,213.5,592.3,213.5z M592.5,148.8c-2,0-4,0.2-6,0.7c-7.1,1.6-13.2,5.8-17.1,12c-3.9,6.2-5.2,13.5-3.6,20.6
			s5.8,13.2,12,17.1s13.5,5.2,20.6,3.6c7.1-1.6,13.2-5.8,17.1-12s5.2-13.5,3.6-20.6c-1.6-7.1-5.8-13.2-12-17.1
			C602.7,150.2,597.6,148.8,592.5,148.8z"/>
	</g>
	<path d="M594.5,189.6c-1.1,0-2.3-0.2-3.4-0.7c-2-0.9-3.7-2.5-4.6-4.6c-0.5-1.1,0-2.4,1-2.9c1.1-0.5,2.4,0,2.9,1
		c0.5,1.1,1.4,2,2.5,2.5c0.8,0.3,2,0.6,3.4-0.1c4.5-2.1,3.3-4.7,2.9-5.6c-0.7-1.5-2.9-1.4-6.5-1c-3.8,0.4-8.6,0.9-10.6-3.4
		c-0.8-1.8-1.1-3.6-0.7-5.2c0.6-2.4,2.4-4.4,5.5-5.9c2.9-1.3,5.1-0.9,6.4-0.4c3.1,1.3,4.3,4.6,4.5,5c0.4,1.1-0.2,2.4-1.4,2.7
		c-1.1,0.4-2.3-0.2-2.7-1.3c-0.2-0.5-0.9-1.9-2.1-2.4c-0.8-0.3-1.7-0.2-2.9,0.3c-1.8,0.9-2.9,1.8-3.1,3c-0.2,0.7,0,1.5,0.4,2.4
		c0.7,1.4,2.8,1.3,6.3,0.9c3.9-0.4,8.8-0.9,10.8,3.5c2.1,4.6,0.2,8.9-5,11.3C597,189.3,595.7,189.6,594.5,189.6z"/>
	<path d="M599,191.3c-0.8,0-1.6-0.5-2-1.2l-12.4-26.4c-0.5-1.1,0-2.4,1-2.9c1.1-0.5,2.4,0,2.9,1l12.4,26.4c0.5,1.1,0,2.4-1,2.9
		C599.7,191.3,599.3,191.3,599,191.3z"/>
	<path d="M608.2,207.9c-0.8,0-1.5-0.4-1.9-1.1l-4.3-7.9c-0.6-1-0.2-2.4,0.9-2.9c1-0.6,2.4-0.2,2.9,0.9l4.3,7.9
		c0.6,1,0.2,2.4-0.9,2.9C608.9,207.9,608.5,207.9,608.2,207.9z"/>
	<path d="M615.3,201.1c-0.6,0-1.2-0.2-1.6-0.7l-6.1-6.7c-0.8-0.9-0.7-2.3,0.2-3c0.9-0.8,2.3-0.7,3,0.2l6.1,6.7
		c0.8,0.9,0.7,2.3-0.2,3C616.3,200.9,615.8,201.1,615.3,201.1z"/>
	<path d="M621.2,193.1c-0.4,0-0.7-0.1-1.1-0.3l-7.3-4.1c-1-0.6-1.4-1.9-0.8-2.9c0.6-1,1.9-1.4,2.9-0.8l7.3,4.1
		c1,0.6,1.4,1.9,0.8,2.9C622.7,192.7,621.9,193.1,621.2,193.1z"/>
	<path d="M624.3,183.9c-0.3,0-0.6-0.1-0.8-0.2l-7-3c-1.1-0.5-1.6-1.7-1.1-2.8c0.5-1.1,1.7-1.6,2.8-1.1l7,3c1.1,0.5,1.6,1.7,1.1,2.8
		C625.9,183.4,625.1,183.9,624.3,183.9z"/>
	<path d="M617.3,172.7c-1,0-1.9-0.7-2.1-1.7c-0.3-1.2,0.5-2.3,1.6-2.6l6.7-1.5c1.2-0.3,2.3,0.5,2.6,1.6c0.3,1.2-0.5,2.3-1.6,2.6
		l-6.7,1.5C617.6,172.7,617.4,172.7,617.3,172.7z"/>
	<path d="M611.6,164.1c-0.8,0-1.5-0.4-1.9-1.1c-0.6-1-0.2-2.4,0.9-2.9l7.5-4.1c1-0.6,2.4-0.2,2.9,0.9c0.6,1,0.2,2.4-0.9,2.9
		l-7.5,4.1C612.3,164,611.9,164.1,611.6,164.1z"/>
	<path d="M605.9,158.8c-0.4,0-0.7-0.1-1.1-0.3c-1-0.6-1.4-1.9-0.8-2.9l4.4-7.5c0.6-1,1.9-1.4,2.9-0.8c1,0.6,1.4,1.9,0.8,2.9
		l-4.4,7.5C607.4,158.4,606.7,158.8,605.9,158.8z"/>
	<path d="M598.1,154.2C598.1,154.2,598.1,154.2,598.1,154.2c-1.2,0-2.2-1-2.2-2.2l0-7.8c0-1.2,1-2.1,2.2-2.1c0,0,0,0,0,0
		c1.2,0,2.1,1,2.1,2.2l0,7.8C600.3,153.2,599.3,154.2,598.1,154.2z"/>
	<path d="M589.4,154.6c-1.2,0-2.1-0.9-2.2-2.1l-0.1-7.4c0-1.2,0.9-2.2,2.1-2.2c1.2,0,2.2,0.9,2.2,2.1l0.1,7.4
		C591.6,153.6,590.6,154.6,589.4,154.6C589.4,154.6,589.4,154.6,589.4,154.6z"/>
	<path d="M581.1,157.2c-0.8,0-1.6-0.5-2-1.3l-3.4-7.4c-0.5-1.1,0-2.4,1.1-2.9c1.1-0.5,2.4,0,2.9,1.1l3.4,7.4c0.5,1.1,0,2.4-1.1,2.9
		C581.7,157.1,581.4,157.2,581.1,157.2z"/>
	<path d="M566,195.2c-0.7,0-1.3-0.3-1.7-0.9c-0.7-1-0.5-2.3,0.5-3l5.8-4.2c1-0.7,2.3-0.5,3,0.5c0.7,1,0.5,2.3-0.5,3l-5.8,4.2
		C566.8,195,566.4,195.2,566,195.2z"/>
	<path d="M573.3,201.6c-0.4,0-0.9-0.1-1.3-0.4c-1-0.7-1.2-2.1-0.5-3l4.5-6.2c0.7-1,2.1-1.2,3-0.5s1.2,2.1,0.5,3l-4.5,6.2
		C574.6,201.3,573.9,201.6,573.3,201.6z"/>
	<path d="M581.8,207.1c-0.2,0-0.3,0-0.5-0.1c-1.2-0.3-1.9-1.4-1.6-2.6l1.6-7c0.3-1.2,1.4-1.9,2.6-1.6c1.2,0.3,1.9,1.4,1.6,2.6
		l-1.6,7C583.7,206.4,582.8,207.1,581.8,207.1z"/>
	<path d="M589.4,211.3c-0.1,0-0.2,0-0.3,0c-1.2-0.1-2-1.2-1.9-2.4l1-8.3c0.1-1.2,1.2-2,2.4-1.9c1.2,0.1,2,1.2,1.9,2.4l-1,8.3
		C591.4,210.5,590.5,211.3,589.4,211.3z"/>
	<path d="M567.8,180c-0.1,0-0.2,0-0.3,0l-7.7-1c-1.2-0.2-2-1.2-1.9-2.4c0.2-1.2,1.2-2,2.4-1.9l7.7,1c1.2,0.2,2,1.2,1.9,2.4
		C569.8,179.2,568.8,180,567.8,180z"/>
	<path d="M569.5,168.7c-0.4,0-0.9-0.1-1.3-0.4l-6.3-4.5c-1-0.7-1.2-2-0.5-3c0.7-1,2-1.2,3-0.5l6.3,4.5c1,0.7,1.2,2,0.5,3
		C570.9,168.4,570.2,168.7,569.5,168.7z"/>
</g>
<g>
	<g>
		<circle class="st1" cx="414.8" cy="103.6" r="32.4"/>
		<path d="M414.9,141c-14.6,0-28.6-8.6-34.5-23c-8-19,1.1-41,20.1-48.9c9.2-3.9,19.4-3.9,28.6-0.1s16.5,11,20.3,20.2
			c3.9,9.2,3.9,19.4,0.1,28.6c-3.8,9.2-11,16.5-20.2,20.3C424.6,140,419.7,141,414.9,141z M414.8,76.2c-3.6,0-7.1,0.7-10.5,2.1
			c-13.9,5.8-20.5,21.8-14.7,35.7c5.8,13.9,21.8,20.5,35.7,14.7c6.7-2.8,12-8.1,14.7-14.8c2.8-6.8,2.7-14.2-0.1-20.9
			c-2.8-6.7-8.1-12-14.8-14.7C421.9,76.9,418.3,76.2,414.8,76.2z"/>
	</g>
	<path d="M410.8,115.9c-0.8,0-1.6-0.1-2.2-0.3c-1.9-0.6-3.7-2-5.2-4.1c-1.5-2-1.9-4.5-1.3-6.9c0.5-2.1,1.9-4,3.7-5.3
		c1-0.7,2.3-0.5,3,0.5c0.7,1,0.5,2.3-0.5,3c-1,0.7-1.7,1.7-2,2.8c-0.2,0.8-0.2,2,0.7,3.3c0.9,1.3,2,2.2,3,2.5c1,0.3,2,0.1,3-0.7
		c1.4-1,0.8-3.1-0.2-6.5c-1.1-3.7-2.4-8.3,1.4-11c4.1-2.9,8.5-1.8,11.7,2.8c1.8,2.6,1.8,4.8,1.5,6.2c-0.8,3.3-3.8,5.1-4.1,5.3
		c-1,0.6-2.4,0.2-2.9-0.8c-0.6-1-0.2-2.3,0.8-2.9c0.5-0.3,1.8-1.3,2-2.5c0.2-0.8-0.1-1.7-0.8-2.8c-2.4-3.5-4.3-2.8-5.7-1.8
		c-1.3,0.9-0.8,3,0.2,6.3c1.1,3.8,2.5,8.5-1.5,11.3C413.7,115.6,412.1,115.9,410.8,115.9z"/>
	<path d="M403.1,114.6c-0.7,0-1.3-0.3-1.8-0.9c-0.7-1-0.5-2.3,0.5-3l23.8-16.8c1-0.7,2.3-0.5,3,0.5c0.7,1,0.5,2.3-0.5,3l-23.8,16.8
		C404,114.5,403.6,114.6,403.1,114.6z"/>
	<path d="M388.4,126.5c-0.6,0-1.3-0.3-1.7-0.8c-0.7-0.9-0.6-2.3,0.3-3l7-5.6c0.9-0.7,2.3-0.6,3,0.3s0.6,2.3-0.3,3l-7,5.6
		C389.4,126.3,388.9,126.5,388.4,126.5z"/>
	<path d="M396.4,132.3c-0.5,0-0.9-0.1-1.3-0.5c-0.9-0.7-1.1-2.1-0.4-3l5.5-7.2c0.7-0.9,2.1-1.1,3-0.4c0.9,0.7,1.1,2.1,0.4,3
		l-5.5,7.2C397.7,132,397,132.3,396.4,132.3z"/>
	<path d="M405.4,136.7c-0.2,0-0.5,0-0.7-0.1c-1.1-0.4-1.7-1.6-1.3-2.7l2.7-7.9c0.4-1.1,1.6-1.7,2.7-1.3c1.1,0.4,1.7,1.6,1.3,2.7
		l-2.7,7.9C407.1,136.1,406.3,136.7,405.4,136.7z"/>
	<path d="M415,138.1c-0.2,0-0.3,0-0.5-0.1c-1.2-0.3-1.9-1.4-1.6-2.6l1.7-7.4c0.3-1.2,1.4-1.9,2.6-1.6c1.2,0.3,1.9,1.4,1.6,2.6
		l-1.7,7.4C416.8,137.4,416,138.1,415,138.1z"/>
	<path d="M427.3,135.6c-0.8,0-1.6-0.5-2-1.3l-2.6-6.4c-0.5-1.1,0.1-2.4,1.2-2.8c1.1-0.5,2.4,0.1,2.8,1.2l2.6,6.4
		c0.5,1.1-0.1,2.4-1.2,2.8C427.9,135.5,427.6,135.6,427.3,135.6z"/>
	<path d="M437.5,128.8c-0.6,0-1.3-0.3-1.7-0.8l-5.3-6.7c-0.7-0.9-0.6-2.3,0.4-3c0.9-0.7,2.3-0.6,3,0.4l5.3,6.7
		c0.7,0.9,0.6,2.3-0.4,3C438.5,128.7,438,128.8,437.5,128.8z"/>
	<path d="M444.5,118.6c-0.2,0-0.5,0-0.7-0.1l-8.2-3c-1.1-0.4-1.7-1.6-1.3-2.8c0.4-1.1,1.6-1.7,2.8-1.3l8.2,3
		c1.1,0.4,1.7,1.6,1.3,2.8C446.2,118,445.4,118.6,444.5,118.6z"/>
	<path d="M439.6,107.1c-1,0-1.9-0.7-2.1-1.8c-0.2-1.2,0.6-2.3,1.8-2.5l7.6-1.3c1.2-0.2,2.3,0.6,2.5,1.8c0.2,1.2-0.6,2.3-1.8,2.5
		l-7.6,1.3C439.8,107.1,439.7,107.1,439.6,107.1z"/>
	<path d="M437.6,98.6c-1,0-1.9-0.7-2.1-1.7c-0.2-1.2,0.5-2.3,1.7-2.5l7.3-1.4c1.2-0.2,2.3,0.5,2.5,1.7c0.2,1.2-0.5,2.3-1.7,2.5
		l-7.3,1.4C437.8,98.6,437.7,98.6,437.6,98.6z"/>
	<path d="M433.6,90.9c-0.7,0-1.4-0.3-1.8-0.9c-0.7-1-0.4-2.3,0.5-3l6.7-4.7c1-0.7,2.3-0.4,3,0.5c0.7,1,0.4,2.3-0.5,3l-6.7,4.7
		C434.4,90.8,434,90.9,433.6,90.9z"/>
	<path d="M398.7,87.6c-0.5,0-1.1-0.2-1.5-0.6l-5.2-4.9c-0.9-0.8-0.9-2.2-0.1-3c0.8-0.9,2.2-0.9,3-0.1l5.2,4.9c0.9,0.8,0.9,2.2,0.1,3
		C399.8,87.4,399.3,87.6,398.7,87.6z"/>
	<path d="M395.3,94.4c-0.3,0-0.6-0.1-0.9-0.2l-6.9-3.4c-1.1-0.5-1.5-1.8-1-2.9c0.5-1.1,1.8-1.5,2.9-1l6.9,3.4c1.1,0.5,1.5,1.8,1,2.9
		C396.9,94,396.1,94.4,395.3,94.4z"/>
	<path d="M391.7,100.8C391.7,100.8,391.7,100.8,391.7,100.8l-7.2-0.3c-1.2-0.1-2.1-1.1-2.1-2.3c0.1-1.2,1.1-2.1,2.3-2.1l7.1,0.3
		c1.2,0.1,2.1,1.1,2.1,2.3C393.8,99.9,392.9,100.8,391.7,100.8z"/>
	<path d="M381.8,108.7c-1.1,0-2.1-0.9-2.1-2c-0.1-1.2,0.8-2.2,2-2.3l8.4-0.5c1.2-0.1,2.2,0.8,2.3,2c0.1,1.2-0.8,2.2-2,2.3l-8.4,0.5
		C381.9,108.7,381.8,108.7,381.8,108.7z"/>
	<path d="M408.7,81.8c-1.1,0-2.1-0.9-2.1-2.1l-0.4-7.8c-0.1-1.2,0.9-2.2,2-2.3c0,0,0.1,0,0.1,0c1.1,0,2.1,0.9,2.1,2.1l0.4,7.8
		c0.1,1.2-0.9,2.2-2,2.3C408.8,81.8,408.8,81.8,408.7,81.8z"/>
	<path d="M420.1,81.5c-0.3,0-0.6-0.1-0.9-0.2c-1.1-0.5-1.5-1.8-1-2.9l3.3-7c0.5-1.1,1.8-1.5,2.9-1c1.1,0.5,1.5,1.8,1,2.9l-3.3,7
		C421.7,81.1,421,81.5,420.1,81.5z"/>
</g>
</svg>
