<?xml version="1.0" encoding="utf-8"?>
<!-- Generator: Adobe Illustrator 27.2.0, SVG Export Plug-In . SVG Version: 6.00 Build 0)  -->
<svg version="1.1" id="레이어_1" xmlns="http://www.w3.org/2000/svg" xmlns:xlink="http://www.w3.org/1999/xlink" x="0px"
	 y="0px" viewBox="0 0 800 600" style="enable-background:new 0 0 800 600;" xml:space="preserve">
<style type="text/css">
	.st0{fill:#FFDA00;}
	.st1{fill:#FB9392;}
	.st2{fill:#E2AAAA;}
	.st3{fill:none;}
</style>
<g>
	<g>
		<circle class="st0" cx="367.71" cy="306.44" r="34.82"/>
		<path d="M367.64,346.67c-7.24,0-14.57-1.95-21.16-6.04c-9.13-5.67-15.51-14.56-17.95-25.03s-0.67-21.26,5-30.39
			c11.7-18.85,36.56-24.66,55.41-12.95c18.85,11.71,24.66,36.56,12.95,55.41l0,0C394.28,339.92,381.11,346.67,367.64,346.67z
			 M367.76,277.04c-9.84,0-19.47,4.93-25.03,13.88c-4.14,6.67-5.44,14.56-3.65,22.21c1.79,7.65,6.45,14.15,13.12,18.29
			c13.77,8.55,31.94,4.3,40.5-9.46l0,0c8.55-13.77,4.31-31.94-9.47-40.5C378.4,278.47,373.05,277.04,367.76,277.04z"/>
	</g>
	<path d="M366.96,321.3c-1.35,0-2.82-0.26-4.36-0.8c-2.55-0.89-4.49-2.72-5.46-5.18c-0.86-2.17-0.9-4.7-0.11-6.98
		c0.42-1.21,1.74-1.85,2.96-1.43c1.21,0.43,1.85,1.75,1.43,2.96c-0.43,1.23-0.42,2.59,0.04,3.74c0.33,0.84,1.07,1.94,2.68,2.51
		c5.09,1.77,6.12-1.17,6.45-2.14c0.59-1.69-1.2-3.27-4.22-5.64c-3.26-2.57-7.32-5.77-5.65-10.57c0.69-1.98,1.86-3.54,3.4-4.51
		c2.29-1.45,5.2-1.57,8.65-0.36c3.22,1.12,4.61,3.08,5.22,4.53c1.41,3.39-0.15,6.83-0.32,7.2c-0.56,1.16-1.94,1.64-3.1,1.09
		c-1.15-0.55-1.64-1.93-1.1-3.08c0.25-0.53,0.76-2.19,0.22-3.45c-0.36-0.84-1.15-1.46-2.45-1.91c-2.05-0.71-3.61-0.74-4.64-0.09
		c-0.64,0.41-1.15,1.12-1.49,2.11c-0.54,1.56,1.2,3.08,4.14,5.4c3.32,2.62,7.45,5.87,5.73,10.82
		C373.65,319.26,370.74,321.3,366.96,321.3z"/>
	<path d="M362.99,323.81c-0.26,0-0.51-0.04-0.77-0.13c-1.21-0.42-1.85-1.74-1.43-2.96l10.32-29.61c0.42-1.21,1.74-1.85,2.96-1.43
		c1.21,0.42,1.85,1.74,1.43,2.96l-10.32,29.61C364.85,323.22,363.95,323.81,362.99,323.81z"/>
	<path d="M357.52,343.45c-0.21,0-0.42-0.03-0.63-0.09c-1.23-0.35-1.95-1.63-1.6-2.86l2.63-9.32c0.35-1.24,1.63-1.95,2.86-1.6
		c1.23,0.35,1.95,1.63,1.6,2.86l-2.63,9.32C359.46,342.79,358.54,343.45,357.52,343.45z"/>
	<path d="M368.15,343.58c-0.03,0-0.06,0-0.09,0c-1.28-0.05-2.28-1.13-2.23-2.41l0.38-9.73c0.05-1.28,1.1-2.29,2.41-2.23
		c1.28,0.05,2.28,1.13,2.23,2.41l-0.38,9.73C370.41,342.6,369.39,343.58,368.15,343.58z"/>
	<path d="M378.74,341.8c-1.01,0-1.93-0.66-2.23-1.67l-2.51-8.61c-0.36-1.23,0.35-2.52,1.58-2.88c1.23-0.36,2.52,0.35,2.88,1.58
		l2.51,8.61c0.36,1.23-0.35,2.52-1.58,2.88C379.17,341.77,378.95,341.8,378.74,341.8z"/>
	<path d="M388.04,337.04c-0.91,0-1.77-0.54-2.14-1.43l-3.13-7.58c-0.49-1.18,0.07-2.55,1.26-3.03c1.18-0.49,2.54,0.07,3.03,1.25
		l3.13,7.58c0.49,1.18-0.07,2.55-1.26,3.03C388.64,336.98,388.34,337.04,388.04,337.04z"/>
	<path d="M397.29,327.13c-0.42,0-0.84-0.12-1.23-0.36l-6.28-3.92c-1.08-0.68-1.42-2.11-0.74-3.2c0.68-1.08,2.11-1.42,3.2-0.74
		l6.28,3.92c1.08,0.68,1.42,2.11,0.74,3.2C398.82,326.75,398.06,327.13,397.29,327.13z"/>
	<path d="M402,314.83c-0.22,0-0.43-0.03-0.64-0.09l-8.86-2.55c-1.23-0.36-1.94-1.64-1.59-2.87s1.64-1.94,2.87-1.59l8.86,2.55
		c1.23,0.36,1.94,1.64,1.59,2.87C403.95,314.16,403.02,314.83,402,314.83z"/>
	<path d="M392.74,303.97c-1.01,0-1.95-0.67-2.24-1.7c-0.35-1.24,0.38-2.51,1.61-2.86l9.01-2.51c1.24-0.35,2.51,0.38,2.86,1.61
		c0.35,1.24-0.38,2.51-1.61,2.86l-9.01,2.51C393.16,303.94,392.95,303.97,392.74,303.97z"/>
	<path d="M390.23,294.51c-0.59,0-1.18-0.22-1.63-0.67c-0.91-0.9-0.92-2.37-0.02-3.28l5.87-5.94c0.9-0.91,2.37-0.92,3.28-0.02
		c0.91,0.9,0.92,2.37,0.02,3.28l-5.87,5.94C391.42,294.27,390.82,294.51,390.23,294.51z"/>
	<path d="M383.15,288.29c-0.57,0-1.15-0.21-1.59-0.63c-0.93-0.88-0.97-2.35-0.09-3.28l5.49-5.8c0.88-0.93,2.35-0.97,3.28-0.09
		c0.93,0.88,0.97,2.35,0.09,3.28l-5.49,5.8C384.38,288.05,383.76,288.29,383.15,288.29z"/>
	<path d="M374.86,284.05c-0.26,0-0.53-0.05-0.78-0.14c-1.21-0.43-1.83-1.76-1.4-2.97l2.97-8.27c0.43-1.21,1.76-1.83,2.97-1.4
		s1.83,1.76,1.4,2.97l-2.97,8.27C376.7,283.46,375.81,284.05,374.86,284.05z"/>
	<path d="M342.24,302.97c-0.11,0-0.22-0.01-0.33-0.02l-7.61-1.08c-1.27-0.18-2.15-1.35-1.97-2.62c0.18-1.27,1.36-2.15,2.62-1.97
		l7.61,1.08c1.27,0.18,2.15,1.35,1.97,2.62C344.37,302.13,343.38,302.97,342.24,302.97z"/>
	<path d="M335.4,312.38c-1.11,0-2.1-0.8-2.29-1.94c-0.21-1.27,0.65-2.46,1.91-2.67l8.12-1.34c1.26-0.21,2.46,0.65,2.67,1.91
		c0.21,1.27-0.65,2.46-1.91,2.67l-8.12,1.34C335.65,312.38,335.52,312.38,335.4,312.38z"/>
	<path d="M337.89,323.04c-0.76,0-1.5-0.37-1.95-1.06c-0.7-1.08-0.39-2.51,0.68-3.21l6.45-4.19c1.08-0.7,2.51-0.39,3.21,0.68
		s0.39,2.51-0.68,3.21l-6.45,4.19C338.76,322.91,338.32,323.04,337.89,323.04z"/>
	<path d="M340.54,331.97c-0.67,0-1.35-0.29-1.8-0.86c-0.8-1-0.66-2.46,0.34-3.27l7-5.67c1-0.8,2.45-0.66,3.27,0.34
		c0.8,1,0.66,2.46-0.34,3.27l-7,5.67C341.57,331.8,341.06,331.97,340.54,331.97z"/>
	<path d="M347.4,291.6c-0.69,0-1.37-0.3-1.83-0.88l-5.18-6.57c-0.8-1.01-0.62-2.47,0.39-3.26s2.47-0.62,3.26,0.39l5.18,6.57
		c0.8,1.01,0.62,2.47-0.39,3.26C348.41,291.43,347.9,291.6,347.4,291.6z"/>
	<path d="M357.24,284.23c-1.11,0-2.09-0.8-2.28-1.93l-1.42-8.2c-0.22-1.26,0.63-2.47,1.89-2.69c1.26-0.22,2.47,0.63,2.69,1.89
		l1.42,8.2c0.22,1.26-0.63,2.47-1.89,2.69C357.51,284.21,357.38,284.23,357.24,284.23z"/>
</g>
<g>
	<g>
		<path class="st1" d="M313.57,548.68c0,0-12.69,19.83-1.03,21.99c11.66,2.16,15.31,2.48,19.66-9.51"/>
		<path d="M321.48,577.41c-2.93,0-6.21-0.54-9.97-1.23c-4-0.75-7.03-3.02-8.5-6.43c-3.59-8.29,3.56-20.53,5.83-24.09l9.43,6.04
			l-4.71-3.01l4.72,3.01c-3.13,4.91-5.53,11.35-5.06,13.39c0.08,0.03,0.19,0.06,0.34,0.08c3.71,0.69,7.92,1.47,9.5,0.85
			c1.1-0.44,2.41-2.71,3.88-6.77l10.53,3.82C333.37,574.35,328.46,577.41,321.48,577.41z"/>
	</g>
	<g>
		<path class="st1" d="M342.64,561.76c0,0-7.33,22.37,4.51,21.56c11.84-0.81,15.44-1.43,16.66-14.13"/>
		<path d="M346.54,588.92c-3.65,0-6.77-1.45-8.86-4.13c-5.55-7.13-1.69-20.77-0.37-24.78l10.64,3.49l-5.32-1.74l5.32,1.74
			c-1.8,5.53-2.53,12.37-1.55,14.23c0.08,0.01,0.2,0,0.35-0.01c3.77-0.26,8.04-0.56,9.41-1.56c0.96-0.7,1.65-3.23,2.06-7.52
			l11.15,1.06c-1.61,16.96-8.98,18.28-21.84,19.18C347.19,588.91,346.86,588.92,346.54,588.92z"/>
	</g>
	<g>
		<path class="st1" d="M437.64,561.1c0,0,6.95,22.49,16.13,14.98c9.18-7.51,11.78-10.1,5.43-21.15"/>
		<path d="M449.97,583.2c-1.02,0-2.03-0.15-3.04-0.46c-8.65-2.6-13.39-15.97-14.63-20.01l10.69-3.31
			c1.74,5.56,5.09,11.55,6.96,12.51c0.07-0.05,0.16-0.11,0.28-0.21c2.92-2.39,6.23-5.1,6.77-6.71c0.38-1.13-0.51-3.59-2.66-7.33
			l9.71-5.58c8.48,14.77,3.25,20.11-6.74,28.27C455.06,582.25,452.53,583.2,449.97,583.2z"/>
	</g>
	<g>
		<path class="st1" d="M469.37,549.9c0,0,6.95,22.49,16.13,14.98c9.18-7.51,11.78-10.1,5.43-21.15"/>
		<path d="M481.69,572c-1.02,0-2.03-0.15-3.04-0.46c-8.65-2.6-13.39-15.97-14.63-20.01l10.69-3.31c1.74,5.56,5.09,11.55,6.96,12.51
			c0.07-0.05,0.16-0.11,0.28-0.21c2.92-2.39,6.23-5.1,6.77-6.71c0.38-1.13-0.51-3.59-2.66-7.33l9.71-5.58
			c8.48,14.77,3.25,20.11-6.74,28.27C486.79,571.05,484.26,572,481.69,572z"/>
	</g>
	<g>
		<path class="st1" d="M517.84,468.19c-6.53-39.19-32.23-74.17-79.32-77.45c-63.15-4.4-139.97,16.8-151.17,74.65
			c-4.26,21.98,3.44,111.55,111.04,97.98C491.72,551.61,526.45,519.82,517.84,468.19z"/>
		<path d="M377.11,571.31c-30.69,0-54.86-9.25-72.05-27.6c-26.73-28.54-26.35-67.99-24.11-79.55c5.54-28.66,26.29-51.29,59.98-65.45
			c27.63-11.62,63.37-16.89,98.05-14.47c23.56,1.64,44.03,11.09,59.19,27.31c13.42,14.37,22.45,33.59,26.12,55.58l0,0
			c3.66,21.93-0.19,40.7-11.42,55.79c-18.04,24.21-55.2,39.57-113.65,46.95C391.51,570.83,384.13,571.31,377.11,571.31z
			 M422.02,396.71c-59.35,0-119.12,22.74-128.25,69.93c-2.3,11.92-0.26,45.62,20.83,68.15c18.1,19.33,46.03,26.78,82.99,22.12
			c54.72-6.91,89-20.57,104.8-41.79c9.15-12.3,12.1-27.29,9.01-45.85l0,0c-7.06-42.38-34.48-69.3-73.33-72.01
			C432.75,396.89,427.38,396.71,422.02,396.71z"/>
	</g>
	<g>
		<path class="st2" d="M466.21,460.95c-8.27,1.06-28.14,8.16-19.7,30.41c8.44,22.25,24.72,21.51,36.77,16.15s25.6-16.61,22.85-28.2
			C501.19,458.4,477.8,459.45,466.21,460.95z"/>
		<path d="M469.84,516.26c-3.75,0-7.33-0.69-10.64-2.07c-7.9-3.29-13.94-10.31-17.93-20.84c-3.5-9.22-3.22-17.32,0.84-24.08
			c5.21-8.68,15.84-12.9,23.38-13.87l0,0c34.39-4.43,43.63,12.27,46.09,22.63c3.42,14.41-10.61,27.76-26.03,34.61
			C480.13,515.05,474.83,516.26,469.84,516.26z M466.92,466.5c-4.07,0.52-11.84,2.91-15.21,8.52c-2.2,3.68-2.19,8.5,0.03,14.35
			c2.86,7.54,6.82,12.41,11.78,14.47c6.07,2.53,12.86,0.61,17.5-1.46c10.9-4.84,21.49-14.12,19.67-21.79
			C497.87,468.72,486.51,463.98,466.92,466.5L466.92,466.5z"/>
	</g>
	<g>
		<line class="st3" x1="468.89" y1="479.98" x2="469.02" y2="490.03"/>
		<path d="M469.02,496.56c-3.56,0-6.49-2.86-6.53-6.45l-0.13-10.05c-0.05-3.61,2.84-6.57,6.45-6.62c0.03,0,0.06,0,0.08,0
			c3.56,0,6.49,2.86,6.53,6.45l0.13,10.05c0.05,3.61-2.84,6.57-6.45,6.62C469.08,496.56,469.05,496.56,469.02,496.56z"/>
	</g>
	<g>
		<line class="st3" x1="484.97" y1="477.16" x2="485.1" y2="487.21"/>
		<path d="M485.1,491.41c-2.3,0-4.17-1.85-4.2-4.14l-0.13-10.05c-0.03-2.32,1.83-4.23,4.14-4.26c0.02,0,0.04,0,0.06,0
			c2.3,0,4.17,1.85,4.2,4.14l0.13,10.05c0.03,2.32-1.83,4.23-4.14,4.26C485.14,491.41,485.12,491.41,485.1,491.41z"/>
	</g>
	<path d="M435.08,452.32c-8.13,0-13.64-5.57-15.67-9.14c-1.02-1.79-0.39-4.07,1.4-5.09c1.78-1.02,4.05-0.4,5.08,1.38
		c0.46,0.77,4.6,7.31,12.73,4.82c8.58-2.61,9.78-6.3,9.8-6.34c-0.04,0.13-0.05,0.21-0.05,0.21l7.35,1.28
		c-0.14,0.8-1.74,7.99-14.93,12C438.78,452.06,436.87,452.32,435.08,452.32z"/>
	<path d="M480.52,447.51c-7.35,0-11.15-5.66-12.15-8.83c-0.47-1.47,0.35-3.05,1.82-3.52c1.47-0.47,3.03,0.35,3.51,1.8
		c0.2,0.57,1.98,5.4,7.62,4.91c5.37-0.46,6.03-4,6.11-4.7c0.17-1.52,1.54-2.63,3.05-2.5c1.52,0.15,2.65,1.47,2.53,2.99
		c-0.24,3.07-2.9,9.08-11.21,9.8C481.36,447.5,480.93,447.51,480.52,447.51z"/>
	<g>
		<path class="st0" d="M337.55,425.89c0,0,32.35-14.73,56.38-11.36"/>
		<path d="M337.55,432.43c-2.48,0-4.85-1.42-5.95-3.83c-1.49-3.28-0.05-7.16,3.24-8.65c1.39-0.63,34.37-15.48,59.99-11.88
			c3.57,0.5,6.07,3.81,5.56,7.38s-3.81,6.07-7.38,5.56c-21.82-3.07-52.45,10.69-52.76,10.83
			C339.38,432.23,338.46,432.43,337.55,432.43z"/>
	</g>
	<path d="M286.15,494.78c-0.42,0-0.84-0.06-1.27-0.18c-0.17-0.05-17.03-4.69-30.66-2.47c-2.89,0.48-10.59,1.73-12.86-3.91
		c-1.32-3.28,0.41-6.7,2.73-9.48c-2.2,0.53-4.93,1.3-8.28,2.39c-5.65,1.85-10,1.36-12.95-1.44c-3.39-3.22-4-8.58-1.88-16.4
		c1.26-4.66,3.19-9.07,4.24-11.28c2.78-5.92,3.93-7.07,5.97-7.56c2.51-0.59,5.02,0.96,5.61,3.47c0.38,1.61-0.13,3.23-1.2,4.33
		c-2.52,3.75-7.9,17.48-6.32,20.61c0.33,0.06,1.39,0.14,3.65-0.6c20.05-6.56,24.53-3.86,26.27-0.35c1.15,2.32,0.87,5.85-3.39,8.78
		c-0.91,0.63-1.85,1.39-2.68,2.16c15.62-2.42,33.53,2.55,34.29,2.76c2.48,0.7,3.93,3.28,3.23,5.76
		C290.06,493.43,288.2,494.78,286.15,494.78z M233.34,453.54L233.34,453.54L233.34,453.54z M233.35,453.53L233.35,453.53
		L233.35,453.53z M233.36,453.53L233.36,453.53L233.36,453.53z"/>
</g>
<g>
	<g>
		<circle class="st0" cx="335.87" cy="350.52" r="34.82"/>
		<path d="M335.87,390.76c-22.19,0-40.24-18.05-40.24-40.24c0-22.19,18.05-40.24,40.24-40.24s40.24,18.05,40.24,40.24
			C376.11,372.71,358.06,390.76,335.87,390.76z M335.87,321.11c-16.21,0-29.41,13.19-29.41,29.41c0,16.21,13.19,29.41,29.41,29.41
			c16.21,0,29.41-13.19,29.41-29.41C365.28,334.31,352.08,321.11,335.87,321.11z"/>
	</g>
	<path d="M336.86,365.39c-1.9,0-3.74-0.6-5.29-1.75c-1.87-1.39-3.25-3.53-3.78-5.87c-0.28-1.25,0.51-2.49,1.76-2.77
		c1.25-0.27,2.49,0.51,2.77,1.76c0.29,1.28,1.01,2.42,2,3.16c0.72,0.53,1.93,1.09,3.6,0.72c5.26-1.18,4.58-4.23,4.36-5.22
		c-0.39-1.75-2.74-2.14-6.56-2.57c-4.12-0.46-9.26-1.04-10.38-6c-0.46-2.05-0.29-3.99,0.5-5.63c1.18-2.44,3.59-4.08,7.16-4.88
		c3.33-0.74,5.54,0.19,6.82,1.1c2.99,2.14,3.48,5.87,3.52,6.29c0.14,1.28-0.78,2.42-2.06,2.56c-1.28,0.13-2.41-0.77-2.56-2.04
		c-0.08-0.58-0.51-2.27-1.63-3.05c-0.74-0.53-1.76-0.63-3.09-0.33c-2.12,0.47-3.47,1.27-4,2.37c-0.33,0.69-0.39,1.56-0.15,2.58
		c0.36,1.62,2.65,1.99,6.36,2.4c4.2,0.47,9.43,1.06,10.58,6.17c1.18,5.29-1.83,9.42-7.87,10.77
		C338.25,365.31,337.55,365.39,336.86,365.39z"/>
	<path d="M339.79,368.12c-1.06,0-2.02-0.74-2.26-1.81l-6.86-30.6c-0.28-1.25,0.5-2.49,1.76-2.77c1.25-0.28,2.49,0.5,2.77,1.76
		l6.86,30.6c0.28,1.25-0.5,2.49-1.76,2.77C340.14,368.1,339.97,368.12,339.79,368.12z"/>
	<path d="M345.51,387.69c-1.01,0-1.93-0.67-2.23-1.68l-2.69-9.31c-0.36-1.23,0.36-2.51,1.59-2.87s2.51,0.36,2.87,1.59l2.69,9.31
		c0.36,1.23-0.36,2.51-1.59,2.87C345.95,387.66,345.73,387.69,345.51,387.69z"/>
	<path d="M354.61,382.19c-0.8,0-1.59-0.43-2.02-1.18l-4.81-8.46c-0.63-1.11-0.25-2.53,0.87-3.17c1.11-0.63,2.53-0.24,3.17,0.87
		l4.81,8.46c0.63,1.11,0.25,2.53-0.87,3.17C355.4,382.09,355,382.19,354.61,382.19z"/>
	<path d="M362.66,375.08c-0.55,0-1.11-0.19-1.55-0.6l-6.68-5.99c-0.95-0.86-1.04-2.32-0.18-3.28c0.86-0.95,2.32-1.04,3.28-0.18
		l6.68,5.99c0.95,0.86,1.04,2.32,0.18,3.28C363.93,374.82,363.3,375.08,362.66,375.08z"/>
	<path d="M368.06,366.14c-0.47,0-0.94-0.14-1.35-0.43l-6.66-4.78c-1.04-0.75-1.28-2.2-0.53-3.24c0.75-1.04,2.2-1.28,3.24-0.53
		l6.66,4.78c1.04,0.75,1.28,2.2,0.53,3.24C369.49,365.79,368.78,366.14,368.06,366.14z"/>
	<path d="M370.69,352.84C370.69,352.84,370.69,352.84,370.69,352.84l-7.41-0.02c-1.28,0-2.32-1.04-2.31-2.33
		c0-1.28,1.04-2.31,2.32-2.31h0.01l7.41,0.02c1.28,0,2.32,1.04,2.31,2.33C373.01,351.8,371.97,352.84,370.69,352.84z"/>
	<path d="M359.33,342.4c-1.01,0-1.94-0.67-2.24-1.69c-0.35-1.23,0.37-2.52,1.6-2.86l8.88-2.5c1.23-0.35,2.51,0.37,2.86,1.6
		s-0.37,2.51-1.6,2.86l-8.88,2.5C359.74,342.37,359.54,342.4,359.33,342.4z"/>
	<path d="M354.61,335.56c-0.56,0-1.12-0.2-1.57-0.61c-0.94-0.87-1.01-2.34-0.14-3.28l6.33-6.89c0.87-0.94,2.34-1.01,3.28-0.14
		s1.01,2.34,0.14,3.28l-6.33,6.89C355.86,335.31,355.23,335.56,354.61,335.56z"/>
	<path d="M347.48,328.85c-0.17,0-0.34-0.02-0.52-0.05c-1.25-0.29-2.04-1.52-1.75-2.78l1.85-8.13c0.29-1.25,1.52-2.04,2.78-1.75
		c1.25,0.29,2.04,1.52,1.75,2.78l-1.85,8.13C349.5,328.12,348.54,328.85,347.48,328.85z"/>
	<path d="M338.19,327.3c-0.15,0-0.31-0.02-0.47-0.05c-1.25-0.26-2.07-1.49-1.8-2.74l1.61-7.82c0.26-1.25,1.49-2.07,2.74-1.8
		c1.25,0.26,2.07,1.49,1.8,2.74l-1.61,7.82C340.24,326.55,339.27,327.3,338.19,327.3z"/>
	<path d="M328.9,328.08c-1.07,0-2.04-0.74-2.27-1.83l-1.83-8.59c-0.27-1.25,0.53-2.48,1.79-2.75c1.25-0.27,2.48,0.53,2.75,1.79
		l1.83,8.59c0.27,1.25-0.53,2.48-1.79,2.75C329.22,328.06,329.06,328.08,328.9,328.08z"/>
	<path d="M304.14,364.45c-0.89,0-1.74-0.52-2.13-1.39c-0.52-1.18,0.02-2.55,1.19-3.06l7.03-3.1c1.18-0.52,2.55,0.02,3.06,1.19
		c0.52,1.18-0.02,2.55-1.19,3.06l-7.03,3.1C304.77,364.39,304.45,364.45,304.14,364.45z"/>
	<path d="M310.33,372.96c-0.64,0-1.29-0.27-1.75-0.79c-0.84-0.97-0.74-2.43,0.22-3.27l6.19-5.42c0.97-0.84,2.43-0.74,3.27,0.22
		s0.74,2.43-0.22,3.27l-6.19,5.42C311.42,372.77,310.88,372.96,310.33,372.96z"/>
	<path d="M318.07,380.7c-0.33,0-0.67-0.07-0.98-0.22c-1.16-0.54-1.66-1.93-1.11-3.09l3.27-6.96c0.54-1.16,1.93-1.66,3.09-1.11
		c1.16,0.54,1.66,1.93,1.11,3.09l-3.27,6.96C319.78,380.2,318.94,380.7,318.07,380.7z"/>
	<path d="M325.04,386.89c-0.26,0-0.51-0.04-0.76-0.13c-1.21-0.42-1.85-1.74-1.43-2.96l2.95-8.51c0.42-1.21,1.74-1.85,2.96-1.43
		c1.21,0.42,1.85,1.74,1.43,2.96l-2.95,8.51C326.89,386.29,326,386.89,325.04,386.89z"/>
	<path d="M309.56,348.97c-0.26,0-0.53-0.05-0.79-0.14l-7.86-2.85c-1.21-0.43-1.83-1.77-1.39-2.97c0.44-1.21,1.77-1.83,2.97-1.39
		l7.86,2.85c1.21,0.43,1.83,1.77,1.39,2.97C311.39,348.38,310.5,348.97,309.56,348.97z"/>
	<path d="M314.04,337.52c-0.64,0-1.28-0.26-1.73-0.77l-5.53-6.21c-0.85-0.96-0.77-2.42,0.19-3.28c0.96-0.85,2.42-0.77,3.28,0.19
		l5.53,6.21c0.85,0.96,0.77,2.42-0.19,3.28C315.14,337.32,314.59,337.52,314.04,337.52z"/>
</g>
<g>
	<g>
		<circle class="st0" cx="718.88" cy="102.63" r="34.82"/>
		<path d="M680.22,113.81c-1.03-3.55-1.58-7.31-1.58-11.19c0.01-22.19,18.07-40.23,40.26-40.23c10.75,0,20.86,4.19,28.45,11.8
			c7.59,7.61,11.78,17.71,11.77,28.46c-0.01,22.19-18.07,40.23-40.26,40.23l0,0C700.56,142.86,685.08,130.57,680.22,113.81z
			 M747.13,94.46c-3.55-12.25-14.87-21.23-28.24-21.23c-16.21-0.01-29.41,13.18-29.42,29.4c0,16.22,13.18,29.41,29.4,29.42
			s29.41-13.18,29.42-29.4C748.29,99.8,747.88,97.05,747.13,94.46z"/>
	</g>
	<path d="M704.48,106.65c-0.09-0.31-0.17-0.63-0.24-0.95c-1.27-5.66,2.77-10.11,7.39-11.15c1.25-0.28,2.49,0.52,2.77,1.76
		c0.28,1.25-0.51,2.49-1.76,2.77c-2.37,0.53-4.53,2.67-3.87,5.6c0.38,1.72,1.05,3.01,1.93,3.76c0.84,0.71,1.91,0.9,3.29,0.59
		c1.75-0.4,2.14-2.74,2.57-6.56c0.46-4.13,1.04-9.26,6-10.38c2.05-0.46,3.99-0.29,5.62,0.51c2.44,1.18,4.08,3.59,4.88,7.16
		c0.75,3.33-0.19,5.54-1.1,6.82c-2.14,2.99-5.87,3.47-6.29,3.52c-1.27,0.14-2.43-0.78-2.56-2.05c-0.14-1.27,0.77-2.42,2.04-2.56
		c0.58-0.07,2.26-0.51,3.05-1.62c0.53-0.74,0.63-1.75,0.33-3.08c-0.48-2.12-1.27-3.47-2.37-4c-0.68-0.33-1.55-0.39-2.58-0.15
		c-1.61,0.36-1.99,2.65-2.4,6.36c-0.48,4.2-1.06,9.43-6.17,10.57c-3.55,0.79-5.92-0.42-7.3-1.58
		C706.25,110.76,705.14,108.92,704.48,106.65z"/>
	<path d="M701.37,107.2c-0.01-0.04-0.03-0.09-0.03-0.14c-0.28-1.25,0.51-2.49,1.76-2.77l30.6-6.85c1.25-0.28,2.49,0.5,2.77,1.76
		c0.28,1.25-0.51,2.49-1.76,2.77l-30.6,6.85C702.9,109.09,701.71,108.36,701.37,107.2z"/>
	<path d="M681.8,112.91L681.8,112.91c-0.36-1.23,0.36-2.52,1.59-2.88l9.31-2.68c1.23-0.36,2.51,0.36,2.87,1.59l0,0
		c0.36,1.23-0.36,2.52-1.59,2.88l-9.31,2.68C683.44,114.85,682.15,114.13,681.8,112.91z"/>
	<path d="M687.29,122c-0.29-1.01,0.14-2.12,1.08-2.67l8.46-4.81c1.11-0.63,2.53-0.24,3.17,0.87c0.64,1.11,0.24,2.53-0.87,3.17
		l-8.46,4.81c-1.11,0.63-2.53,0.24-3.17-0.87C687.4,122.34,687.34,122.17,687.29,122z"/>
	<path d="M694.4,130.06c-0.22-0.74-0.05-1.58,0.5-2.2l5.99-6.67c0.86-0.96,2.33-1.04,3.28-0.18c0.95,0.85,1.04,2.33,0.18,3.28
		l-5.99,6.67c-0.86,0.96-2.33,1.04-3.28,0.18C694.74,130.84,694.51,130.47,694.4,130.06z"/>
	<path d="M703.35,135.46c-0.19-0.66-0.09-1.4,0.35-2l4.78-6.65c0.75-1.04,2.2-1.28,3.24-0.53c1.04,0.75,1.28,2.2,0.53,3.24
		l-4.78,6.65c-0.75,1.04-2.2,1.28-3.24,0.53C703.78,136.38,703.49,135.94,703.35,135.46z"/>
	<path d="M716.64,138.1c-0.06-0.21-0.09-0.42-0.09-0.66l0.02-7.4c0.01-1.28,1.04-2.32,2.33-2.31s2.32,1.04,2.31,2.33l-0.02,7.4
		c-0.01,1.28-1.04,2.32-2.33,2.31C717.81,139.76,716.92,139.06,716.64,138.1z"/>
	<path d="M729.58,135.61c0-0.01,0-0.01,0-0.01l-2.5-8.88c-0.35-1.24,0.37-2.52,1.6-2.87c1.23-0.35,2.51,0.36,2.86,1.59
		c0,0.01,0,0.01,0,0.01l2.5,8.88c0.35,1.24-0.37,2.52-1.6,2.87C731.21,137.55,729.94,136.84,729.58,135.61z"/>
	<path d="M733.92,122.02c-0.22-0.75-0.05-1.6,0.52-2.22c0.87-0.94,2.33-1.01,3.28-0.14l6.88,6.33c0.94,0.87,1.01,2.33,0.14,3.28
		c-0.87,0.94-2.33,1.01-3.28,0.14l-6.88-6.33C734.25,122.78,734.03,122.41,733.92,122.02z"/>
	<path d="M740.63,114.89c-0.11-0.36-0.12-0.76-0.03-1.16c0.28-1.25,1.53-2.03,2.78-1.75l8.13,1.85c1.25,0.28,2.03,1.53,1.75,2.78
		c-0.28,1.25-1.53,2.03-2.78,1.75l-8.13-1.85C741.5,116.31,740.86,115.67,740.63,114.89z"/>
	<path d="M742.18,105.6c-0.1-0.35-0.12-0.73-0.04-1.12c0.26-1.26,1.49-2.07,2.74-1.8l7.81,1.61c1.25,0.26,2.07,1.49,1.8,2.74
		c-0.26,1.26-1.49,2.07-2.74,1.8l-7.81-1.61C743.07,107.05,742.42,106.4,742.18,105.6z"/>
	<path d="M741.41,96.32c-0.02-0.05-0.03-0.1-0.04-0.17c-0.27-1.25,0.53-2.49,1.79-2.76l8.6-1.84c1.25-0.27,2.49,0.53,2.76,1.79
		c0.27,1.25-0.53,2.49-1.79,2.76l-8.6,1.84C742.93,98.2,741.75,97.48,741.41,96.32z"/>
	<path d="M705.05,71.54c-0.32-1.1,0.22-2.3,1.29-2.77c1.17-0.52,2.54,0.02,3.06,1.19l3.09,7.03c0.52,1.17-0.02,2.54-1.19,3.06
		s-2.54-0.02-3.06-1.19l-3.09-7.03C705.12,71.74,705.08,71.63,705.05,71.54z"/>
	<path d="M696.54,77.73c-0.24-0.84,0-1.78,0.7-2.39c0.96-0.84,2.43-0.75,3.28,0.22l5.41,6.19c0.84,0.96,0.75,2.43-0.22,3.28
		s-2.43,0.75-3.28-0.22l-5.41-6.2C696.79,78.34,696.63,78.04,696.54,77.73z"/>
	<path d="M688.8,85.46c-0.15-0.52-0.12-1.1,0.13-1.63c0.54-1.16,1.93-1.66,3.09-1.11l6.96,3.27c1.16,0.54,1.66,1.93,1.11,3.09
		c-0.54,1.16-1.93,1.66-3.09,1.11l-6.96-3.27C689.41,86.62,688.98,86.08,688.8,85.46z"/>
	<path d="M682.61,92.42c-0.13-0.45-0.12-0.93,0.04-1.4c0.42-1.21,1.74-1.85,2.95-1.43l8.51,2.96c1.21,0.42,1.85,1.74,1.44,2.95
		c-0.42,1.21-1.74,1.85-2.95,1.43l-8.51-2.96C683.34,93.71,682.81,93.13,682.61,92.42z"/>
	<path d="M720.53,76.96c-0.13-0.45-0.12-0.96,0.05-1.43l2.86-7.86c0.44-1.21,1.77-1.83,2.97-1.39c1.2,0.43,1.83,1.77,1.39,2.97
		l-2.86,7.86c-0.44,1.21-1.77,1.83-2.97,1.39C721.24,78.24,720.73,77.65,720.53,76.96z"/>
	<path d="M731.98,81.45c-0.24-0.83,0-1.76,0.69-2.38l6.22-5.53c0.96-0.85,2.43-0.77,3.28,0.19c0.85,0.96,0.77,2.43-0.19,3.28
		l-6.22,5.53c-0.96,0.85-2.43,0.77-3.28-0.19C732.24,82.08,732.07,81.77,731.98,81.45z"/>
</g>
<g>
	<g>
		<circle class="st0" cx="595.44" cy="248.09" r="34.82"/>
		<path d="M572.76,281.33c-3.06-2.08-5.87-4.63-8.35-7.62c-14.12-17.12-11.69-42.52,5.42-56.65c8.29-6.84,18.75-10.05,29.45-9.02
			c10.7,1.03,20.36,6.16,27.2,14.45c14.12,17.12,11.69,42.52-5.42,56.65l0,0C606.94,290.77,587.18,291.16,572.76,281.33z
			 M612.03,223.8c-10.54-7.19-24.98-6.9-35.3,1.61c-12.51,10.32-14.28,28.89-3.96,41.4c10.33,12.5,28.89,14.28,41.4,3.96
			c12.51-10.32,14.28-28.89,3.96-41.4C616.32,227.19,614.26,225.32,612.03,223.8z"/>
	</g>
	<path d="M586.91,260.36c-0.27-0.18-0.53-0.37-0.79-0.58c-4.58-3.56-4.3-9.56-1.4-13.3c0.78-1.01,2.25-1.19,3.26-0.41
		c1.01,0.78,1.19,2.25,0.41,3.26c-1.49,1.92-1.79,4.94,0.58,6.78c1.39,1.08,2.73,1.66,3.88,1.67c1.1,0.01,2.05-0.52,2.91-1.64
		c1.1-1.42-0.09-3.47-2.2-6.7c-2.27-3.48-5.1-7.8-1.98-11.82c1.29-1.66,2.9-2.76,4.66-3.19c2.63-0.64,5.43,0.17,8.32,2.41
		c2.7,2.09,3.38,4.39,3.49,5.96c0.25,3.67-2.32,6.42-2.61,6.73c-0.9,0.92-2.37,0.94-3.28,0.05c-0.92-0.89-0.94-2.36-0.06-3.27
		c0.4-0.43,1.42-1.83,1.32-3.19c-0.07-0.91-0.63-1.75-1.71-2.59c-1.72-1.33-3.19-1.86-4.37-1.57c-0.74,0.18-1.45,0.69-2.09,1.53
		c-1.01,1.31,0.15,3.31,2.2,6.43c2.31,3.54,5.18,7.95,1.97,12.08c-2.23,2.87-4.83,3.45-6.63,3.43
		C590.88,262.4,588.87,261.69,586.91,260.36z"/>
	<path d="M584.86,262.76c-0.04-0.03-0.08-0.05-0.12-0.09c-1.01-0.78-1.19-2.25-0.41-3.26l19.23-24.77c0.78-1.01,2.24-1.2,3.26-0.41
		c1.01,0.78,1.19,2.25,0.41,3.26L588,262.26C587.25,263.25,585.86,263.45,584.86,262.76z"/>
	<path d="M573.4,279.63L573.4,279.63c-1.06-0.72-1.33-2.17-0.61-3.23l5.47-8c0.72-1.05,2.17-1.32,3.22-0.6l0,0
		c1.06,0.72,1.33,2.17,0.61,3.23l-5.47,8C575.9,280.08,574.46,280.35,573.4,279.63z"/>
	<path d="M583.43,283.14c-0.87-0.59-1.24-1.72-0.86-2.74l3.46-9.1c0.46-1.2,1.8-1.8,3-1.35s1.8,1.8,1.35,3l-3.46,9.1
		c-0.46,1.19-1.8,1.8-3,1.35C583.73,283.33,583.58,283.24,583.43,283.14z"/>
	<path d="M594.04,284.83c-0.64-0.44-1.05-1.18-1.02-2.01l0.37-8.96c0.05-1.29,1.13-2.28,2.41-2.22c1.27,0.05,2.28,1.13,2.22,2.41
		l-0.37,8.96c-0.05,1.29-1.13,2.28-2.41,2.22C594.8,285.21,594.39,285.07,594.04,284.83z"/>
	<path d="M604.38,283.3c-0.57-0.39-0.96-1.02-1.01-1.76l-0.55-8.18c-0.09-1.28,0.88-2.39,2.16-2.47c1.28-0.09,2.39,0.88,2.47,2.16
		l0.55,8.18c0.09,1.28-0.88,2.39-2.16,2.47C605.3,283.73,604.79,283.58,604.38,283.3z"/>
	<path d="M616.31,276.86c-0.18-0.12-0.34-0.27-0.49-0.45l-4.7-5.72c-0.81-0.99-0.67-2.45,0.32-3.26c0.99-0.81,2.45-0.67,3.26,0.32
		l4.7,5.72c0.81,0.99,0.67,2.45-0.32,3.26C618.27,277.41,617.14,277.43,616.31,276.86z"/>
	<path d="M624.7,266.71c-0.01,0-0.01,0-0.01-0.01l-7.58-5.25c-1.06-0.73-1.31-2.18-0.59-3.23c0.73-1.05,2.16-1.32,3.22-0.6
		c0.01,0,0.01,0,0.01,0.01l7.58,5.25c1.06,0.73,1.31,2.18,0.59,3.23C627.2,267.16,625.76,267.42,624.7,266.71z"/>
	<path d="M619.39,253.46c-0.65-0.44-1.06-1.2-1.02-2.04c0.07-1.28,1.16-2.26,2.44-2.19l9.34,0.5c1.28,0.07,2.26,1.16,2.19,2.44
		c-0.07,1.28-1.16,2.26-2.44,2.19l-9.34-0.5C620.14,253.84,619.73,253.7,619.39,253.46z"/>
	<path d="M620.03,243.69c-0.31-0.21-0.58-0.51-0.76-0.88c-0.58-1.14-0.11-2.54,1.03-3.12l7.45-3.75c1.14-0.58,2.54-0.11,3.12,1.03
		c0.58,1.14,0.11,2.54-1.03,3.12l-7.45,3.75C621.6,244.24,620.71,244.15,620.03,243.69z"/>
	<path d="M615.31,235.54c-0.3-0.2-0.56-0.48-0.74-0.83c-0.6-1.13-0.17-2.54,0.97-3.13l7.05-3.73c1.13-0.6,2.54-0.17,3.13,0.97
		c0.6,1.13,0.17,2.54-0.97,3.13l-7.05,3.73C616.92,236.1,616,236.01,615.31,235.54z"/>
	<path d="M608.8,228.88c-0.04-0.03-0.09-0.06-0.14-0.1c-1-0.8-1.18-2.26-0.38-3.26l5.46-6.89c0.8-1,2.26-1.18,3.26-0.38
		c1,0.8,1.18,2.26,0.38,3.26l-5.46,6.89C611.17,229.36,609.8,229.56,608.8,228.88z"/>
	<path d="M564.99,232.92c-0.95-0.65-1.29-1.91-0.77-2.96c0.57-1.14,1.97-1.6,3.12-1.03l6.86,3.45c1.14,0.57,1.6,1.97,1.03,3.12
		c-0.57,1.14-1.97,1.6-3.12,1.03l-6.86-3.45C565.17,233.03,565.07,232.98,564.99,232.92z"/>
	<path d="M562.37,243.12c-0.72-0.49-1.13-1.37-0.98-2.29c0.21-1.26,1.4-2.13,2.67-1.92l8.11,1.33c1.26,0.21,2.13,1.4,1.92,2.67
		c-0.21,1.26-1.4,2.13-2.67,1.92l-8.12-1.33C562.95,243.43,562.64,243.3,562.37,243.12z"/>
	<path d="M561.32,254.01c-0.45-0.31-0.79-0.77-0.94-1.34c-0.32-1.24,0.43-2.51,1.67-2.82l7.45-1.92c1.24-0.32,2.51,0.43,2.82,1.67
		c0.32,1.24-0.43,2.51-1.67,2.82l-7.45,1.92C562.53,254.52,561.85,254.37,561.32,254.01z"/>
	<path d="M560.98,263.32c-0.38-0.26-0.69-0.64-0.87-1.11c-0.44-1.2,0.17-2.54,1.37-2.98l8.44-3.14c1.2-0.44,2.54,0.17,2.99,1.36
		c0.44,1.2-0.17,2.54-1.37,2.98l-8.44,3.14C562.37,263.85,561.59,263.73,560.98,263.32z"/>
	<path d="M580.38,227.25c-0.39-0.27-0.7-0.66-0.87-1.14l-2.8-7.88c-0.43-1.21,0.2-2.53,1.4-2.97c1.2-0.43,2.53,0.2,2.97,1.4
		l2.8,7.88c0.43,1.21-0.2,2.53-1.4,2.97C581.74,227.78,580.97,227.65,580.38,227.25z"/>
	<path d="M592.07,223.42c-0.72-0.49-1.13-1.36-0.99-2.27l1.27-8.23c0.2-1.27,1.38-2.14,2.65-1.94c1.27,0.2,2.14,1.38,1.94,2.65
		l-1.27,8.23c-0.2,1.27-1.38,2.14-2.65,1.94C592.66,223.74,592.34,223.61,592.07,223.42z"/>
</g>
<g>
	<g>
		<circle class="st0" cx="206.8" cy="204.42" r="34.82"/>
		<path d="M206.72,244.67c-7.58,0-15.01-2.15-21.56-6.32c-9.06-5.78-15.33-14.74-17.65-25.24c-2.32-10.49-0.42-21.27,5.36-30.33
			c5.78-9.06,14.74-15.33,25.24-17.65c10.49-2.32,21.27-0.42,30.33,5.36c9.06,5.78,15.33,14.74,17.65,25.24s0.42,21.27-5.36,30.33
			c-5.78,9.06-14.74,15.33-25.24,17.65C212.58,244.36,209.64,244.67,206.72,244.67z M206.86,175c-2.13,0-4.28,0.23-6.41,0.7
			c-7.67,1.69-14.22,6.28-18.44,12.9c-4.23,6.62-5.61,14.49-3.92,22.16s6.28,14.22,12.9,18.44c6.62,4.23,14.49,5.61,22.16,3.92
			c7.67-1.69,14.22-6.28,18.44-12.9c4.23-6.62,5.61-14.49,3.92-22.16c-1.69-7.67-6.28-14.22-12.9-18.44
			C217.83,176.58,212.39,175,206.86,175z"/>
	</g>
	<path d="M209.05,218.94c-1.23,0-2.45-0.26-3.61-0.77c-2.13-0.94-3.93-2.74-4.95-4.92c-0.54-1.16-0.05-2.55,1.11-3.09
		c1.16-0.54,2.55-0.05,3.09,1.11c0.56,1.18,1.52,2.15,2.64,2.65c0.82,0.36,2.12,0.65,3.67-0.08c4.88-2.29,3.56-5.11,3.13-6.04
		c-0.76-1.63-3.14-1.49-6.96-1.09c-4.13,0.44-9.27,0.98-11.43-3.61c-0.89-1.9-1.14-3.84-0.72-5.6c0.63-2.63,2.62-4.76,5.94-6.31
		c3.09-1.45,5.46-1.01,6.89-0.4c3.38,1.44,4.67,4.98,4.8,5.39c0.41,1.21-0.24,2.53-1.45,2.94c-1.21,0.41-2.52-0.23-2.94-1.44
		c-0.2-0.56-0.98-2.1-2.24-2.62c-0.84-0.35-1.85-0.24-3.09,0.34c-1.97,0.92-3.11,1.99-3.39,3.18c-0.18,0.74-0.04,1.6,0.41,2.55
		c0.7,1.5,3.01,1.37,6.73,0.97c4.2-0.45,9.43-1.01,11.65,3.74c2.3,4.91,0.25,9.59-5.35,12.21
		C211.7,218.64,210.37,218.94,209.05,218.94z"/>
	<path d="M213.94,220.81c-0.87,0-1.71-0.5-2.1-1.34l-13.31-28.39c-0.54-1.16-0.05-2.55,1.11-3.09c1.16-0.54,2.55-0.05,3.09,1.11
		l13.31,28.39c0.54,1.16,0.05,2.55-1.11,3.09C214.61,220.74,214.27,220.81,213.94,220.81z"/>
	<path d="M223.75,238.68c-0.82,0-1.62-0.44-2.04-1.21l-4.63-8.51c-0.61-1.13-0.19-2.54,0.93-3.15c1.12-0.61,2.54-0.19,3.15,0.93
		l4.63,8.51c0.61,1.13,0.19,2.54-0.93,3.15C224.51,238.59,224.13,238.68,223.75,238.68z"/>
	<path d="M231.44,231.36c-0.63,0-1.26-0.26-1.73-0.77l-6.52-7.22c-0.86-0.95-0.78-2.42,0.16-3.28c0.95-0.86,2.42-0.79,3.28,0.16
		l6.52,7.22c0.86,0.95,0.78,2.42-0.16,3.28C232.55,231.15,232,231.36,231.44,231.36z"/>
	<path d="M237.77,222.67c-0.39,0-0.77-0.09-1.14-0.3l-7.82-4.4c-1.11-0.63-1.51-2.04-0.88-3.17c0.63-1.11,2.04-1.51,3.17-0.88
		l7.82,4.4c1.11,0.63,1.51,2.04,0.88,3.17C239.36,222.24,238.58,222.67,237.77,222.67z"/>
	<path d="M241.1,212.77c-0.3,0-0.62-0.06-0.91-0.19l-7.53-3.23c-1.18-0.5-1.73-1.87-1.21-3.05c0.5-1.18,1.87-1.73,3.05-1.22
		l7.53,3.23c1.18,0.5,1.73,1.87,1.21,3.05C242.86,212.24,242,212.77,241.1,212.77z"/>
	<path d="M233.57,200.8c-1.07,0-2.03-0.74-2.27-1.83c-0.27-1.25,0.52-2.49,1.77-2.76l7.24-1.58c1.25-0.27,2.49,0.52,2.76,1.77
		c0.27,1.25-0.52,2.49-1.77,2.76l-7.24,1.58C233.9,200.78,233.73,200.8,233.57,200.8z"/>
	<path d="M227.45,191.48c-0.83,0-1.63-0.44-2.05-1.22c-0.6-1.13-0.18-2.54,0.95-3.14l8.13-4.36c1.13-0.6,2.54-0.18,3.14,0.95
		c0.6,1.13,0.18,2.54-0.95,3.14l-8.13,4.36C228.2,191.39,227.83,191.48,227.45,191.48z"/>
	<path d="M221.36,185.82c-0.39,0-0.8-0.1-1.16-0.32c-1.11-0.64-1.49-2.07-0.84-3.17l4.69-8.09c0.64-1.11,2.07-1.49,3.17-0.84
		c1.11,0.64,1.49,2.07,0.84,3.17l-4.69,8.09C222.94,185.4,222.17,185.82,221.36,185.82z"/>
	<path d="M212.95,180.81c0,0-0.01,0-0.02,0c-1.28-0.01-2.31-1.05-2.31-2.34l0.05-8.34c0.01-1.28,1.04-2.31,2.32-2.31
		c0,0,0.01,0,0.02,0c1.28,0.01,2.31,1.05,2.31,2.34l-0.05,8.34C215.27,179.78,214.23,180.81,212.95,180.81z"/>
	<path d="M203.55,181.3c-1.27,0-2.3-1.01-2.32-2.29l-0.12-7.99c-0.02-1.28,1.01-2.34,2.29-2.35c1.29-0.04,2.34,1.01,2.35,2.29
		l0.12,7.99c0.02,1.28-1.01,2.34-2.29,2.35C203.57,181.3,203.57,181.3,203.55,181.3z"/>
	<path d="M194.66,184.07c-0.88,0-1.73-0.5-2.11-1.35l-3.65-7.99c-0.53-1.17-0.02-2.55,1.15-3.08c1.17-0.53,2.55-0.02,3.08,1.15
		l3.65,7.99c0.53,1.17,0.02,2.55-1.15,3.08C195.31,184,194.98,184.07,194.66,184.07z"/>
	<path d="M178.33,224.92c-0.71,0-1.42-0.33-1.87-0.95c-0.76-1.04-0.53-2.48,0.5-3.24l6.2-4.54c1.03-0.76,2.48-0.53,3.24,0.5
		c0.76,1.04,0.53,2.48-0.5,3.24l-6.2,4.54C179.29,224.78,178.81,224.92,178.33,224.92z"/>
	<path d="M186.22,231.9c-0.48,0-0.96-0.15-1.38-0.45c-1.03-0.76-1.25-2.21-0.5-3.24l4.88-6.62c0.76-1.04,2.21-1.25,3.24-0.5
		c1.03,0.76,1.25,2.21,0.5,3.24l-4.88,6.62C187.63,231.57,186.93,231.9,186.22,231.9z"/>
	<path d="M195.44,237.79c-0.17,0-0.34-0.02-0.51-0.05c-1.25-0.28-2.04-1.52-1.76-2.77l1.69-7.51c0.28-1.25,1.52-2.04,2.77-1.76
		c1.25,0.28,2.04,1.52,1.76,2.77l-1.69,7.51C197.46,237.05,196.51,237.79,195.44,237.79z"/>
	<path d="M203.58,242.33c-0.09,0-0.18-0.01-0.27-0.02c-1.28-0.15-2.18-1.3-2.04-2.58l1.04-8.95c0.15-1.28,1.3-2.19,2.58-2.04
		c1.28,0.15,2.18,1.3,2.04,2.58l-1.04,8.95C205.75,241.45,204.74,242.33,203.58,242.33z"/>
	<path d="M180.28,208.64c-0.1,0-0.2-0.01-0.3-0.02l-8.3-1.08c-1.27-0.16-2.17-1.33-2-2.6c0.16-1.27,1.33-2.17,2.6-2l8.3,1.08
		c1.27,0.16,2.17,1.33,2,2.6C182.42,207.79,181.43,208.64,180.28,208.64z"/>
	<path d="M182.18,196.49c-0.47,0-0.94-0.14-1.35-0.44l-6.75-4.88c-1.04-0.75-1.28-2.21-0.53-3.24c0.75-1.04,2.21-1.28,3.24-0.53
		l6.75,4.88c1.04,0.75,1.28,2.21,0.53,3.24C183.61,196.16,182.9,196.49,182.18,196.49z"/>
</g>
<g>
	<g>
		<circle class="st0" cx="79.87" cy="156.51" r="34.82"/>
		<path d="M79.92,196.75c-15.75,0-30.74-9.3-37.18-24.72c-8.56-20.48,1.14-44.09,21.61-52.64c9.92-4.15,20.86-4.18,30.8-0.1
			c9.94,4.08,17.71,11.79,21.85,21.71c4.15,9.91,4.18,20.86,0.1,30.8c-4.08,9.94-11.79,17.71-21.71,21.85
			C90.33,195.75,85.08,196.75,79.92,196.75z M79.87,127.09c-3.85,0-7.68,0.77-11.34,2.29c-14.96,6.25-22.05,23.51-15.79,38.48
			c6.25,14.96,23.51,22.05,38.48,15.79c7.25-3.03,12.88-8.7,15.86-15.96c2.98-7.27,2.96-15.26-0.07-22.5
			c-3.03-7.25-8.7-12.88-15.96-15.86C87.43,127.82,83.64,127.09,79.87,127.09z"/>
	</g>
	<path d="M75.5,169.82c-0.89,0-1.67-0.15-2.32-0.36c-2.07-0.65-4.02-2.2-5.63-4.47c-1.56-2.21-2.07-4.83-1.45-7.39
		c0.56-2.26,2-4.36,3.96-5.75c1.04-0.74,2.49-0.5,3.23,0.55s0.5,2.49-0.55,3.23c-1.07,0.76-1.84,1.87-2.14,3.06
		c-0.22,0.87-0.26,2.21,0.73,3.6c1.02,1.44,2.14,2.38,3.23,2.72c1.05,0.33,2.12,0.09,3.27-0.72c1.46-1.04,0.91-3.35-0.16-7.04
		c-1.16-3.99-2.62-8.95,1.53-11.89c4.38-3.1,9.11-1.97,12.64,3.02c1.97,2.78,1.97,5.18,1.62,6.72c-0.82,3.58-4.08,5.47-4.45,5.68
		c-1.12,0.62-2.54,0.21-3.16-0.91c-0.62-1.11-0.22-2.52,0.9-3.15c0.51-0.29,1.9-1.35,2.19-2.68c0.19-0.89-0.09-1.86-0.88-2.98
		c-2.63-3.71-4.68-2.97-6.18-1.92c-1.35,0.96-0.81,3.2,0.24,6.79c1.18,4.05,2.66,9.11-1.61,12.13
		C78.68,169.4,76.95,169.82,75.5,169.82z"/>
	<path d="M67.29,168.35c-0.73,0-1.45-0.34-1.9-0.98c-0.74-1.04-0.5-2.49,0.55-3.23L91.53,146c1.04-0.74,2.49-0.5,3.23,0.55
		c0.74,1.04,0.5,2.49-0.55,3.23l-25.58,18.13C68.22,168.21,67.76,168.35,67.29,168.35z"/>
	<path d="M51.44,181.17c-0.68,0-1.35-0.29-1.81-0.87c-0.8-1-0.64-2.46,0.36-3.27l7.55-6.07c1-0.8,2.46-0.64,3.27,0.36
		c0.8,1,0.64,2.46-0.36,3.27l-7.55,6.07C52.46,181,51.95,181.17,51.44,181.17z"/>
	<path d="M60.01,187.44c-0.5,0-1-0.15-1.42-0.49c-1.01-0.78-1.2-2.24-0.42-3.26l5.95-7.7c0.78-1.01,2.24-1.2,3.26-0.42
		c1.01,0.78,1.2,2.24,0.42,3.26l-5.95,7.7C61.39,187.13,60.71,187.44,60.01,187.44z"/>
	<path d="M69.68,192.13c-0.26,0-0.51-0.04-0.77-0.13c-1.21-0.43-1.85-1.75-1.43-2.96l2.95-8.47c0.42-1.21,1.74-1.85,2.96-1.43
		c1.21,0.43,1.85,1.75,1.43,2.96l-2.95,8.47C71.54,191.53,70.64,192.13,69.68,192.13z"/>
	<path d="M80.02,193.66c-0.17,0-0.35-0.02-0.53-0.06c-1.25-0.29-2.03-1.53-1.74-2.79l1.84-7.99c0.29-1.25,1.54-2.03,2.79-1.74
		c1.25,0.29,2.03,1.53,1.74,2.79l-1.84,7.99C82.03,192.93,81.07,193.66,80.02,193.66z"/>
	<path d="M93.29,190.96c-0.91,0-1.77-0.54-2.14-1.43l-2.83-6.84c-0.49-1.18,0.07-2.55,1.25-3.03c1.18-0.49,2.55,0.07,3.03,1.25
		l2.83,6.84c0.49,1.18-0.07,2.55-1.25,3.03C93.89,190.91,93.6,190.96,93.29,190.96z"/>
	<path d="M104.28,183.67c-0.68,0-1.36-0.3-1.82-0.88l-5.73-7.23c-0.8-1.01-0.63-2.47,0.38-3.26c1.01-0.8,2.46-0.63,3.26,0.38
		l5.73,7.23c0.8,1.01,0.63,2.47-0.38,3.26C105.3,183.51,104.79,183.67,104.28,183.67z"/>
	<path d="M111.83,172.64c-0.26,0-0.53-0.05-0.79-0.14l-8.8-3.18c-1.21-0.43-1.83-1.76-1.39-2.97c0.43-1.21,1.77-1.83,2.97-1.39
		l8.8,3.18c1.21,0.43,1.83,1.76,1.39,2.97C113.67,172.06,112.78,172.64,111.83,172.64z"/>
	<path d="M106.47,160.28c-1.11,0-2.09-0.8-2.28-1.92c-0.22-1.26,0.63-2.47,1.89-2.69l8.22-1.43c1.26-0.22,2.47,0.63,2.69,1.89
		c0.22,1.26-0.63,2.47-1.89,2.69l-8.22,1.43C106.74,160.28,106.6,160.28,106.47,160.28z"/>
	<path d="M104.32,151.12c-1.09,0-2.06-0.77-2.28-1.88c-0.25-1.26,0.57-2.48,1.83-2.72l7.83-1.53c1.26-0.25,2.48,0.57,2.72,1.83
		c0.25,1.26-0.57,2.48-1.83,2.72l-7.83,1.53C104.61,151.11,104.47,151.12,104.32,151.12z"/>
	<path d="M100.03,142.86c-0.74,0-1.46-0.35-1.91-1c-0.73-1.05-0.47-2.5,0.58-3.23l7.22-5.01c1.05-0.73,2.5-0.47,3.23,0.58
		c0.73,1.05,0.47,2.5-0.58,3.23l-7.22,5.01C100.95,142.72,100.49,142.86,100.03,142.86z"/>
	<path d="M62.49,139.33c-0.57,0-1.15-0.21-1.6-0.64l-5.57-5.29c-0.93-0.88-0.97-2.35-0.09-3.28c0.88-0.93,2.35-0.97,3.28-0.09
		l5.57,5.29c0.93,0.88,0.97,2.35,0.09,3.28C63.72,139.09,63.11,139.33,62.49,139.33z"/>
	<path d="M58.83,146.65c-0.34,0-0.69-0.08-1.02-0.24l-7.38-3.62c-1.15-0.56-1.63-1.96-1.06-3.1c0.56-1.15,1.96-1.63,3.1-1.06
		l7.38,3.62c1.15,0.56,1.63,1.96,1.06,3.1C60.52,146.17,59.69,146.65,58.83,146.65z"/>
	<path d="M54.99,153.48c-0.03,0-0.07,0-0.1,0l-7.68-0.33c-1.28-0.05-2.28-1.14-2.22-2.42c0.05-1.28,1.16-2.28,2.42-2.22l7.68,0.33
		c1.28,0.05,2.28,1.14,2.22,2.42C57.25,152.51,56.23,153.48,54.99,153.48z"/>
	<path d="M44.27,161.96c-1.21,0-2.24-0.94-2.31-2.17c-0.08-1.28,0.89-2.38,2.17-2.46l8.99-0.56c1.28-0.09,2.38,0.89,2.46,2.17
		c0.08,1.28-0.89,2.38-2.17,2.46l-8.99,0.56C44.37,161.96,44.32,161.96,44.27,161.96z"/>
	<path d="M73.29,133.06c-1.23,0-2.26-0.97-2.31-2.21l-0.4-8.35c-0.06-1.28,0.93-2.37,2.21-2.43c0.04,0,0.08,0,0.12,0
		c1.23,0,2.26,0.97,2.31,2.21l0.4,8.35c0.06,1.28-0.93,2.37-2.21,2.43C73.36,133.06,73.33,133.06,73.29,133.06z"/>
	<path d="M85.59,132.78c-0.34,0-0.68-0.07-1-0.23c-1.15-0.56-1.64-1.94-1.09-3.1l3.6-7.51c0.56-1.15,1.94-1.64,3.1-1.09
		c1.15,0.56,1.64,1.94,1.09,3.1l-3.6,7.51C87.28,132.29,86.45,132.78,85.59,132.78z"/>
</g>
<g>
	<g>
		<circle class="st0" cx="409.77" cy="56.43" r="34.82"/>
		<path d="M372.08,70.52c-5.5-14.76-2.01-32.05,10.19-43.47c16.2-15.17,41.71-14.32,56.87,1.87c7.35,7.85,11.19,18.09,10.84,28.83
			c-0.35,10.74-4.87,20.71-12.72,28.05c-7.84,7.35-18.09,11.19-28.83,10.84s-20.71-4.87-28.05-12.72
			C376.65,79.93,373.89,75.36,372.08,70.52z M437.35,46.16c-1.34-3.6-3.4-6.93-6.1-9.82c-11.08-11.84-29.73-12.46-41.57-1.37
			c-11.84,11.08-12.46,29.73-1.37,41.57c5.37,5.74,12.65,9.04,20.5,9.29s15.33-2.56,21.06-7.92c5.74-5.37,9.04-12.65,9.29-20.5
			C439.3,53.5,438.66,49.7,437.35,46.16z"/>
	</g>
	<path d="M395.78,56.98c-0.31-0.83-0.44-1.62-0.48-2.3c-0.11-2.17,0.66-4.53,2.22-6.83c1.52-2.23,3.8-3.63,6.42-3.94
		c2.31-0.27,4.78,0.35,6.77,1.71c1.06,0.72,1.33,2.16,0.61,3.22c-0.72,1.06-2.16,1.33-3.22,0.61c-1.08-0.74-2.4-1.07-3.62-0.93
		c-0.9,0.1-2.16,0.52-3.12,1.94c-0.99,1.46-1.49,2.83-1.43,3.97c0.06,1.1,0.65,2.02,1.81,2.81c1.48,1.01,3.46-0.31,6.54-2.61
		c3.33-2.48,7.47-5.57,11.67-2.71c4.44,3.02,5.03,7.85,1.58,12.9c-1.91,2.82-4.17,3.65-5.73,3.86c-3.64,0.48-6.55-1.91-6.88-2.19
		c-0.97-0.84-1.08-2.31-0.25-3.27c0.83-0.97,2.29-1.08,3.26-0.26c0.45,0.38,1.92,1.31,3.27,1.12c0.9-0.13,1.72-0.74,2.48-1.87
		c2.56-3.76,1.15-5.42-0.36-6.46c-1.37-0.93-3.29,0.36-6.28,2.6c-3.39,2.52-7.61,5.67-11.93,2.73
		C397.28,59.81,396.28,58.34,395.78,56.98z"/>
	<path d="M394.29,48.78c-0.25-0.68-0.19-1.47,0.26-2.12c0.72-1.06,2.16-1.33,3.22-0.61l25.92,17.65c1.06,0.72,1.33,2.16,0.61,3.22
		c-0.72,1.06-2.16,1.33-3.22,0.61l-25.92-17.65C394.75,49.6,394.45,49.21,394.29,48.78z"/>
	<path d="M376.74,38.39c-0.24-0.64-0.2-1.37,0.18-2c0.65-1.1,2.08-1.46,3.18-0.81l8.32,4.96c1.1,0.65,1.46,2.08,0.81,3.18
		s-2.08,1.46-3.18,0.81l-8.32-4.96C377.26,39.29,376.92,38.87,376.74,38.39z"/>
	<path d="M373.86,48.61c-0.17-0.46-0.2-0.99-0.04-1.5c0.38-1.22,1.68-1.91,2.91-1.53l9.29,2.89c1.22,0.38,1.91,1.68,1.53,2.91
		c-0.38,1.22-1.68,1.91-2.91,1.53l-9.29-2.89C374.63,49.8,374.1,49.27,373.86,48.61z"/>
	<path d="M372.84,59.31c-0.09-0.24-0.14-0.49-0.14-0.76c-0.02-1.28,0.99-2.34,2.27-2.37l8.97-0.19c1.28-0.03,2.34,0.99,2.37,2.27
		c0.02,1.28-0.99,2.34-2.27,2.37l-8.97,0.19C374.05,60.85,373.17,60.22,372.84,59.31z"/>
	<path d="M375.01,69.54c-0.06-0.16-0.11-0.33-0.13-0.51c-0.17-1.27,0.73-2.43,2-2.6l8.13-1.06c1.27-0.17,2.44,0.74,2.6,2
		c0.17,1.27-0.73,2.43-2,2.6l-8.13,1.06C376.4,71.17,375.38,70.53,375.01,69.54z"/>
	<path d="M382.18,81.03c-0.32-0.86-0.11-1.85,0.59-2.51l5.42-5.04c0.94-0.87,2.41-0.82,3.28,0.12c0.87,0.94,0.82,2.41-0.12,3.28
		l-5.42,5.04c-0.94,0.87-2.41,0.82-3.28-0.12C382.43,81.57,382.28,81.32,382.18,81.03z"/>
	<path d="M392.84,88.79c-0.24-0.64-0.19-1.38,0.19-2.01l4.77-7.9c0.66-1.1,2.09-1.45,3.19-0.78c1.1,0.66,1.45,2.09,0.78,3.19
		l-4.77,7.9c-0.66,1.1-2.09,1.45-3.19,0.78C393.35,89.68,393.02,89.26,392.84,88.79z"/>
	<path d="M405.81,92.01c-0.09-0.25-0.14-0.51-0.14-0.79l-0.09-9.36c-0.02-1.28,1.02-2.33,2.3-2.34s2.33,1.02,2.34,2.3l0.09,9.36
		c0.02,1.28-1.02,2.33-2.3,2.34C407,93.53,406.14,92.9,405.81,92.01z"/>
	<path d="M415.52,82.68c-0.39-1.04,0.02-2.24,1-2.81c1.1-0.65,2.53-0.27,3.18,0.83l4.21,7.2c0.64,1.11,0.27,2.53-0.83,3.18
		c-1.1,0.65-2.53,0.27-3.18-0.83l-4.21-7.2C415.62,82.93,415.57,82.8,415.52,82.68z"/>
	<path d="M423.36,77.46c-0.38-1.02,0-2.2,0.97-2.79c1.1-0.67,2.52-0.33,3.19,0.77l4.17,6.8c0.67,1.1,0.33,2.52-0.77,3.19
		c-1.1,0.67-2.52,0.33-3.19-0.77l-4.17-6.8C423.47,77.73,423.41,77.6,423.36,77.46z"/>
	<path d="M429.61,70.56c-0.26-0.69-0.18-1.49,0.27-2.14c0.73-1.05,2.18-1.31,3.23-0.58l7.21,5.02c1.05,0.73,1.31,2.18,0.58,3.23
		c-0.73,1.05-2.18,1.31-3.23,0.58l-7.21-5.02C430.05,71.37,429.76,70.99,429.61,70.56z"/>
	<path d="M419.81,34.14c-0.2-0.54-0.21-1.15,0.04-1.73l3.02-7.07c0.5-1.18,1.87-1.73,3.05-1.22c1.18,0.5,1.73,1.87,1.22,3.05
		l-3.02,7.07c-0.5,1.18-1.87,1.73-3.05,1.22C420.46,35.21,420.02,34.72,419.81,34.14z"/>
	<path d="M411.67,33.28c-0.12-0.32-0.17-0.67-0.13-1.04l0.82-8.18c0.13-1.28,1.27-2.21,2.54-2.08c1.28,0.13,2.21,1.27,2.08,2.54
		l-0.82,8.18c-0.13,1.28-1.27,2.21-2.54,2.08C412.71,34.69,411.97,34.08,411.67,33.28z"/>
	<path d="M403.93,32.06c-0.01-0.03-0.02-0.07-0.04-0.09l-2.37-7.32c-0.4-1.22,0.27-2.53,1.49-2.93c1.22-0.4,2.54,0.29,2.93,1.49
		l2.37,7.32c0.4,1.22-0.27,2.53-1.49,2.93C405.63,33.83,404.36,33.22,403.93,32.06z"/>
	<path d="M392.24,24.97c-0.42-1.14,0.1-2.43,1.23-2.93c1.17-0.52,2.54,0,3.07,1.18l3.66,8.23c0.53,1.17,0,2.54-1.18,3.07
		c-1.17,0.52-2.54,0-3.07-1.18l-3.66-8.23C392.27,25.07,392.25,25.02,392.24,24.97z"/>
	<path d="M429.45,42.08c-0.43-1.15,0.12-2.46,1.27-2.94l7.68-3.29c1.17-0.5,2.54,0.04,3.05,1.22c0.01,0.04,0.03,0.07,0.04,0.11
		c0.43,1.15-0.12,2.46-1.27,2.94l-7.68,3.29c-1.17,0.5-2.54-0.04-3.05-1.22C429.48,42.15,429.47,42.12,429.45,42.08z"/>
	<path d="M434,53.51c-0.12-0.32-0.17-0.66-0.13-1.02c0.12-1.27,1.25-2.22,2.52-2.1l8.29,0.75c1.27,0.12,2.22,1.25,2.1,2.52
		c-0.12,1.27-1.25,2.22-2.52,2.1l-8.29-0.75C435.05,54.92,434.31,54.32,434,53.51z"/>
</g>
<g>
	<g>
		<circle class="st0" cx="408.42" cy="188.98" r="34.82"/>
		<path d="M370.73,203.08c-5.5-14.76-2.01-32.05,10.19-43.47c16.2-15.17,41.71-14.32,56.87,1.87c7.35,7.85,11.19,18.09,10.84,28.83
			c-0.35,10.74-4.87,20.71-12.72,28.05c-7.84,7.35-18.09,11.19-28.83,10.84c-10.74-0.35-20.71-4.87-28.05-12.72
			C375.29,212.49,372.53,207.92,370.73,203.08z M435.99,178.72c-1.34-3.6-3.4-6.93-6.1-9.82c-11.08-11.84-29.73-12.46-41.57-1.37
			c-11.84,11.08-12.46,29.73-1.37,41.57c5.37,5.74,12.65,9.04,20.5,9.29c7.85,0.26,15.33-2.56,21.06-7.92
			c5.74-5.37,9.04-12.65,9.29-20.5C437.94,186.06,437.31,182.26,435.99,178.72z"/>
	</g>
	<path d="M394.42,189.53c-0.31-0.83-0.44-1.62-0.48-2.3c-0.11-2.17,0.66-4.53,2.22-6.83c1.52-2.23,3.8-3.63,6.42-3.94
		c2.31-0.27,4.78,0.35,6.77,1.71c1.06,0.72,1.33,2.16,0.61,3.22s-2.16,1.33-3.22,0.61c-1.08-0.74-2.4-1.07-3.62-0.93
		c-0.9,0.1-2.16,0.52-3.12,1.94c-0.99,1.46-1.49,2.83-1.43,3.97c0.06,1.1,0.65,2.02,1.81,2.81c1.48,1.01,3.46-0.31,6.54-2.61
		c3.33-2.48,7.47-5.57,11.67-2.71c4.44,3.02,5.03,7.85,1.58,12.9c-1.91,2.82-4.17,3.65-5.73,3.86c-3.64,0.48-6.55-1.91-6.88-2.19
		c-0.97-0.84-1.08-2.31-0.25-3.27c0.83-0.97,2.29-1.08,3.26-0.26c0.45,0.38,1.92,1.31,3.27,1.12c0.9-0.13,1.72-0.74,2.48-1.87
		c2.56-3.76,1.15-5.42-0.36-6.46c-1.37-0.93-3.29,0.36-6.28,2.6c-3.39,2.52-7.61,5.67-11.93,2.73
		C395.92,192.37,394.93,190.9,394.42,189.53z"/>
	<path d="M392.93,181.33c-0.25-0.68-0.19-1.47,0.26-2.12c0.72-1.06,2.16-1.33,3.22-0.61l25.92,17.65c1.06,0.72,1.33,2.16,0.61,3.22
		c-0.72,1.06-2.16,1.33-3.22,0.61l-25.92-17.65C393.39,182.15,393.09,181.77,392.93,181.33z"/>
	<path d="M375.38,170.95c-0.24-0.64-0.2-1.37,0.18-2c0.65-1.1,2.08-1.46,3.18-0.81l8.32,4.96c1.1,0.65,1.46,2.08,0.81,3.18
		s-2.08,1.46-3.18,0.81l-8.32-4.96C375.9,171.85,375.56,171.43,375.38,170.95z"/>
	<path d="M372.5,181.17c-0.17-0.46-0.2-0.99-0.04-1.5c0.38-1.22,1.68-1.91,2.91-1.53l9.29,2.89c1.22,0.38,1.91,1.68,1.53,2.91
		c-0.38,1.22-1.68,1.91-2.91,1.53l-9.29-2.89C373.27,182.35,372.74,181.82,372.5,181.17z"/>
	<path d="M371.48,191.87c-0.09-0.24-0.14-0.49-0.14-0.76c-0.02-1.28,0.99-2.34,2.27-2.37l8.97-0.19c1.28-0.03,2.34,0.99,2.37,2.27
		c0.02,1.28-0.99,2.34-2.27,2.37l-8.97,0.19C372.69,193.41,371.82,192.77,371.48,191.87z"/>
	<path d="M373.66,202.1c-0.06-0.16-0.11-0.33-0.13-0.51c-0.17-1.27,0.73-2.43,2-2.6l8.13-1.06c1.27-0.17,2.44,0.74,2.6,2
		c0.17,1.27-0.73,2.43-2,2.6l-8.13,1.06C375.04,203.73,374.02,203.08,373.66,202.1z"/>
	<path d="M380.82,213.59c-0.32-0.86-0.11-1.85,0.59-2.51l5.42-5.04c0.94-0.87,2.41-0.82,3.28,0.12c0.87,0.94,0.82,2.41-0.12,3.28
		l-5.42,5.04c-0.94,0.87-2.41,0.82-3.28-0.12C381.08,214.13,380.92,213.87,380.82,213.59z"/>
	<path d="M391.48,221.34c-0.24-0.64-0.19-1.38,0.19-2.01l4.77-7.9c0.66-1.1,2.09-1.45,3.19-0.78c1.1,0.66,1.45,2.09,0.78,3.19
		l-4.77,7.9c-0.66,1.1-2.09,1.45-3.19,0.78C391.99,222.24,391.66,221.82,391.48,221.34z"/>
	<path d="M404.45,224.57c-0.09-0.25-0.14-0.51-0.14-0.79l-0.09-9.36c-0.02-1.28,1.02-2.33,2.3-2.34s2.33,1.02,2.34,2.3l0.09,9.36
		c0.02,1.28-1.02,2.33-2.3,2.34C405.65,226.09,404.78,225.46,404.45,224.57z"/>
	<path d="M414.16,215.23c-0.39-1.04,0.02-2.24,1-2.81c1.1-0.65,2.53-0.27,3.18,0.83l4.21,7.2c0.64,1.11,0.27,2.53-0.83,3.18
		c-1.1,0.65-2.53,0.27-3.18-0.83l-4.21-7.2C414.27,215.49,414.21,215.36,414.16,215.23z"/>
	<path d="M422,210.02c-0.38-1.02,0-2.2,0.97-2.79c1.1-0.67,2.52-0.33,3.19,0.77l4.17,6.8c0.67,1.1,0.33,2.52-0.77,3.19
		c-1.1,0.67-2.52,0.33-3.19-0.77l-4.17-6.8C422.12,210.29,422.05,210.16,422,210.02z"/>
	<path d="M428.25,203.12c-0.26-0.69-0.18-1.49,0.27-2.14c0.73-1.05,2.18-1.31,3.23-0.58l7.21,5.02c1.05,0.73,1.31,2.18,0.58,3.23
		c-0.73,1.05-2.18,1.31-3.23,0.58l-7.21-5.02C428.7,203.93,428.41,203.55,428.25,203.12z"/>
	<path d="M418.45,166.7c-0.2-0.54-0.21-1.15,0.04-1.73l3.02-7.07c0.5-1.18,1.87-1.73,3.05-1.22c1.18,0.5,1.73,1.87,1.22,3.05
		l-3.02,7.07c-0.5,1.18-1.87,1.73-3.05,1.22C419.1,167.77,418.67,167.28,418.45,166.7z"/>
	<path d="M410.32,165.83c-0.12-0.32-0.17-0.67-0.13-1.04l0.82-8.18c0.13-1.28,1.27-2.21,2.54-2.08c1.28,0.13,2.21,1.27,2.08,2.54
		l-0.82,8.18c-0.13,1.28-1.27,2.21-2.54,2.08C411.35,167.25,410.61,166.64,410.32,165.83z"/>
	<path d="M402.57,164.61c-0.01-0.03-0.02-0.07-0.04-0.09l-2.37-7.32c-0.4-1.22,0.27-2.53,1.49-2.93s2.54,0.29,2.93,1.49l2.37,7.32
		c0.4,1.22-0.27,2.53-1.49,2.93C404.27,166.39,403,165.77,402.57,164.61z"/>
	<path d="M390.88,157.53c-0.42-1.14,0.1-2.43,1.23-2.93c1.17-0.52,2.54,0,3.07,1.18l3.66,8.23c0.53,1.17,0,2.54-1.18,3.07
		c-1.17,0.52-2.54,0-3.07-1.18l-3.66-8.23C390.92,157.62,390.9,157.57,390.88,157.53z"/>
	<path d="M428.09,174.64c-0.43-1.15,0.12-2.46,1.27-2.94l7.68-3.29c1.17-0.5,2.54,0.04,3.05,1.22c0.01,0.04,0.03,0.07,0.04,0.11
		c0.43,1.15-0.12,2.46-1.27,2.94l-7.68,3.29c-1.17,0.5-2.54-0.04-3.05-1.22C428.12,174.7,428.11,174.67,428.09,174.64z"/>
	<path d="M432.65,186.06c-0.12-0.32-0.17-0.66-0.13-1.02c0.12-1.27,1.25-2.22,2.52-2.1l8.29,0.75c1.27,0.12,2.22,1.25,2.1,2.52
		c-0.12,1.27-1.25,2.22-2.52,2.1l-8.29-0.75C433.7,187.48,432.95,186.88,432.65,186.06z"/>
</g>
</svg>
